<?xml version="1.0" standalone="no"?>
<!DOCTYPE svg PUBLIC "-//W3C//DTD SVG 1.1//EN" "http://www.w3.org/Graphics/SVG/1.1/DTD/svg11.dtd" >
<svg xmlns="http://www.w3.org/2000/svg" xmlns:xlink="http://www.w3.org/1999/xlink" version="1.1">
<metadata>
Created by FontForge 20170731 at Tue Feb 21 19:33:50 2012
 By Aleksey,,,
Copyright [c] 1997, 2002, 2006, 2008, 2012 Luc(as) de Groot, published by LucasFonts.
</metadata>
<defs>
<font id="Corpid-Heavy" horiz-adv-x="2253" >
  <font-face 
    font-family="Corpid Heavy"
    font-weight="450"
    font-stretch="normal"
    units-per-em="4096"
    panose-1="2 11 9 3 4 5 2 6 2 4"
    ascent="3191"
    descent="-905"
    x-height="2125"
    cap-height="2859"
    bbox="-413 -905 4708 4010"
    underline-thickness="488"
    underline-position="-1637"
    unicode-range="U+000D-FB04"
  />
<missing-glyph 
d="M614 614v1024h205v-819h410v-205h-615zM205 205v1843h1843v-1843h-1843zM1024 1434v204h614v-1024h-204v410h-410v205h410v205h-410zM1843 410v1433h-1433v-1433h1433z" />
    <glyph glyph-name=".notdef" 
d="M614 614v1024h205v-819h410v-205h-615zM205 205v1843h1843v-1843h-1843zM1024 1434v204h614v-1024h-204v410h-410v205h410v205h-410zM1843 410v1433h-1433v-1433h1433z" />
    <glyph glyph-name=".null" horiz-adv-x="0" 
 />
    <glyph glyph-name=".null" horiz-adv-x="0" 
 />
    <glyph glyph-name="nonmarkingreturn" unicode="&#xd;" horiz-adv-x="2048" 
 />
    <glyph glyph-name="space" unicode=" " horiz-adv-x="1106" 
 />
    <glyph glyph-name="space" unicode="&#xa0;" horiz-adv-x="1106" 
 />
    <glyph glyph-name="exclam" unicode="!" horiz-adv-x="1475" 
d="M1113 935h-587l-79 2137h745zM1210 344q0 -84 -30 -155.5t-82.5 -124.5t-124 -82.5t-154.5 -29.5t-154.5 29.5t-124 82.5t-82.5 124.5t-30 155.5q0 83 30 154.5t82.5 124t124 82.5t154.5 30t154.5 -30t124 -82.5t82.5 -124t30 -154.5z" />
    <glyph glyph-name="quotedbl" unicode="&#x22;" horiz-adv-x="2101" 
d="M1657 1937h-478l-59 1135h597zM777 1937h-479l-58 1135h596z" />
    <glyph glyph-name="numbersign" unicode="#" 
d="M1860 1678l-54 -456h261v-447h-310l-91 -775h-511l91 775h-386l-91 -775h-510l90 775h-257v447h306l54 456h-267v447h319l84 734h511l-84 -734h386l84 734h511l-84 -734h253v-447h-305zM963 1678l-54 -456h386l54 456h-386z" />
    <glyph glyph-name="dollar" unicode="$" 
d="M2066 890q0 -126 -26 -232t-72.5 -193t-110.5 -157t-141 -123t-163.5 -91t-177.5 -62v-507h-508v458q-96 2 -190.5 13.5t-185 28.5t-175 40.5t-160.5 49.5l112 538q69 -27 149 -49.5t167.5 -38.5t182.5 -25t195 -9q98 0 171.5 18.5t122 53t73 84t24.5 111.5
q0 56 -22 96.5t-60.5 70.5t-92 52t-116.5 40t-132.5 35t-140.5 38q-76 21 -150 48.5t-142 67t-126.5 92.5t-101 125t-67 165.5t-24.5 214.5q0 162 50.5 296.5t141.5 237t218 170.5t279 98v447h508v-433q66 -5 135.5 -18t137 -30t130.5 -37t115 -39l-130 -487
q-53 20 -120 37.5t-141 31.5t-150.5 21.5t-149.5 7.5q-87 0 -146.5 -17t-96 -48.5t-52.5 -74.5t-16 -93q0 -47 21 -81t57 -60.5t87 -47t110.5 -38t126 -34.5t135.5 -37q78 -22 155 -50.5t148 -68t132 -93.5t106.5 -127.5t71 -168.5t25.5 -217z" />
    <glyph glyph-name="percent" unicode="%" horiz-adv-x="3513" 
d="M1545 2155q0 -131 -24.5 -239.5t-70.5 -194.5t-111.5 -150t-147.5 -105.5t-179 -62t-206 -20.5q-176 0 -308.5 46t-222 141t-134.5 239.5t-45 341.5t54 342.5t152 241t233.5 142.5t299.5 47q176 0 309 -46.5t222 -141.5t134 -239.5t45 -341.5zM3419 717
q0 -132 -24.5 -240.5t-70 -194.5t-111 -149t-148 -105t-179.5 -62.5t-206 -20.5q-176 0 -309 46t-222 141t-134 239.5t-45 341.5q0 132 24.5 240t70 194t111.5 149.5t148 105.5t178.5 62.5t205.5 20.5q177 0 309.5 -46t222 -141t134.5 -239.5t45 -341.5zM1024 2155
q0 111 -12.5 184t-38 116t-63.5 61t-88 18q-54 0 -93 -20.5t-63.5 -66t-36.5 -119t-12 -177.5q0 -74 5.5 -130.5t17 -98.5t28 -71t39 -46.5t50.5 -25t61 -7.5q54 0 93 20.5t64 66t37 119t12 177.5zM2898 717q0 73 -5.5 130t-17 99.5t-28.5 71t-39 46t-50.5 24.5t-61.5 7
q-53 0 -92 -20.5t-64.5 -66t-37.5 -118t-12 -177.5q0 -111 13 -184t38.5 -116.5t63 -60.5t88.5 -17q54 0 92.5 20.5t63.5 66t37 118t12 177.5zM872 -109l-365 256l2136 2831l365 -258z" />
    <glyph glyph-name="ampersand" unicode="&#x26;" horiz-adv-x="3060" 
d="M2639 -89q-54 38 -114.5 81t-121.5 86.5t-118 86t-104 77.5q-87 -71 -187 -128t-213 -98t-240 -62.5t-270 -21.5q-167 0 -311 23.5t-262 72t-210 118.5t-154.5 163.5t-95.5 210t-33 256.5q0 119 29 224t86.5 199.5t145.5 181t208 168.5q-62 80 -112.5 157.5t-86.5 156.5
t-55 161.5t-19 172.5q0 167 57 301t166 229t266.5 146t357.5 51q96 0 193.5 -15t187 -47t167.5 -82.5t135.5 -122.5t91 -166.5t33.5 -213.5q0 -86 -16 -161t-47 -141.5t-77 -126.5t-105.5 -116.5t-133.5 -111.5t-160 -111q42 -39 86.5 -78.5t91 -79t94.5 -79.5t97.5 -79
t99 -77.5t98.5 -76.5q23 59 41.5 124.5t30.5 136.5t18 145t6 148h582q-3 -128 -19 -248.5t-43.5 -232.5t-65.5 -214t-84 -192q55 -39 110 -77.5t109 -75.5t107 -72.5t104 -70.5zM1470 2237q0 36 -7 67.5t-20 58.5t-33.5 47.5t-48 35t-61.5 22t-75 7.5q-59 0 -103.5 -20.5
t-75 -55t-46 -80t-15.5 -95.5q0 -45 10.5 -87t32.5 -87.5t57 -95.5t83 -110q81 54 138 102.5t93.5 95.5t53.5 94.5t17 100.5zM1731 576q-49 37 -107.5 84t-121.5 99t-127.5 107t-127 109.5t-119.5 106t-105 97.5q-37 -34 -68.5 -72t-53.5 -79t-33.5 -86t-11.5 -95
q0 -96 31 -171.5t91.5 -127.5t151.5 -80t209 -28q56 0 110 10t104.5 27.5t95.5 43t82 55.5z" />
    <glyph glyph-name="quotesingle" unicode="'" horiz-adv-x="1100" 
d="M798 1937h-500l-58 1135h617z" />
    <glyph glyph-name="parenleft" unicode="(" horiz-adv-x="1434" 
d="M711 -831q-134 251 -231.5 500t-160.5 499t-93 504t-30 518t30 518.5t93 505t160.5 499.5t231.5 500l536 -202q-85 -212 -150.5 -431t-110 -446t-67.5 -462t-23 -480q0 -246 23 -481.5t67.5 -462.5t110 -446t150.5 -432z" />
    <glyph glyph-name="parenright" unicode=")" horiz-adv-x="1434" 
d="M1239 1192q0 -264 -30 -519t-93.5 -505t-161 -499t-232.5 -500l-535 201q85 213 150.5 431.5t110.5 445.5t68 462.5t23 480.5q0 246 -22.5 481t-68 462t-111 446.5t-150.5 431.5l535 202q135 -251 232.5 -500t161 -499t93.5 -504.5t30 -517.5z" />
    <glyph glyph-name="asterisk" unicode="*" 
d="M1756 1586l-457 374l98 -578h-543l107 572l-465 -368l-269 466l549 211l-549 204l269 466l465 -374l-107 578h543l-106 -572l465 368l269 -466l-550 -203l550 -212z" />
    <glyph glyph-name="plus" unicode="+" 
d="M1403 1015v-796h-554v796h-735v509h735v793h554v-793h736v-509h-736z" />
    <glyph glyph-name="comma" unicode="," horiz-adv-x="1197" 
d="M595 746q92 0 168 -36.5t129 -101.5t81 -155t24.5 -197t-41 -227.5t-115 -247.5t-197.5 -255.5t-289 -251.5l-274 257q83 81 138 143.5t88 111.5t46.5 86t13.5 68q0 30 -11 56t-28 52.5t-36 56t-36 67t-28 85t-11 110.5q0 83 28 153t78 120t119.5 78t152.5 28z" />
    <glyph glyph-name="hyphen" unicode="-" horiz-adv-x="1270" 
d="M149 823v558h1096v-558h-1096z" />
    <glyph glyph-name="hyphen" unicode="&#x2010;" horiz-adv-x="1270" 
d="M149 823v558h1096v-558h-1096z" />
    <glyph glyph-name="hyphen" unicode="&#xad;" horiz-adv-x="1270" 
d="M149 823v558h1096v-558h-1096z" />
    <glyph glyph-name="period" unicode="." horiz-adv-x="1197" 
d="M992 355q0 -85 -29.5 -158t-83 -126t-125.5 -83t-157 -30q-84 0 -156.5 30t-125.5 83t-83 126t-30 158q0 84 30 156t83 125t125.5 83t156.5 30q85 0 157 -30t125.5 -83t83 -125t29.5 -156z" />
    <glyph glyph-name="slash" unicode="/" horiz-adv-x="2080" 
d="M645 -712l-621 188l1349 3859l622 -187z" />
    <glyph glyph-name="zero" unicode="0" 
d="M2171 1211q0 -183 -25 -349t-78.5 -307.5t-137 -256t-201 -196t-271 -125t-346.5 -43.5q-206 0 -362.5 44.5t-271 125.5t-191 195.5t-122.5 255t-65 303t-19 340.5q0 177 24.5 340t77 304t136 256t201 196.5t272 126.5t349.5 45q212 0 371.5 -48t273.5 -134t188.5 -203.5
t118.5 -257t61 -295.5t17 -317zM1451 1192q0 139 -8 249t-25 193.5t-44 142.5t-64 96.5t-85 54.5t-109 17q-55 0 -99.5 -17t-79.5 -53t-61 -92.5t-43 -137t-25 -186t-8 -239.5q0 -153 9.5 -270t28.5 -202.5t48 -142t67 -90.5t84.5 -48t102.5 -14q46 0 83 10t68 31t54.5 54
t41 77t30 101.5t20 127.5t11 154.5t3.5 183.5z" />
    <glyph glyph-name="one" unicode="1" 
d="M285 0v549h570v1208l-476 -228l-177 408l745 487h625v-1875h518v-549h-1805z" />
    <glyph glyph-name="two" unicode="2" 
d="M142 0v534l550 410q107 80 185.5 148.5t134.5 127.5t91 110.5t55 99t27.5 91.5t7.5 88q0 45 -10 82.5t-29 69t-47.5 55.5t-65 40.5t-81 25t-97.5 8.5q-69 0 -140 -8.5t-142 -25.5t-141 -41t-139 -56l-120 553q88 34 188 62t209 48.5t224.5 32t233.5 11.5q232 0 415.5 -46
t310 -137t194 -226t67.5 -314q0 -92 -12.5 -175t-43 -162t-80 -155t-124 -155.5t-175 -163.5t-232.5 -177l-247 -184h1003v-571h-1970z" />
    <glyph glyph-name="three" unicode="3" 
d="M2101 399q0 -161 -42.5 -291t-118.5 -231.5t-181 -175t-231 -121t-268 -70.5t-291 -23q-115 0 -225.5 3t-215 10.5t-201 18.5t-182.5 28v511q80 -7 156 -11.5t151 -7t149.5 -4t152.5 -1.5q129 0 223.5 25.5t156.5 71t92 109.5t30 143q0 65 -15.5 117.5t-47 93.5t-79 70.5
t-112 49.5t-145 29t-178.5 9h-247v514h290q140 0 238 25t159.5 70t90 105.5t28.5 132.5q0 45 -9 86t-28 75t-48.5 61.5t-71.5 47t-96.5 29.5t-122.5 10q-65 0 -133 -8t-140 -25t-147.5 -42t-154.5 -58l-115 523q109 41 219.5 72t221 52.5t220 32.5t216.5 11
q230 0 411.5 -51.5t307.5 -147.5t192.5 -233t66.5 -306q0 -121 -34.5 -228t-101.5 -194t-165 -151t-226 -99v-8q90 -7 170 -34.5t146.5 -72t119.5 -103.5t89.5 -129t56 -148.5t19.5 -161.5z" />
    <glyph glyph-name="four" unicode="4" 
d="M1912 65v-516h-693v516h-1158v638l888 1697h963v-1767h270v-568h-270zM1219 1788h-5l-612 -1155h617v1155z" />
    <glyph glyph-name="five" unicode="5" 
d="M2107 475q0 -234 -84.5 -418t-239 -310.5t-373 -193t-486.5 -66.5q-79 0 -173 4t-191.5 11.5t-194.5 18t-183 23.5v517q61 -6 126 -11t141.5 -8.5t169 -5.5t208.5 -2q126 0 222 24.5t160.5 72.5t96.5 119t32 164q0 88 -25 159t-83.5 121t-154 77t-236.5 27
q-77 0 -153 -3.5t-148.5 -10t-140.5 -14.5t-130 -17l23 1647h1620v-598h-1037l-9 -481q37 2 73.5 4l73 4t73 2.5t70.5 0.5q147 0 275 -21.5t234 -66t188.5 -114t139.5 -164.5t86.5 -217.5t29.5 -273.5z" />
    <glyph glyph-name="six" unicode="6" 
d="M2150 952q0 -150 -31.5 -283t-92 -246.5t-147.5 -203.5t-198 -153t-245 -97t-286 -34q-184 0 -331 39t-260 116t-194 192t-132.5 268t-76 343t-24.5 417q0 162 13.5 317t44 298.5t79.5 273t120 240.5t165.5 200t216 152t271.5 96.5t332 33.5q78 0 158 -7.5t159.5 -22
t156.5 -34.5t145 -43l-109 -470q-61 18 -123 32t-125.5 23.5t-127.5 14.5t-128 5q-105 0 -188 -27t-146.5 -75t-108 -114t-73 -143t-42.5 -162.5t-15 -172.5l1 -14q48 33 107.5 62t127 51t142 34.5t153.5 12.5q150 0 269.5 -29t209.5 -84.5t153.5 -135t103.5 -182t58 -225
t18 -263.5zM1451 910q0 75 -6 136.5t-19.5 110t-35 84t-51.5 58.5t-70 34.5t-90 11.5t-96.5 -8.5t-91 -23.5t-86.5 -36.5t-82 -47.5q0 -142 8 -254.5t25 -198.5t43 -146.5t61.5 -99t81 -56t101.5 -17.5q51 0 94 12.5t77 38.5t60 63.5t43 88.5t25.5 113t8.5 137z" />
    <glyph glyph-name="seven" unicode="7" 
d="M1379 267q-40 -84 -81.5 -161.5t-83.5 -148.5t-84.5 -135.5t-85 -123.5t-84.5 -112.5t-84 -102.5l-539 251q51 87 105.5 188t110.5 213t113 232.5t112 247.5l510 1187h-1126v598h1931v-596z" />
    <glyph glyph-name="eight" unicode="8" 
d="M2169 785q0 -211 -68 -370t-202 -266t-332.5 -161t-460.5 -54q-243 0 -433.5 42t-321.5 133.5t-200.5 237t-69.5 353.5q0 75 14.5 146t43.5 137t72.5 127.5t101 118t129.5 108.5t157 100q-94 57 -176 125.5t-142.5 154t-95.5 191t-35 236.5q0 120 28.5 225t84 191.5
t138 154.5t192.5 114.5t246.5 71t298.5 24.5q168 0 305 -23t243.5 -67.5t184.5 -108t129 -145t75.5 -179t24.5 -209.5q0 -110 -31 -206.5t-88.5 -179t-139 -153t-180.5 -130.5q119 -65 213 -143.5t160 -170.5t100.5 -198.5t34.5 -226.5zM1416 2127q0 69 -16.5 122.5
t-53 90.5t-92 56t-132.5 19q-76 0 -130.5 -20t-89 -56t-51.5 -85t-17 -107q0 -59 19 -110.5t59.5 -99.5t104 -92.5t151.5 -89.5q52 37 97.5 79t79 89t52.5 97.5t19 106.5zM1466 744q0 68 -23.5 124.5t-71.5 108.5t-120 101.5t-167 103.5q-62 -43 -116.5 -91.5t-95.5 -103
t-64.5 -114.5t-23.5 -125q0 -75 21 -131t64.5 -93t110 -55t156.5 -18q81 0 143 19t103.5 56t62.5 91.5t21 126.5z" />
    <glyph glyph-name="nine" unicode="9" 
d="M2123 1096q0 -223 -25.5 -429t-84.5 -386t-154 -327.5t-234 -253.5t-325 -164t-426 -58q-82 0 -165 4.5t-169 13t-175 21.5t-182 30l46 496q86 -14 169.5 -25.5t163.5 -19.5t155.5 -12t144.5 -4q107 0 191 25t147.5 70t108.5 108.5t74.5 140t45 165t19.5 183.5l-2 14
q-48 -33 -107 -62t-126.5 -51t-142.5 -34.5t-152 -12.5q-148 0 -266.5 28.5t-208.5 83t-154 134.5t-105 183t-60 228t-19 270q0 152 31.5 285.5t92 246t147.5 201.5t197.5 151t243.5 94.5t285 32.5q185 0 332.5 -38.5t261 -115t194.5 -191.5t133 -267.5t76 -342t24 -415.5z
M1432 1169q0 144 -8 257t-25 199t-42.5 146.5t-61.5 99t-81.5 56t-101.5 17.5q-53 0 -96 -12.5t-77.5 -37.5t-60 -62t-41.5 -86t-24 -110t-8 -133q0 -77 5.5 -140.5t18.5 -113t34 -86.5t51 -61t69.5 -36t91.5 -12q45 0 91.5 8.5t92 23.5t89.5 36.5t84 46.5z" />
    <glyph glyph-name="colon" unicode=":" horiz-adv-x="1279" 
d="M1074 1735q0 -85 -30 -157.5t-83 -125.5t-125.5 -83.5t-156.5 -30.5t-156.5 30.5t-125.5 83.5t-83 125.5t-30 157.5q0 83 30 155.5t83 125.5t125.5 83.5t156.5 30.5t156.5 -30.5t125.5 -83.5t83 -125.5t30 -155.5zM1074 355q0 -85 -30 -158t-83 -126t-125.5 -83
t-156.5 -30t-156.5 30t-125.5 83t-83 126t-30 158q0 84 30 156t83 125t125.5 83t156.5 30t156.5 -30t125.5 -83t83 -125t30 -156z" />
    <glyph glyph-name="semicolon" unicode=";" horiz-adv-x="1279" 
d="M1074 1735q0 -85 -30 -157.5t-83 -125.5t-125.5 -83.5t-156.5 -30.5t-156.5 30.5t-125.5 83.5t-83 125.5t-30 157.5q0 83 30 155.5t83 125.5t125.5 83.5t156.5 30.5t156.5 -30.5t125.5 -83.5t83 -125.5t30 -155.5zM677 746q92 0 168 -36.5t129 -101.5t81 -155t24.5 -197
t-41 -227.5t-115 -247.5t-197.5 -255.5t-289 -251.5l-274 257q83 81 138 143.5t88 111.5t46.5 86t13.5 68q0 30 -11.5 56t-28 52.5t-35.5 56t-36 67t-28 85t-11 110.5q0 83 28 153t78 120t119.5 78t152.5 28z" />
    <glyph glyph-name="less" unicode="&#x3c;" 
d="M172 1009v534l1811 890v-604l-1219 -549l1219 -546v-614z" />
    <glyph glyph-name="equal" unicode="=" 
d="M196 1481v503h1861v-503h-1861zM196 564v503h1861v-503h-1861z" />
    <glyph glyph-name="greater" unicode="&#x3e;" 
d="M270 120v602l1219 547l-1219 549v615l1811 -890v-534z" />
    <glyph glyph-name="question" unicode="?" horiz-adv-x="1941" 
d="M1797 2392q0 -136 -30.5 -242.5t-79.5 -192t-111.5 -157.5t-126.5 -140.5t-123.5 -140t-103.5 -156.5t-65.5 -189t-10.5 -239h-603q-30 159 -23 283t39 221t83 172.5t108.5 139.5t116 121t105.5 117.5t76.5 128t29.5 152.5q0 73 -23.5 131t-73.5 98.5t-129.5 62
t-192.5 21.5q-115 0 -225 -8t-203 -21v496q55 15 119.5 28.5t136 23t148 15t155.5 5.5q266 0 456 -51t312.5 -145.5t180.5 -229.5t58 -304zM1248 344q0 -84 -29.5 -155.5t-82 -124.5t-124 -82.5t-155.5 -29.5t-155.5 29.5t-124 82.5t-82 124.5t-29.5 155.5q0 83 29.5 154.5
t82 124t124 82.5t155.5 30t155.5 -30t124 -82.5t82 -124t29.5 -154.5z" />
    <glyph glyph-name="at" unicode="@" horiz-adv-x="3609" 
d="M3259 -343q-127 -60 -265.5 -106.5t-285.5 -79.5t-301.5 -50t-312.5 -17q-281 0 -526.5 57t-448.5 165t-362.5 262t-269.5 349t-167.5 426t-57.5 493q0 284 65.5 527t185.5 442.5t290.5 353t379.5 258.5t452 159t509 54q221 0 391 -33.5t295 -92.5t210 -141t136.5 -178.5
t73.5 -205t22 -220.5v-1473h-506l-61 259q-53 -79 -119.5 -138t-148 -98.5t-177 -59.5t-206.5 -20q-158 0 -291 46.5t-228.5 130t-148.5 200t-53 257.5q0 206 70 347.5t211 229t354 126.5t498 39h143v128q0 98 -24.5 173t-84.5 126.5t-161 77t-254 25.5q-177 0 -337 -38.5
t-297 -113t-247.5 -183t-188.5 -249t-120 -311.5t-42 -368q0 -187 39.5 -355t115.5 -310.5t188 -256.5t257.5 -194t324 -123t387.5 -43q120 0 238.5 12t237.5 38t240.5 67t247.5 100l130 -470v0zM2609 1520h-159q-120 0 -207 -14.5t-144 -46.5t-83.5 -82.5t-26.5 -123.5
q0 -51 15.5 -92.5t45.5 -71t75 -45.5t104 -16q60 0 112 15t98.5 43.5t88.5 67.5t81 87v279z" />
    <glyph glyph-name="A" unicode="A" horiz-adv-x="2886" 
d="M2039 0q-18 66 -36.5 138t-38 146.5t-39.5 150t-41 148.5h-979q-23 -77 -44.5 -151.5t-42 -148t-40 -144t-37.5 -139.5h-704q104 356 213.5 707.5t227.5 705t246 713t269 733.5h889q136 -360 267 -722.5t254 -722t235.5 -714.5t213.5 -700h-813zM1739 1126
q-40 134 -80.5 265t-81.5 261t-84 261.5t-89 267.5l-4 -2q-46 -135 -90.5 -267t-87.5 -263.5t-84.5 -262t-81.5 -260.5h683z" />
    <glyph glyph-name="B" unicode="B" horiz-adv-x="2567" 
d="M2441 890q0 -167 -46 -298t-128.5 -230t-196 -168t-248 -112t-285.5 -62.5t-308 -19.5h-964v2859h963q162 0 303 -18t258 -55t208.5 -95t154.5 -138.5t96 -185t33 -233.5q0 -106 -30 -198t-83.5 -165.5t-128.5 -127.5t-167 -86q123 -20 227 -73.5t180 -138.5t119 -199.5
t43 -255.5zM1567 2034q0 50 -11 92t-32 75.5t-52.5 58.5t-72 41.5t-91.5 24.5t-111 8h-229v-614h263q87 0 150.5 23.5t104.5 66t61 99.5t20 125zM1694 864q0 80 -25.5 144.5t-80.5 109.5t-141.5 69t-207.5 24h-271v-675h331q60 0 113 9.5t97 29t78.5 47t58 64t36 81
t12.5 97.5z" />
    <glyph glyph-name="C" unicode="C" horiz-adv-x="2376" 
d="M2313 104q-75 -37 -166.5 -67t-189.5 -52t-197.5 -34t-190.5 -12q-336 0 -600 89.5t-446 269.5t-277.5 451.5t-95.5 635.5q0 249 46.5 459.5t133 381t210 300.5t278.5 217.5t339 132t391 44.5q101 0 199 -9.5t192.5 -30t185.5 -51.5t178 -73l-208 -551q-62 30 -125 52.5
t-127 37t-128 21t-129 6.5q-108 0 -199.5 -31t-166 -86.5t-131.5 -135.5t-95.5 -178.5t-58 -214t-19.5 -242.5q0 -240 53 -409t149.5 -276.5t230.5 -157.5t296 -50q64 0 128.5 8.5t126.5 23t121.5 35.5t116.5 47l175 -551v0z" />
    <glyph glyph-name="D" unicode="D" horiz-adv-x="2926" 
d="M2788 1467q0 -253 -50 -460t-143 -370t-228 -282.5t-305 -198.5t-373.5 -117.5t-433.5 -38.5h-990v2859h1051q232 0 431 -38t363 -114t290 -191t212 -269.5t131 -349t45 -430.5zM2042 1431q0 126 -18 240t-56.5 211.5t-99 176t-146.5 134t-199 85.5t-255 30h-285v-1751
h285q193 0 338 58.5t241.5 170t145.5 274.5t49 371z" />
    <glyph glyph-name="E" unicode="E" horiz-adv-x="2249" 
d="M265 0v2859h1768v-551h-1050v-563h896v-542h-896v-652h1064v-551h-1782z" />
    <glyph glyph-name="F" unicode="F" horiz-adv-x="2069" 
d="M989 2308v-611h817v-544h-817v-1153h-724v2859h1648v-551h-924z" />
    <glyph glyph-name="G" unicode="G" horiz-adv-x="2886" 
d="M2450 2148q-94 48 -188.5 83.5t-189 59t-189.5 36t-190 12.5q-123 0 -231.5 -28.5t-199.5 -82.5t-163.5 -132.5t-122 -179t-76 -221.5t-26.5 -261q0 -224 55 -393.5t158 -282.5t250.5 -170t332.5 -57q67 0 128 9.5t118 26.5v1012h721v-1480q-99 -37 -217.5 -66.5
t-248 -51t-266.5 -33.5t-274 -12q-236 0 -437.5 43t-367.5 127.5t-294.5 208.5t-215.5 286t-132.5 361t-45.5 433q0 240 48 446t140 375.5t225 300.5t303.5 220.5t376.5 136t443 46.5q141 0 270.5 -15t251 -45t236.5 -74t226 -103z" />
    <glyph glyph-name="H" unicode="H" horiz-adv-x="2920" 
d="M1934 0v1167h-948v-1167h-721v2859h721v-1082h948v1082h721v-2859h-721z" />
    <glyph glyph-name="I" unicode="I" horiz-adv-x="1253" 
d="M265 0v2859h721v-2859h-721z" />
    <glyph glyph-name="J" unicode="J" horiz-adv-x="1516" 
d="M1251 876q0 -143 -15 -268.5t-51 -229.5t-95.5 -186.5t-147.5 -139.5t-206.5 -87t-274.5 -30q-39 0 -89.5 3.5t-105.5 9.5t-110.5 15t-104.5 21v571h212q43 0 79.5 6.5t66 21.5t51.5 38.5t37 56.5t22.5 76t7.5 98v2007h724v-1983v0z" />
    <glyph glyph-name="K" unicode="K" horiz-adv-x="2694" 
d="M1821 0l-643 1255l-192 -229v-1026h-721v2859h721v-1040q99 130 198 259.5t196.5 260t195 260.5t194.5 260h865l-939 -1101l975 -1758h-850z" />
    <glyph glyph-name="L" unicode="L" horiz-adv-x="1923" 
d="M265 0v2859h724v-2288h884v-571h-1608z" />
    <glyph glyph-name="M" unicode="M" horiz-adv-x="3957" 
d="M3000 0q-1 181 -3.5 365.5t-7 369t-11.5 367t-15.5 360t-20 347t-24.5 327.5h-4l-639 -2136h-678l-621 2136h-6q-11 -157 -22 -326.5t-20 -347t-16.5 -360.5t-13 -368t-9 -369.5t-4.5 -364.5h-650q1 222 6.5 456t15.5 475t24 485.5t32.5 488.5t40 483.5t46.5 470.5h1046
l530 -1815h3l546 1815h1044q24 -232 44.5 -471.5t37 -482t30 -486t22.5 -484t14.5 -475.5t7.5 -460h-725z" />
    <glyph glyph-name="N" unicode="N" horiz-adv-x="3018" 
d="M1834 0l-934 1868h-8v-1868h-627v2859h932l921 -1846h8v1846h628v-2859h-920z" />
    <glyph glyph-name="O" unicode="O" horiz-adv-x="3157" 
d="M3008 1458q0 -242 -41 -448.5t-121.5 -376t-202 -299.5t-281.5 -219t-359.5 -134.5t-437.5 -45.5q-228 0 -422 36.5t-351.5 113t-277 195.5t-200.5 284.5t-122 378.5t-41 479q0 231 42 432.5t124.5 368.5t204.5 297t282 220t357 137t431 47q223 0 415.5 -38.5t349.5 -117
t278.5 -198t204.5 -282.5t125.5 -370t42.5 -460zM2251 1415q0 142 -14.5 265t-47 226t-85 183.5t-128.5 136t-177.5 85t-231.5 29.5q-128 0 -227 -32t-172 -90.5t-123 -139.5t-80 -178t-43.5 -208t-13.5 -228q0 -151 15 -280t48 -234t85.5 -185.5t128 -135.5t176.5 -82.5
t230 -27.5q126 0 224.5 31.5t172 89.5t124 139.5t81.5 181t44.5 214.5t13.5 240z" />
    <glyph glyph-name="P" unicode="P" horiz-adv-x="2464" 
d="M2363 1966q0 -260 -77.5 -455t-227.5 -325t-369.5 -194.5t-502.5 -64.5h-200v-927h-721v2859h945q109 0 207 -7t195 -26q176 -32 315 -101.5t236 -177t148.5 -253t51.5 -328.5zM1606 1915q0 70 -13.5 130t-41 108t-70.5 82.5t-102 54.5q-23 7 -47.5 12t-51 8.5t-55.5 5
t-61 1.5h-178v-847h227q107 0 181 33t121.5 92t69 140.5t21.5 179.5z" />
    <glyph glyph-name="Q" unicode="Q" horiz-adv-x="3182" 
d="M2799 -350l-475 451q-76 -40 -162 -71.5t-181 -52.5t-199 -31.5t-217 -10.5q-228 0 -422 36.5t-351.5 113t-277 195.5t-200.5 284.5t-122 378.5t-41 479q0 231 42 432.5t124.5 368.5t204.5 297t282 220t357 137t431 47q223 0 415.5 -38.5t349.5 -117t278.5 -198
t204.5 -282.5t125.5 -370t42.5 -460q0 -156 -18 -300t-53 -273.5t-88 -243t-123 -209.5l441 -419zM2251 1415q0 142 -14.5 265t-47 226t-85 183.5t-128.5 136t-177.5 85t-231.5 29.5q-128 0 -227 -32t-172 -90.5t-123 -139.5t-80 -178t-43.5 -208t-13.5 -228q0 -151 15 -280
t48 -234t85.5 -185.5t128 -135.5t176.5 -82.5t230 -27.5q35 0 67 3.5t61 11t55 18t50 24.5l-354 337l367 363l337 -320q19 45 33 98t24 111t15 121.5t5 128.5z" />
    <glyph glyph-name="R" unicode="R" horiz-adv-x="2600" 
d="M1714 0l-522 1096h-206v-1096h-721v2859h1081q151 0 287.5 -20t253 -62t210 -106t159.5 -152.5t101.5 -202t35.5 -253.5q0 -103 -16 -193t-46.5 -167t-75 -141.5t-101 -117t-124.5 -92.5t-147 -68l660 -1284h-829zM1636 1993q0 44 -8.5 85.5t-27 77.5t-47.5 66t-69 50.5
t-92.5 32.5t-117.5 12h-288v-697h209q110 0 192.5 27t138 75.5t83 117.5t27.5 153z" />
    <glyph glyph-name="S" unicode="S" horiz-adv-x="2233" 
d="M2108 916q0 -170 -41.5 -309.5t-118 -248t-183 -188.5t-237.5 -132t-282.5 -77.5t-316.5 -25.5q-76 0 -143.5 3t-129.5 9t-121 15t-119 21.5t-123 28t-134 35.5l73 576q75 -26 154.5 -46.5t161 -35.5t166 -22.5t167.5 -7.5q130 0 219.5 20t144.5 57.5t79.5 93t24.5 126.5
q0 48 -11.5 86.5t-36 70.5t-63 60t-91.5 54t-122.5 53t-155.5 57q-109 39 -204 84t-173.5 100t-140 121.5t-104 148.5t-64 180.5t-21.5 218.5q0 147 38 270t108 220.5t167.5 171t216 122.5t254 73.5t282.5 24.5q99 0 193 -7.5t182.5 -21.5t172.5 -35.5t163 -50.5l-97 -546
q-66 24 -137.5 44t-146.5 33.5t-152.5 21.5t-153.5 8q-77 0 -138 -15t-103 -45t-65 -74t-23 -104q0 -48 11.5 -86t33 -69.5t54 -57.5t74.5 -49t93.5 -44.5t111.5 -43.5q96 -35 194 -72.5t187.5 -85.5t167 -110.5t135 -147t90.5 -195.5t33 -255z" />
    <glyph glyph-name="T" unicode="T" horiz-adv-x="2264" 
d="M1494 2282v-2282h-724v2282h-731v577h2186v-577h-731z" />
    <glyph glyph-name="U" unicode="U" horiz-adv-x="2988" 
d="M2723 1075q0 -265 -78.5 -476t-233.5 -358t-387 -226t-539 -79q-295 0 -523 68.5t-383.5 207t-235.5 347.5t-80 490v1810h720v-1760q0 -99 17.5 -180.5t50 -145.5t79 -112.5t104.5 -80t126.5 -47t145.5 -15.5q118 0 212.5 38t160 109t101 172t35.5 226v1796h708v-1784v0z
" />
    <glyph glyph-name="V" unicode="V" horiz-adv-x="2802" 
d="M2776 2859q-94 -344 -193.5 -689.5t-213 -699t-243 -719.5t-269.5 -751h-914q-133 360 -257 722.5t-239.5 722t-219.5 714.5t-197 700h808q37 -159 81 -335t96 -360t105.5 -371l107 -374t109 -362.5t105.5 -335.5h4q94 307 188.5 604.5t170.5 566t138 511t111 456.5h722
v0z" />
    <glyph glyph-name="W" unicode="W" horiz-adv-x="4214" 
d="M4108 2859q-51 -339 -112.5 -680.5t-135.5 -694t-161 -721t-189 -763.5h-970l-433 1852h-5l-425 -1852h-982q-97 367 -182 733t-158 726.5t-134 711.5t-109 688h789q19 -161 42.5 -337.5t51.5 -359.5t58.5 -369.5t63.5 -367t67.5 -351.5t69.5 -323h4l480 2108h800
l494 -2108h4q45 204 85.5 400.5t76 383.5t66 365t56 345t45.5 320.5t35 293.5h708v0z" />
    <glyph glyph-name="X" unicode="X" horiz-adv-x="2709" 
d="M1809 0l-468 971l-465 -971h-860l821 1487l-735 1372h853l411 -856l402 856h831l-730 -1364l816 -1495h-876z" />
    <glyph glyph-name="Y" unicode="Y" horiz-adv-x="2508" 
d="M2494 2859q-57 -159 -119 -314t-129.5 -306t-140 -298.5t-150 -290.5t-161 -281.5t-172.5 -273.5v-1095h-724v1095q-132 207 -252.5 421.5t-231 435t-210.5 447.5t-191 460h819q32 -101 65 -197.5t67.5 -189t71.5 -182.5t77.5 -180t84.5 -181t94 -185q46 86 89 173.5
t82 177.5t76 182.5t70 187.5t63.5 193.5t58.5 200.5h763v0z" />
    <glyph glyph-name="Z" unicode="Z" horiz-adv-x="2191" 
d="M101 0v542l1111 1758h-1055v559h1879v-540l-1093 -1762h1124v-557h-1966z" />
    <glyph glyph-name="bracketleft" unicode="[" horiz-adv-x="1530" 
d="M292 -771v3926h1027v-490h-382v-2946h382v-490h-1027z" />
    <glyph glyph-name="backslash" unicode="\" horiz-adv-x="2080" 
d="M1435 -712l-1349 3860l621 187l1349 -3859z" />
    <glyph glyph-name="bracketright" unicode="]" horiz-adv-x="1530" 
d="M208 -771v490h381v2946h-381v490h1026v-3926h-1026z" />
    <glyph glyph-name="asciicircum" unicode="^" 
d="M1491 1462l-362 887l-345 -887h-669l611 1397h815l623 -1397h-673z" />
    <glyph glyph-name="underscore" unicode="_" 
d="M0 -905v488h2253v-488h-2253z" />
    <glyph glyph-name="grave" unicode="`" horiz-adv-x="1319" 
d="M667 2346l-667 590l478 283l523 -664z" />
    <glyph glyph-name="a" unicode="a" horiz-adv-x="2321" 
d="M1564 0l-46 189q-61 -60 -132 -107.5t-153 -80t-174 -50t-196 -17.5q-160 0 -295.5 41t-235.5 124.5t-156.5 209.5t-56.5 297q0 192 72.5 328t216.5 222.5t358 127t498 40.5h146v85q0 71 -16.5 125t-59 89.5t-117 53.5t-189.5 18q-79 0 -161 -9.5t-163.5 -26.5
t-158.5 -39.5t-145 -48.5l-110 474q83 33 183 59.5t207.5 46t217 30t213.5 10.5q167 0 304 -18.5t245.5 -58.5t188 -101.5t132 -146t78 -194.5t25.5 -246v-1426h-520zM1410 905h-161q-125 0 -212.5 -14.5t-143 -46.5t-81 -81.5t-25.5 -117.5q0 -50 16 -91.5t48.5 -71
t81.5 -46.5t114 -17q53 0 102.5 13.5t95 37t87 56t78.5 70.5v309z" />
    <glyph glyph-name="b" unicode="b" horiz-adv-x="2511" 
d="M2378 1159q0 -184 -31.5 -345t-96 -295.5t-163.5 -240t-233 -178.5t-304 -111t-378 -38q-118 0 -237.5 12t-237.5 33t-233.5 50t-224.5 62v2964h686v-1094q56 48 118 87.5t132.5 67.5t150 43t168.5 15q151 0 274.5 -36t222 -102.5t171.5 -160.5t121 -208.5t71.5 -247.5
t23.5 -277zM1659 1067q0 92 -7 169.5t-23 140.5t-41 111.5t-60 81t-81 49.5t-103 17t-110 -15t-105 -45t-102.5 -74t-101.5 -102v-830q26 -15 59 -28.5t70 -24.5t78 -17.5t85 -6.5q107 0 189.5 36.5t138.5 108.5t85 179.5t29 249.5z" />
    <glyph glyph-name="c" unicode="c" horiz-adv-x="1842" 
d="M1772 83q-74 -32 -149.5 -58t-154.5 -44.5t-163 -28t-173 -9.5q-250 0 -437.5 74t-313 212.5t-188.5 338t-63 450.5q0 287 77.5 504.5t219 363.5t341 220.5t443.5 74.5q66 0 135.5 -6t139 -19t137 -33.5t130.5 -49.5l-140 -508q-35 14 -75.5 27t-84.5 22.5t-89 15
t-90 5.5q-111 0 -193 -38t-135 -110t-79 -176.5t-26 -237.5q0 -138 25 -243.5t78.5 -176.5t138 -107.5t201.5 -36.5q51 0 99 5t94 14.5t90 24.5t88 35l117 -505v0z" />
    <glyph glyph-name="d" unicode="d" horiz-adv-x="2511" 
d="M1751 0l-47 232q-68 -70 -141 -125t-155.5 -93.5t-175 -59t-199.5 -20.5q-155 0 -282 36t-227 102t-173.5 159.5t-122.5 209t-72.5 249t-23.5 280.5q0 172 29.5 328.5t90 290.5t152.5 242.5t216 184.5t281 118t349 42q43 0 86.5 -3t86 -7t83 -11t78.5 -15v932h684v-3072
h-517zM1584 1547q-48 34 -126.5 59.5t-179.5 25.5q-105 0 -184.5 -36t-133.5 -107.5t-81.5 -178.5t-27.5 -251q0 -92 7 -169.5t23.5 -141t42 -112t61.5 -81t84 -49t109 -16.5q37 0 72 6t68.5 19t66 32.5t65 45.5t66 59t68.5 74v821z" />
    <glyph glyph-name="e" unicode="e" horiz-adv-x="2339" 
d="M2184 1167q0 -24 -1 -57.5t-2 -71.5t-3 -77.5t-4 -76.5h-1341q0 -68 11.5 -125.5t37 -104.5t65 -83t94.5 -60.5t126.5 -37t160.5 -12.5q87 0 178 6t183 17t183 27t178 37l59 -491q-102 -30 -207 -52.5t-215 -38t-225 -24t-234 -8.5q-277 0 -483.5 65.5t-342.5 200.5
t-203 342t-67 490q0 272 70.5 487.5t208.5 365t342 228t470 78.5q168 0 305 -29t244 -86.5t184.5 -143.5t128.5 -200t75 -255.5t24 -309.5zM1513 1303q4 95 -12 173t-54.5 133t-103 85t-156.5 30q-60 0 -109 -15.5t-88 -43.5t-68 -66.5t-48 -85.5t-29.5 -100t-11.5 -110h680
v0z" />
    <glyph glyph-name="f" unicode="f" horiz-adv-x="1469" 
d="M1272 2609q-46 0 -80.5 -9.5t-60.5 -27.5t-43.5 -43.5t-28.5 -58t-15.5 -69.5t-4.5 -79v-197h371v-517h-371v-1608h-686v1608h-291v517h291v171q0 127 16 237t51 202.5t91.5 164.5t138 122t189 76.5t244.5 26.5q56 0 108.5 -3t100.5 -8t91 -12.5t82 -15.5v-477h-193z" />
    <glyph glyph-name="g" unicode="g" horiz-adv-x="2511" 
d="M2270 92q0 -172 -34.5 -311t-101.5 -246.5t-164.5 -185.5t-224 -128.5t-279.5 -74.5t-329 -24q-90 0 -183 4t-184 12.5t-177.5 21t-162.5 28.5l20 512q74 -13 155 -23t164 -16.5t168 -10t170 -3.5q82 0 150 7t121 22.5t92 40.5t64 61t37.5 84t12.5 109v213
q-53 -45 -114 -83t-129 -63.5t-141.5 -38.5t-152.5 -13q-159 0 -289 37.5t-231.5 104t-175.5 159.5t-123 206.5t-72.5 244.5t-23.5 273q0 174 32 328.5t98 285t166 230t234 172t303.5 111t375.5 38.5q98 0 199 -7t213 -24.5t239.5 -48.5t277.5 -77v-1927v0zM1584 1560
q-24 17 -55.5 31t-69 23t-79.5 14t-87 5q-105 0 -187.5 -37t-139 -108.5t-86 -167t-29.5 -229.5q0 -86 6.5 -160.5t23 -136t42.5 -109t65 -80t91.5 -49.5t121.5 -17q54 0 106.5 13t101.5 37.5t93 59t82 78.5v833z" />
    <glyph glyph-name="h" unicode="h" horiz-adv-x="2508" 
d="M1594 0v1206q0 69 -6 128.5t-19 106.5t-34 83t-50.5 60.5t-68.5 36.5t-90 12q-63 0 -113.5 -15t-97 -43.5t-92 -71t-98.5 -98.5v-1405h-686v3072h686v-1118q59 52 121.5 95.5t135.5 75t159 49t191 17.5q123 0 226.5 -24.5t186.5 -73t146 -120.5t105 -165t63 -207.5
t21 -248.5v-1352h-686z" />
    <glyph glyph-name="i" unicode="i" horiz-adv-x="1281" 
d="M1087 2720q0 -87 -29 -158t-81 -121t-125 -77.5t-161 -27.5t-161 27.5t-125 77.5t-81 121t-29 158q0 88 29 158.5t81 120.5t125 77.5t161 27.5t161 -27.5t125 -77.5t81 -120.5t29 -158.5zM355 0v1608h-301v517h987v-2125h-686z" />
    <glyph glyph-name="j" unicode="j" horiz-adv-x="1216" 
d="M1032 2720q0 -87 -28.5 -158t-81 -121t-125.5 -77.5t-161 -27.5t-161 27.5t-125 77.5t-81 121t-29 158q0 88 29 158.5t81 120.5t125 77.5t161 27.5t161 -27.5t125.5 -77.5t81 -120.5t28.5 -158.5zM977 0q0 -145 -20.5 -267t-61.5 -220t-102 -173t-144 -125t-186 -75
t-228 -25q-38 0 -81 2.5t-86.5 6.5t-85.5 10t-78 14l20 535h130q57 0 100.5 14t74 46.5t46.5 87.5t16 136v2158h686v-2125v0z" />
    <glyph glyph-name="k" unicode="k" horiz-adv-x="2345" 
d="M1512 0l-422 944l-165 -179v-765h-686v3072h686v-1604q130 166 259.5 329.5t258.5 327.5h822l-666 -716l722 -1409h-809z" />
    <glyph glyph-name="l" unicode="l" horiz-adv-x="1248" 
d="M1199 0q-35 -10 -78 -20.5t-93.5 -19t-110 -14t-126.5 -5.5q-120 0 -221.5 26t-175 89.5t-114.5 170.5t-41 269v2576h686v-2397q0 -50 8 -86t26 -59.5t47.5 -34t72.5 -10.5h120v-485v0z" />
    <glyph glyph-name="m" unicode="m" horiz-adv-x="3776" 
d="M2864 0v1205q0 69 -4.5 128.5t-15 107t-28.5 83.5t-45.5 60.5t-65 36.5t-87.5 12q-63 0 -111.5 -15t-91.5 -43.5t-85.5 -71t-91.5 -98.5v-1405h-687v1206q0 69 -4.5 128.5t-15 106.5t-28.5 83t-45.5 60.5t-65 36.5t-87.5 12q-63 0 -111 -15t-91.5 -43.5t-85.5 -71
t-92 -98.5v-1405h-686v2125h519l52 -229q74 75 147 130.5t153 92.5t171 54.5t202 17.5q116 0 212.5 -18.5t175 -57t139 -96.5t103.5 -136q77 80 151.5 138t155.5 96t172.5 56t203.5 18q133 0 240.5 -24.5t191.5 -73t144.5 -120.5t100 -165t58.5 -207.5t19 -248.5v-1352h-686
z" />
    <glyph glyph-name="n" unicode="n" horiz-adv-x="2508" 
d="M1594 0v1206q0 105 -14 185t-45.5 134t-82.5 81t-126 27q-63 0 -113.5 -15t-97 -43.5t-92 -71t-98.5 -98.5v-1405h-686v2125h519l52 -228q78 76 155 131.5t160 92t176 53.5t205 17q132 0 241 -24.5t195 -73t149.5 -120.5t105.5 -165t62.5 -207.5t20.5 -248.5v-1352h-686z
" />
    <glyph glyph-name="o" unicode="o" horiz-adv-x="2524" 
d="M2391 1083q0 -174 -33.5 -327t-99 -280.5t-163 -228t-225 -170t-286 -106.5t-345.5 -37q-191 0 -347.5 34.5t-279.5 99.5t-214 159.5t-150.5 215t-88.5 265.5t-29 311q0 182 33 339.5t98.5 288t162.5 232t224.5 171t286 105.5t346.5 36q279 0 487.5 -76.5t347 -219.5
t207 -348.5t68.5 -463.5zM1681 1040q0 106 -11.5 192.5t-34.5 155t-58 119t-83 83.5t-108.5 49t-134.5 16q-109 0 -187 -42.5t-127.5 -119t-72.5 -183t-23 -235.5q0 -107 11 -194t34 -154.5t58.5 -116t83.5 -80t109.5 -46.5t136.5 -15q72 0 130 19t103.5 55t78 86.5t54 114
t31.5 138t10 158.5z" />
    <glyph glyph-name="p" unicode="p" horiz-adv-x="2511" 
d="M2378 1156q0 -172 -30 -328t-90 -290t-152 -242.5t-216 -185t-281.5 -118t-348.5 -41.5q-44 0 -88 2t-87 7t-83.5 11.5t-76.5 14.5v-805h-686v2944h519l47 -231q68 69 141.5 124.5t155.5 93.5t174.5 58.5t199.5 20.5q155 0 282 -36t227 -102t174 -159.5t123 -208.5
t72.5 -248.5t23.5 -280.5zM1659 1067q0 92 -7 169.5t-23.5 140.5t-42 111.5t-62 81t-84 49.5t-108.5 17q-38 0 -72.5 -6.5t-68 -19.5t-66 -32t-65.5 -45.5t-66.5 -59.5t-68.5 -73v-821q24 -17 55.5 -33t70.5 -27.5t84 -18.5t96 -7q105 0 185 36t134 107.5t81.5 179.5
t27.5 251z" />
    <glyph glyph-name="q" unicode="q" horiz-adv-x="2511" 
d="M1584 -819v965q-61 -53 -126 -92.5t-135 -66t-146.5 -40t-160.5 -13.5q-151 0 -274.5 36.5t-222 103t-171.5 160t-121 208.5t-71.5 247.5t-23.5 277.5q0 184 31.5 345t96 295.5t163.5 240t233 178.5t304 111.5t378 38.5q118 0 237.5 -12.5t237.5 -34t233 -50.5t224 -61
v-2837h-686zM1584 1555q-26 15 -58.5 29t-69.5 24.5t-78 17t-85 6.5q-107 0 -189.5 -36t-138.5 -108t-85 -179.5t-29 -249.5q0 -92 7 -169.5t23 -141t40.5 -112t59.5 -81t81 -49t104 -16.5q37 0 73 6.5t72 20t70 33.5t68.5 46t67.5 58.5t67 71.5v829z" />
    <glyph glyph-name="r" unicode="r" horiz-adv-x="1618" 
d="M1516 1514q-15 5 -41.5 10t-56.5 9t-60.5 6.5t-54.5 2.5q-31 0 -60.5 -9t-59.5 -25.5t-61.5 -41t-63 -57t-65 -73t-68.5 -87.5v-1249h-686v2125h532l62 -308q67 97 126 168t119.5 117t128 67.5t153.5 21.5q39 0 71.5 -1.5t59.5 -4t49 -7t42 -10.5z" />
    <glyph glyph-name="s" unicode="s" horiz-adv-x="1829" 
d="M1715 678q0 -164 -61.5 -300.5t-175.5 -235t-284 -153.5t-387 -55q-81 0 -165 5t-169 15t-170.5 24.5t-169.5 33.5l93 529q64 -21 130 -37.5t132.5 -29t132.5 -21.5t129 -9t110 10.5t78.5 31t47.5 51t16 69.5q0 38 -15.5 68.5t-50 57t-90.5 50.5t-137 49
q-140 45 -247 97.5t-180 127.5t-110.5 178.5t-37.5 247.5q0 107 26 201t77 173t126.5 141t173.5 105.5t218.5 66t261.5 22.5q78 0 155 -5.5t151.5 -15t145 -22t133.5 -26.5l-76 -508q-53 16 -111.5 30t-118 24t-117 16t-109.5 6q-68 0 -113 -13.5t-71.5 -35.5t-37 -50
t-10.5 -57q0 -35 15 -62t49.5 -50t91 -45t139.5 -48q110 -33 193 -69.5t148 -80.5t111 -95.5t75 -113.5t42 -134t13 -158z" />
    <glyph glyph-name="t" unicode="t" horiz-adv-x="1582" 
d="M1444 1q-40 -14 -97 -25t-123 -19.5t-136.5 -12.5t-139.5 -4q-90 0 -170.5 14t-148 45t-121.5 80t-91.5 119.5t-57.5 163t-20 211.5v1035h-280v517h278l162 611h526v-611h419v-517h-419v-780q0 -68 5 -119.5t16 -90t30 -64.5t47.5 -42t68 -23t91.5 -7h161v-481v0z" />
    <glyph glyph-name="u" unicode="u" horiz-adv-x="2508" 
d="M1746 0l-50 228q-79 -76 -156 -131.5t-159.5 -91.5t-175.5 -53.5t-205 -17.5q-132 0 -241.5 25t-195.5 73.5t-149.5 120t-105.5 165t-62.5 207.5t-20.5 248v1352h686v-1206q0 -69 6.5 -128t19.5 -106.5t34 -83.5t50 -60t68.5 -36.5t89.5 -12.5q63 0 114 15t97 44t92 71.5
t98 97.5v1405h684v-2125h-518z" />
    <glyph glyph-name="v" unicode="v" horiz-adv-x="2174" 
d="M2141 2125q-62 -266 -132 -531.5t-149.5 -530.5t-169.5 -530.5t-193 -532.5h-817q-103 258 -195 520t-172.5 527.5t-150 535t-127.5 542.5h713q36 -184 78.5 -368.5t90 -365.5t100 -357t108.5 -344h6q54 171 103.5 353t93 366t80 365.5t65.5 350.5h668v0z" />
    <glyph glyph-name="w" unicode="w" horiz-adv-x="3450" 
d="M3398 2125q-52 -266 -115.5 -531.5t-137.5 -530.5t-158.5 -530.5t-177.5 -532.5h-785l-312 1246h-5l-291 -1246h-793q-83 248 -164.5 512t-155.5 534t-138.5 542t-113.5 537h706q31 -189 66 -371t73 -360t79.5 -352t86.5 -347h5l330 1430h693l350 -1430h5q46 183 87 362
t77.5 357t68 355t57.5 356h663v0z" />
    <glyph glyph-name="x" unicode="x" horiz-adv-x="2269" 
d="M1437 0l-301 684l-318 -684h-780l575 1098l-531 1027h780l286 -630l290 630h730l-497 -1004l560 -1121h-794z" />
    <glyph glyph-name="y" unicode="y" horiz-adv-x="2171" 
d="M2134 2125q-77 -356 -155.5 -665.5t-159 -573.5t-163.5 -484t-170 -399q-85 -176 -170.5 -309.5t-172 -231.5t-174.5 -163.5t-178.5 -104.5t-185 -55.5t-192.5 -16.5q-44 0 -87.5 4.5t-84.5 12.5t-77 18.5t-65 21.5l12 500h270q38 0 70 7.5t60.5 23t55 40.5t52.5 60.5
t54 82.5t59 107q-67 145 -133.5 306.5t-130 335t-123 356.5t-114.5 371t-103 378t-89 378h713q38 -186 81.5 -372t92 -367.5t102 -358t109.5 -344.5h6q51 163 99 344t89.5 368t76.5 373t60 357h666v0z" />
    <glyph glyph-name="z" unicode="z" horiz-adv-x="1955" 
d="M141 0v506l809 1076h-758v543h1586v-513l-800 -1068h853v-544h-1690z" />
    <glyph glyph-name="braceleft" unicode="{" horiz-adv-x="1648" 
d="M1451 -757q-32 -12 -73 -21t-84 -15.5t-83.5 -10t-74.5 -3.5q-192 0 -321 59t-207 174t-111 284.5t-33 391.5v416q0 107 -25 190.5t-73 141.5t-118 90t-158 38v520q88 5 158 37.5t118 91t73 141.5t25 190v324q0 221 33.5 390.5t111.5 285t207 174.5t320 59
q34 0 74.5 -3.5t83.5 -10t84 -16t73 -20.5v-476h-136q-40 0 -71 -6.5t-54.5 -23t-39.5 -44.5t-26 -69.5t-14.5 -99.5t-4.5 -134v-329q0 -87 -12.5 -168t-38 -153.5t-66 -135.5t-95.5 -114.5t-127.5 -89.5t-161.5 -60q89 -22 161.5 -59t127.5 -88.5t95.5 -115t66 -136.5
t38 -154t12.5 -167v-422q0 -76 4.5 -134t14.5 -99.5t26 -69.5t39.5 -44.5t54.5 -23t71 -6.5h136v-476v0z" />
    <glyph glyph-name="bar" unicode="|" 
d="M803 -819v3974h647v-3974h-647z" />
    <glyph glyph-name="braceright" unicode="}" horiz-adv-x="1648" 
d="M1561 978q-88 -6 -157.5 -38t-117.5 -90t-73 -141.5t-25 -190.5v-416q0 -221 -33.5 -390.5t-111.5 -285t-207 -174.5t-320 -59q-33 0 -74.5 3.5t-84 10t-83.5 15.5t-74 21v476h137q40 0 71 6.5t54.5 23t39 44.5t26 69.5t14.5 99t4 134.5v422q0 86 12.5 167t38.5 154
t66 136.5t95.5 115t127.5 88.5t161 59q-89 22 -161 60t-127.5 89.5t-95.5 114.5t-66 135.5t-38.5 153.5t-12.5 168v329q0 77 -4 134.5t-14.5 99t-26 69.5t-39 44.5t-54.5 23t-71 6.5h-137v476q33 11 74 20.5t83.5 16t84 10t74.5 3.5q192 0 321 -59t207 -174t111 -285
t33 -391v-324q0 -107 25 -190t73 -141.5t117.5 -91t157.5 -37.5v-520v0z" />
    <glyph glyph-name="asciitilde" unicode="~" 
d="M2140 2446q0 -196 -48 -343t-131.5 -244t-197 -145.5t-245.5 -48.5q-88 0 -157.5 14t-125.5 38t-101.5 57t-85.5 74q-53 48 -88 87.5t-64 68t-57.5 44t-68.5 15.5q-43 0 -73 -19.5t-49 -60t-28.5 -102.5t-10.5 -147h-488v117q0 195 48 341.5t131.5 243.5t197 145.5
t245.5 48.5q88 0 157 -13.5t125 -37.5t101.5 -57t86.5 -72q53 -49 87.5 -88.5t63.5 -68.5t58 -44.5t69 -15.5q43 0 73 19.5t49 60t28 103t11 147.5h488v-117v0z" />
    <glyph glyph-name="exclamdown" unicode="&#xa1;" horiz-adv-x="1475" 
d="M1046 2074q0 -83 -29.5 -154.5t-82 -124t-124 -82.5t-155.5 -30q-83 0 -154.5 30t-124 82.5t-82 124t-29.5 154.5t29.5 155t82 124.5t124 82.5t154.5 30q84 0 155.5 -30t124 -82.5t82 -124.5t29.5 -155zM283 -654l79 2137h587l79 -2137h-745z" />
    <glyph glyph-name="cent" unicode="&#xa2;" 
d="M2076 542q-67 -35 -130 -62.5t-122.5 -48t-116 -34.5t-109.5 -23v-374h-501v374q-184 26 -335 102.5t-259.5 204t-168.5 309.5t-60 419q0 229 61.5 412t170.5 317.5t260 220.5t331 121v379h501v-355q47 -7 99.5 -18.5t108 -26t112.5 -34.5t112 -45l-150 -517
q-51 26 -106 45.5t-108.5 32.5t-106 19.5t-98.5 6.5q-97 0 -185 -31.5t-155.5 -95.5t-107.5 -161.5t-40 -230.5q0 -130 33 -231t95.5 -170.5t152.5 -105.5t203 -36q51 0 110 7.5t121 24t125 42.5t121 64l142 -501v0z" />
    <glyph glyph-name="sterling" unicode="&#xa3;" 
d="M191 0v476q77 68 133.5 130t96.5 120.5t64 115.5t36.5 116t14 121t-3.5 131h-368v487h257q-9 50 -17.5 100.5t-15 101t-10 101.5t-3.5 101q0 114 25.5 219t78.5 195t134 164.5t192 127t253.5 81.5t317.5 29q106 0 198.5 -5t167.5 -12.5t132.5 -17t94.5 -19.5v-516
q-49 13 -109.5 24t-126.5 19.5t-135.5 13t-135.5 4.5q-113 0 -188.5 -20.5t-120.5 -59.5t-64.5 -97t-19.5 -133q0 -100 17 -199.5t41 -201.5h656v-487h-559q5 -103 -6 -193.5t-39.5 -171t-75 -152t-110.5 -134.5h1095v-559h-1897z" />
    <glyph glyph-name="currency" unicode="&#xa4;" 
d="M1621 -35l-226 446q-20 -11 -51 -20t-69 -15.5t-81.5 -9.5t-89.5 -3q-40 0 -80 2.5t-74 7t-61 10.5t-41 15l-217 -433l-543 253l285 427q-43 53 -75.5 115.5t-56 135.5t-35.5 159t-12 187q0 105 14 198.5t39.5 173.5t60.5 146t77 116l-298 445l544 251l217 -426
q17 10 49.5 18.5t73.5 15.5t87 10.5t91 3.5q42 0 84 -3t77.5 -9t62 -14t38.5 -17l213 420l542 -245l-285 -434q39 -52 71 -117t54.5 -142t35 -165.5t12.5 -185.5q0 -99 -13.5 -186.5t-39 -164t-61.5 -141.5t-80 -119l305 -452zM1445 1261q0 71 -8 132.5t-26 112t-44.5 89
t-63 65t-83.5 40.5t-105 14q-80 0 -138.5 -33.5t-97.5 -91t-57.5 -135t-18.5 -164.5q0 -123 23 -208.5t66.5 -138t105 -76t138.5 -23.5q81 0 139 30.5t96 85.5t56 131.5t18 169.5z" />
    <glyph glyph-name="yen" unicode="&#xa5;" 
d="M2189 2859q-71 -188 -151.5 -368t-170.5 -352t-188 -336.5t-203 -321.5v-43h532v-396h-532v-314h532v-396h-532v-332h-695v332h-532v396h532v314h-532v396h532v43q-99 161 -195.5 327t-188 337.5t-177.5 349.5t-165 364h700q45 -115 90.5 -221.5t95 -209t102.5 -204
t112 -204.5q56 89 107.5 188t98.5 204t89.5 217t81.5 230h657v0z" />
    <glyph glyph-name="brokenbar" unicode="&#xa6;" 
d="M802 1622v1566h646v-1566h-646zM802 -819v1568h646v-1568h-646z" />
    <glyph glyph-name="section" unicode="&#xa7;" horiz-adv-x="2487" 
d="M2275 727q0 -80 -14 -170t-38.5 -185.5t-60 -191.5t-78.5 -187t-93.5 -173t-105.5 -149q-97 -127 -201 -221.5t-223.5 -157.5t-257 -94.5t-300.5 -31.5q-81 0 -169 6.5t-173 17.5l30 557q44 -11 91 -19.5t95 -14t94.5 -8t88.5 -2.5q78 0 131.5 14.5t86.5 41t47.5 63
t14.5 79.5q0 58 -29 112.5t-78.5 107.5t-116 108t-141 115.5t-153 128t-153 147t-141 172t-116 202.5t-78.5 239.5t-29 282.5q0 82 15 173.5t42 187t64.5 192.5t82.5 188t97 173t106 150q87 108 184 197.5t209 153t241.5 98.5t281.5 35q48 0 91.5 -1.5t85.5 -4.5t84 -8
t86 -11l-23 -528q-84 17 -165.5 25.5t-167.5 8.5q-82 0 -136.5 -13.5t-87.5 -40.5t-47 -66.5t-14 -90.5q0 -53 29.5 -101.5t79 -98t116.5 -102t141.5 -111t154 -125.5t154 -147t141.5 -175t117 -208t79 -247t29 -292zM1709 609q0 131 -33.5 232t-89 184t-128 151.5
t-150.5 133t-157 129.5t-146.5 140.5t-119.5 166.5t-76 207q-8 -28 -15 -65t-12.5 -78t-9 -84t-3.5 -83q0 -123 33 -219.5t87.5 -177.5t126.5 -149t149.5 -134t156 -133t146 -145.5t119 -172.5t76.5 -213q8 32 16.5 70t15 78.5t10.5 82t4 79.5z" />
    <glyph glyph-name="dieresis" unicode="&#xa8;" horiz-adv-x="1846" 
d="M1557 2760q0 -75 -23.5 -135.5t-66.5 -103.5t-104 -66t-137 -23q-75 0 -136 23t-104.5 66t-67 103.5t-23.5 135.5q0 74 23.5 134.5t67 103.5t104.5 66.5t136 23.5q76 0 137 -23.5t104 -66.5t66.5 -103.5t23.5 -134.5zM661 2760q0 -75 -23.5 -135.5t-66.5 -103.5t-104 -66
t-137 -23q-75 0 -136 23t-104 66t-66.5 103.5t-23.5 135.5q0 74 23.5 134.5t66.5 103.5t104 66.5t136 23.5q76 0 137 -23.5t104 -66.5t66.5 -103.5t23.5 -134.5z" />
    <glyph glyph-name="copyright" unicode="&#xa9;" horiz-adv-x="3247" 
d="M3080 1421q0 -203 -51 -391t-145 -352t-226 -298t-294.5 -230.5t-351.5 -149t-395 -52.5q-208 0 -396.5 51.5t-350 146.5t-292 227.5t-222.5 294.5t-142 348.5t-50 389.5t51 391t144.5 351.5t225.5 298t294.5 230.5t352 148.5t396.5 52.5t395 -52t349.5 -146t292 -226.5
t223 -294.5t142.5 -348.5t50 -389.5zM2613 1406q0 143 -34 274.5t-97.5 245.5t-153 207.5t-200.5 159.5t-240 102.5t-271 36.5t-270.5 -35t-238.5 -100t-198 -156t-150.5 -203.5t-96 -243t-33.5 -273.5t34.5 -274.5t98 -245.5t153.5 -207.5t200.5 -159.5t240 -102.5
t271.5 -36.5q143 0 271 35t237.5 100t198 156t150.5 203.5t95 243t33 273.5zM2099 742q-51 -22 -105 -39.5t-111 -30t-118 -19t-128 -6.5q-172 0 -305 47.5t-224 140t-138.5 228.5t-47.5 312q0 198 56.5 346t158.5 246.5t245.5 147.5t317.5 49q49 0 98.5 -4.5t97.5 -13.5
t95 -22.5t91 -32.5l-107 -401q-24 9 -52 16.5t-56.5 13t-56 8.5t-51.5 3q-65 0 -115 -21.5t-84 -62t-51 -100.5t-17 -136t15.5 -135.5t48 -101t84.5 -63.5t125 -22q27 0 57 3.5t61 9.5t62 14.5t61 20.5l93 -395v0z" />
    <glyph glyph-name="ordfeminine" unicode="&#xaa;" horiz-adv-x="1928" 
d="M1260 1364l-48 186q-40 -56 -88.5 -97.5t-108.5 -70.5t-131.5 -43.5t-156.5 -14.5q-119 0 -218 27.5t-171 85.5t-112 147t-40 212q0 140 51.5 237.5t157 159t266.5 89.5t379 28h89v58q0 46 -11.5 80t-41 56.5t-81.5 34t-133 11.5q-58 0 -118.5 -6t-120 -18t-116 -28
t-107.5 -36l-81 351q63 24 137 43.5t153.5 33.5t161.5 21.5t158 7.5q122 0 224 -12t184 -39t144 -70.5t104 -107t62.5 -148.5t20.5 -194v-984h-408zM255 689v456h1416v-456h-1416zM1129 1999h-106q-89 0 -148.5 -9t-95 -29.5t-50 -53t-14.5 -79.5q0 -33 10 -61.5t30.5 -48.5
t50 -31.5t68.5 -11.5q42 0 78.5 12t68 33t58.5 49.5t50 62.5v167z" />
    <glyph glyph-name="guillemotleft" unicode="&#xab;" horiz-adv-x="2517" 
d="M1682 201l-577 946l577 946l470 -169l-380 -777l380 -777zM732 139l-607 1008l607 1007l483 -168l-408 -839l408 -839z" />
    <glyph glyph-name="logicalnot" unicode="&#xac;" 
d="M1547 463v603h-1440v509h1975v-1112h-535z" />
    <glyph glyph-name="registered" unicode="&#xae;" horiz-adv-x="2352" 
d="M2205 2192q0 -143 -36 -275.5t-102 -248.5t-159.5 -211t-208 -162.5t-247.5 -105t-278 -37.5q-147 0 -280 36.5t-247.5 103t-206.5 160t-157.5 208t-101 246.5t-35.5 277q0 143 36 275t102 247.5t159 210.5t207.5 163t248 105t280.5 37t280 -36t247 -103t206.5 -160.5
t157 -207.5t100 -246.5t35.5 -275.5zM1854 2179q0 100 -23.5 191.5t-67.5 170t-105.5 142t-137.5 109t-163.5 70t-182.5 24.5q-100 0 -188.5 -25t-163.5 -69.5t-135 -107.5t-101.5 -140t-64 -166t-22.5 -185q0 -100 24 -191.5t68 -170t105 -142.5t137 -108.5t163.5 -69.5
t182.5 -25q100 0 188.5 24.5t163.5 69t135 107.5t101.5 140t64 166t22.5 186zM1615 2390q0 -52 -8 -94t-25 -76t-43.5 -60t-64.5 -44l153 -410h-353l-98 317h-84v-317h-318v968h453q51 0 99.5 -6.5t91.5 -20.5t79.5 -36t62.5 -53.5t40.5 -73.5t14.5 -94zM1294 2365
q0 21 -6 37.5t-20.5 28.5t-38 18t-58.5 6h-79v-196h67q37 0 62.5 8t41.5 22t23.5 33.5t7.5 42.5z" />
    <glyph glyph-name="macron" unicode="&#xaf;" horiz-adv-x="1341" 
d="M0 2534v441h1217v-441h-1217z" />
    <glyph glyph-name="macron" unicode="&#x2c9;" horiz-adv-x="1341" 
d="M0 2534v441h1217v-441h-1217z" />
    <glyph glyph-name="degree" unicode="&#xb0;" horiz-adv-x="1562" 
d="M1441 2476q0 -132 -49.5 -246.5t-138.5 -199t-211.5 -132.5t-270.5 -48q-153 0 -274 45.5t-205.5 126.5t-129.5 192.5t-45 244.5q0 86 22.5 166.5t64 149.5t101 126.5t134 98.5t162.5 63t187 22q151 0 272 -45.5t205.5 -126.5t130 -193t45.5 -244zM990 2461
q0 49 -16 91.5t-44.5 73.5t-68 49t-86.5 18q-43 0 -80.5 -17.5t-65.5 -48t-43.5 -70.5t-15.5 -85q0 -48 16 -90t44.5 -73t67.5 -49t86 -18q43 0 81 17.5t65.5 47t43.5 69.5t16 85z" />
    <glyph glyph-name="plusminus" unicode="&#xb1;" 
d="M1395 1474v-768h-537v768h-692v503h692v767h537v-767h692v-503h-692zM205 0v509h1843v-509h-1843z" />
    <glyph glyph-name="twosuperior" unicode="&#xb2;" horiz-adv-x="1483" 
d="M90 1585v381l340 332q64 63 112.5 118t81 106.5t48.5 101.5t16 104q0 52 -14 88t-41 58t-66 32t-88 10q-86 0 -156 -16.5t-135 -44.5l-102 381q61 26 128 46.5t141 34.5t156.5 21.5t176.5 7.5q328 0 491.5 -130t163.5 -382q0 -97 -23.5 -178t-74 -158.5t-129.5 -157
t-190 -173.5l-185 -156h627v-426h-1278z" />
    <glyph glyph-name="threesuperior" unicode="&#xb3;" horiz-adv-x="1475" 
d="M1380 2093q0 -134 -58 -239.5t-158.5 -178.5t-235.5 -112t-289 -39q-136 0 -273 8.5t-264 36.5v373q46 -8 88.5 -13.5t84 -9t83.5 -5t88 -1.5q140 0 213.5 43t73.5 133q0 52 -22 88t-63 58t-98.5 32t-127.5 10h-152v344h160q67 0 122.5 11.5t94.5 34.5t60.5 56.5
t21.5 78.5q0 77 -58 112t-163 35q-93 0 -174 -13.5t-162 -47.5l-86 368q133 44 282.5 67t307.5 23q160 0 281.5 -36.5t203.5 -99.5t124 -147t42 -179q0 -80 -27 -145t-71.5 -115.5t-102 -85t-118.5 -52.5q78 -9 146 -42.5t118.5 -86t79 -120t28.5 -144.5z" />
    <glyph glyph-name="acute" unicode="&#xb4;" horiz-adv-x="1356" 
d="M332 2346l-332 203l526 670l482 -281z" />
    <glyph glyph-name="mu" unicode="&#xb5;" horiz-adv-x="2610" 
d="M2557 0q-35 -10 -77 -20.5t-87.5 -19t-94 -14t-94.5 -5.5q-99 0 -183 13.5t-151 44t-115.5 78.5t-77.5 120q-74 -65 -144.5 -113.5t-142.5 -80.5t-148.5 -47.5t-161.5 -15.5q-26 0 -49.5 3.5t-44 10t-38.5 17.5t-32 27v-858h-675v2985h686v-1206q0 -69 6.5 -128
t19.5 -106.5t34 -83.5t50.5 -60t69 -36.5t89.5 -12.5q63 0 113.5 15t97 44t92 71.5t97.5 97.5v1405h686v-1450q0 -50 8 -86t26 -59.5t47.5 -34t73.5 -10.5h120v-485z" />
    <glyph glyph-name="mu" unicode="&#x3bc;" horiz-adv-x="2610" 
d="M2557 0q-35 -10 -77 -20.5t-87.5 -19t-94 -14t-94.5 -5.5q-99 0 -183 13.5t-151 44t-115.5 78.5t-77.5 120q-74 -65 -144.5 -113.5t-142.5 -80.5t-148.5 -47.5t-161.5 -15.5q-26 0 -49.5 3.5t-44 10t-38.5 17.5t-32 27v-858h-675v2985h686v-1206q0 -69 6.5 -128
t19.5 -106.5t34 -83.5t50.5 -60t69 -36.5t89.5 -12.5q63 0 113.5 15t97 44t92 71.5t97.5 97.5v1405h686v-1450q0 -50 8 -86t26 -59.5t47.5 -34t73.5 -10.5h120v-485z" />
    <glyph glyph-name="paragraph" unicode="&#xb6;" horiz-adv-x="2634" 
d="M1849 -452v2845h-350v-2845h-491v1532q-138 -9 -261 15t-226 76.5t-185.5 131t-140 179t-88 220t-30.5 254.5q0 130 30 248t87 218.5t139 181.5t187 137.5t230 87t268 30.5h1323v-3311h-492z" />
    <glyph glyph-name="periodcentered" unicode="&#xb7;" horiz-adv-x="1197" 
d="M992 1276q0 -84 -29.5 -156.5t-83 -126t-125.5 -83.5t-157 -30q-84 0 -156.5 30t-125.5 83.5t-83 126t-30 156.5t30 156.5t83 126t125.5 83.5t156.5 30q85 0 157 -30t125.5 -83.5t83 -126t29.5 -156.5z" />
    <glyph glyph-name="periodcentered" unicode="&#x2219;" horiz-adv-x="1197" 
d="M992 1276q0 -84 -29.5 -156.5t-83 -126t-125.5 -83.5t-157 -30q-84 0 -156.5 30t-125.5 83.5t-83 126t-30 156.5t30 156.5t83 126t125.5 83.5t156.5 30q85 0 157 -30t125.5 -83.5t83 -126t29.5 -156.5z" />
    <glyph glyph-name="cedilla" unicode="&#xb8;" horiz-adv-x="1351" 
d="M1140 -469q0 -93 -38 -158.5t-104 -107t-156 -61t-194 -19.5q-59 0 -123 6.5t-126 17.5t-119 26t-104 34v369h342q40 0 60.5 6.5t20.5 26.5q0 12 -5.5 31.5t-16.5 42.5l-118 255h482l83 -145q36 -58 58.5 -103.5t35 -83.5t17.5 -71t5 -66z" />
    <glyph glyph-name="onesuperior" unicode="&#xb9;" horiz-adv-x="1171" 
d="M377 1585v1176l-234 -119l-106 393l446 275h488v-1725h-594z" />
    <glyph glyph-name="ordmasculine" unicode="&#xba;" horiz-adv-x="2007" 
d="M1825 2133q0 -123 -24.5 -231t-73 -198t-121 -160.5t-167 -120t-212 -75t-255.5 -25.5q-212 0 -367.5 53t-256.5 153t-150.5 241.5t-49.5 317.5q0 193 55 347.5t162.5 263t267 165.5t369.5 57q208 0 363 -54.5t257 -156.5t152.5 -248t50.5 -329zM277 689v456h1436v-456
h-1436zM1270 2105q0 106 -17.5 185.5t-53.5 132t-90.5 78t-127.5 25.5q-74 0 -127 -30.5t-86 -83.5t-48.5 -125.5t-15.5 -157.5q0 -110 18 -187.5t53.5 -127t90 -72t129.5 -22.5q73 0 125 29.5t85 81.5t49 122t16 152z" />
    <glyph glyph-name="guillemotright" unicode="&#xbb;" horiz-adv-x="2517" 
d="M1786 139l-483 169l408 839l-408 839l483 168l607 -1007zM835 201l-470 169l381 777l-381 777l470 169l578 -946z" />
    <glyph glyph-name="onequarter" unicode="&#xbc;" horiz-adv-x="2930" 
d="M361 1430v883l-247 -120l-78 418l490 265h428v-1446h-593zM537 -109l-365 256l2136 2831l365 -258zM2742 216v-216h-531v216h-745v380l504 834h772v-827h177v-387h-177zM2211 1117h-4l-314 -514h318v514z" />
    <glyph glyph-name="onehalf" unicode="&#xbd;" horiz-adv-x="3144" 
d="M361 1430v883l-247 -120l-78 418l490 265h428v-1446h-593zM537 -109l-365 256l2136 2831l365 -258zM1829 0v381l245 230q64 62 107 109.5t68.5 87t35.5 75t10 73.5q0 29 -8 51.5t-26 39t-45 25t-65 8.5q-56 0 -114 -17t-106 -43l-104 358q61 26 124.5 46.5t131.5 34.5
t142.5 21.5t155.5 7.5q161 0 274 -32t184 -89t103 -136.5t32 -175.5q0 -47 -7.5 -91.5t-23 -87.5t-41.5 -85t-61.5 -85t-83 -86.5t-107.5 -89.5l-115 -90h464v-440h-1170z" />
    <glyph glyph-name="threequarters" unicode="&#xbe;" horiz-adv-x="3160" 
d="M761 -109l-365 256l2136 2831l365 -258zM2972 216v-216h-531v216h-745v380l504 834h772v-827h177v-387h-177zM2441 1117h-4l-314 -514h318v514zM1338 1884q0 -83 -21.5 -151.5t-63 -123t-101.5 -94.5t-136.5 -66t-167.5 -39t-196 -13q-67 0 -136.5 2.5t-139.5 8
t-140.5 14.5t-140.5 20v318q29 -3 69.5 -6t86.5 -4.5t93 -2.5t88 -1q55 0 97.5 10t71.5 28.5t44.5 44.5t15.5 57q0 41 -17 69.5t-48.5 45.5t-75.5 24.5t-99 7.5h-175v317h182q54 0 95.5 9t70 27.5t43.5 45t15 60.5q0 54 -41 82.5t-121 28.5q-73 0 -150 -15.5t-144 -45.5
l-109 306q65 21 138 38.5t149 29.5t152.5 18t150.5 6q159 0 272.5 -26t186.5 -75.5t107.5 -123t34.5 -168.5q0 -59 -14.5 -111.5t-43 -95t-70 -74.5t-97.5 -50q69 -13 122 -42.5t89 -73t55 -98t19 -118.5zM1338 1862q0 -83 -21.5 -151.5t-63 -123t-101.5 -94.5t-136.5 -66
t-167.5 -39t-196 -13q-67 0 -136.5 2.5t-139.5 8t-140.5 14.5t-140.5 20v318q29 -3 69.5 -6t86.5 -4.5t93 -2.5t88 -1q55 0 97.5 10t71.5 28.5t44.5 44.5t15.5 57q0 41 -17 69.5t-48.5 45.5t-75.5 24.5t-99 7.5h-175v317h182q54 0 95.5 9t70 27.5t43.5 45t15 60.5
q0 54 -41 82.5t-121 28.5q-73 0 -150 -15.5t-144 -45.5l-109 306q65 21 138 38.5t149 29.5t152.5 18t150.5 6q159 0 272.5 -26t186.5 -75.5t107.5 -123t34.5 -168.5q0 -59 -14.5 -111.5t-43 -95t-70 -74.5t-97.5 -50q69 -13 122 -42.5t89 -73t55 -98t19 -118.5z" />
    <glyph glyph-name="questiondown" unicode="&#xbf;" horiz-adv-x="1941" 
d="M1477 2074q0 -83 -29.5 -154.5t-82 -124t-124 -82.5t-155.5 -30t-155.5 30t-124 82.5t-82 124t-29.5 154.5t29.5 155t82 124.5t124 82.5t155.5 30t155.5 -30t124 -82.5t82 -124.5t29.5 -155zM1712 -632q-55 -16 -119.5 -29t-136 -23t-148 -15.5t-155.5 -5.5
q-266 0 -456 51t-312.5 146t-180.5 230t-58 303q0 110 19.5 199t53.5 164t79 138.5t94.5 120.5t101.5 111.5t100 111.5t89.5 119.5t70 136.5t40.5 161.5t3 195.5h603q30 -160 23 -283.5t-39 -220.5t-83 -172.5t-109 -140t-116 -121.5t-105 -116.5t-76.5 -127.5t-29.5 -153
q0 -73 23 -131t73.5 -98.5t130 -62t192.5 -21.5q115 0 225 8t203 21v-496v0z" />
    <glyph glyph-name="Agrave" unicode="&#xc0;" horiz-adv-x="2888" 
d="M2039 0q-18 66 -36.5 138t-38 146.5t-39.5 150t-41 148.5h-979q-23 -77 -44.5 -151.5t-42 -148t-40 -144t-37.5 -139.5h-704q104 356 213.5 707.5t227.5 705t246 713t269 733.5h889q136 -360 267 -722.5t254 -722t235.5 -714.5t213.5 -700h-813zM1739 1126
q-40 134 -80.5 265t-81.5 261t-84 261.5t-89 267.5l-4 -2q-46 -135 -90.5 -267t-87.5 -263.5t-84.5 -262t-81.5 -260.5h683zM1579 3015l-887 233l211 431l835 -349z" />
    <glyph glyph-name="Aacute" unicode="&#xc1;" horiz-adv-x="2888" 
d="M2039 0q-18 66 -36.5 138t-38 146.5t-39.5 150t-41 148.5h-979q-23 -77 -44.5 -151.5t-42 -148t-40 -144t-37.5 -139.5h-704q104 356 213.5 707.5t227.5 705t246 713t269 733.5h889q136 -360 267 -722.5t254 -722t235.5 -714.5t213.5 -700h-813zM1739 1126
q-40 134 -80.5 265t-81.5 261t-84 261.5t-89 267.5l-4 -2q-46 -135 -90.5 -267t-87.5 -263.5t-84.5 -262t-81.5 -260.5h683zM1244 3015l-159 315l835 349l211 -431z" />
    <glyph glyph-name="Acircumflex" unicode="&#xc2;" horiz-adv-x="2888" 
d="M2039 0q-18 66 -36.5 138t-38 146.5t-39.5 150t-41 148.5h-979q-23 -77 -44.5 -151.5t-42 -148t-40 -144t-37.5 -139.5h-704q104 356 213.5 707.5t227.5 705t246 713t269 733.5h889q136 -360 267 -722.5t254 -722t235.5 -714.5t213.5 -700h-813zM1739 1126
q-40 134 -80.5 265t-81.5 261t-84 261.5t-89 267.5l-4 -2q-46 -135 -90.5 -267t-87.5 -263.5t-84.5 -262t-81.5 -260.5h683zM1970 3019l-538 210l-536 -210l-138 310l675 345l678 -341z" />
    <glyph glyph-name="Atilde" unicode="&#xc3;" horiz-adv-x="2888" 
d="M2039 0q-18 66 -36.5 138t-38 146.5t-39.5 150t-41 148.5h-979q-23 -77 -44.5 -151.5t-42 -148t-40 -144t-37.5 -139.5h-704q104 356 213.5 707.5t227.5 705t246 713t269 733.5h889q136 -360 267 -722.5t254 -722t235.5 -714.5t213.5 -700h-813zM1739 1126
q-40 134 -80.5 265t-81.5 261t-84 261.5t-89 267.5l-4 -2q-46 -135 -90.5 -267t-87.5 -263.5t-84.5 -262t-81.5 -260.5h683zM2235 3474q-29 -102 -78 -180.5t-116 -131.5t-151.5 -81t-183.5 -28q-78 0 -138 12t-109 30.5t-90 40t-81.5 39.5t-83 30t-94.5 12q-33 0 -62.5 -10
t-55.5 -31.5t-51 -55.5t-50 -82l-297 170q29 101 78 179.5t116 132t151.5 81.5t183.5 28q77 0 137 -12.5t109 -30.5t90 -39.5t81.5 -39.5t83 -30.5t94.5 -12.5q34 0 63 10t55.5 31.5t51.5 55t50 81.5l297 -168v0z" />
    <glyph glyph-name="Adieresis" unicode="&#xc4;" horiz-adv-x="2888" 
d="M2039 0q-18 66 -36.5 138t-38 146.5t-39.5 150t-41 148.5h-979q-23 -77 -44.5 -151.5t-42 -148t-40 -144t-37.5 -139.5h-704q104 356 213.5 707.5t227.5 705t246 713t269 733.5h889q136 -360 267 -722.5t254 -722t235.5 -714.5t213.5 -700h-813zM1739 1126
q-40 134 -80.5 265t-81.5 261t-84 261.5t-89 267.5l-4 -2q-46 -135 -90.5 -267t-87.5 -263.5t-84.5 -262t-81.5 -260.5h683zM2190 3324q0 -68 -22 -123.5t-62 -96t-96.5 -62t-125.5 -21.5q-68 0 -124 21.5t-95.5 62t-61.5 96t-22 123.5t22 124.5t61.5 96t95.5 61.5t124 22
q69 0 125.5 -22t96.5 -61.5t62 -96t22 -124.5zM1285 3324q0 -68 -21.5 -123.5t-62 -96t-96.5 -62t-126 -21.5q-69 0 -125 21.5t-95.5 62t-61 96t-21.5 123.5t21.5 124.5t61 96t95.5 61.5t125 22q70 0 126 -22t96.5 -61.5t62 -96t21.5 -124.5z" />
    <glyph glyph-name="Aring" unicode="&#xc5;" horiz-adv-x="2888" 
d="M2039 0q-18 66 -36.5 138t-38 146.5t-39.5 150t-41 148.5h-979q-23 -77 -44.5 -151.5t-42 -148t-40 -144t-37.5 -139.5h-704q104 356 213.5 707.5t227.5 705t246 713t269 733.5h889q136 -360 267 -722.5t254 -722t235.5 -714.5t213.5 -700h-813zM1739 1126
q-40 134 -80.5 265t-81.5 261t-84 261.5t-89 267.5l-4 -2q-46 -135 -90.5 -267t-87.5 -263.5t-84.5 -262t-81.5 -260.5h683zM1993 3502q0 -111 -35.5 -199t-106.5 -149t-175.5 -94t-241.5 -33q-138 0 -239 31t-167.5 88.5t-98.5 141.5t-32 188q0 117 36 206.5t106 151.5
t174 94.5t240 32.5t237.5 -30.5t169 -89t100.5 -143.5t33 -196zM1616 3486q0 56 -11 97.5t-33 67t-55.5 37.5t-77.5 12t-75.5 -15t-51 -41t-28.5 -63.5t-9 -81.5q0 -58 10.5 -98t32 -65t54 -36t77.5 -11t76.5 14.5t52 40t29.5 62t9 80.5z" />
    <glyph glyph-name="AE" unicode="&#xc6;" horiz-adv-x="3629" 
d="M1645 0v553h-800q-32 -76 -61.5 -148.5t-56.5 -141.5t-53 -134.5t-50 -128.5h-698q143 353 290.5 701t306 700t330 714t360.5 744h2191v-551h-1041v-563h896v-542h-896v-652h1064v-551h-1782zM1645 2330h-27q-56 -122 -108 -234.5t-100.5 -219t-94.5 -206.5t-90.5 -196.5
t-87 -190.5t-84.5 -187h592v1234z" />
    <glyph glyph-name="Ccedilla" unicode="&#xc7;" horiz-adv-x="2376" 
d="M1769 -145q35 -58 58 -103.5t35.5 -83.5t17.5 -71t5 -66q0 -62 -17.5 -111.5t-49 -88.5t-76 -66.5t-99 -45t-118.5 -26t-133 -8.5q-59 0 -122.5 6.5t-125.5 17.5t-119.5 26t-104.5 34v369h343q40 0 60 6.5t20 26.5q0 12 -5.5 31.5t-15.5 42.5l-107 224q-168 27 -312 84
t-262.5 144.5t-210 205.5t-154 266.5t-94.5 327t-32 388.5q0 249 46.5 459.5t133 381t210 300.5t278.5 217.5t339 132t391 44.5q101 0 199 -9.5t192.5 -30t185.5 -51.5t178 -73l-208 -551q-62 30 -125 52.5t-127 37t-128 21t-129 6.5q-108 0 -199.5 -31t-166 -86.5
t-131.5 -135.5t-95.5 -178.5t-58 -214t-19.5 -242.5q0 -240 53 -409t149.5 -276.5t230.5 -157.5t296 -50q64 0 128.5 8.5t126.5 23t121.5 35.5t116.5 47l175 -551q-61 -30 -132 -55.5t-148 -45.5t-157 -34.5t-158 -21.5z" />
    <glyph glyph-name="Egrave" unicode="&#xc8;" horiz-adv-x="2249" 
d="M265 0v2859h1768v-551h-1050v-563h896v-542h-896v-652h1064v-551h-1782zM1305 3015l-887 233l211 431l835 -349z" />
    <glyph glyph-name="Eacute" unicode="&#xc9;" horiz-adv-x="2249" 
d="M265 0v2859h1768v-551h-1050v-563h896v-542h-896v-652h1064v-551h-1782zM900 3015l-159 315l835 349l211 -431z" />
    <glyph glyph-name="Ecircumflex" unicode="&#xca;" horiz-adv-x="2249" 
d="M265 0v2859h1768v-551h-1050v-563h896v-542h-896v-652h1064v-551h-1782zM1675 3019l-538 210l-536 -210l-138 310l675 345l678 -341z" />
    <glyph glyph-name="Edieresis" unicode="&#xcb;" horiz-adv-x="2249" 
d="M265 0v2859h1768v-551h-1050v-563h896v-542h-896v-652h1064v-551h-1782zM1903 3324q0 -68 -22 -123.5t-62 -96t-96.5 -62t-125.5 -21.5q-68 0 -124 21.5t-95.5 62t-61.5 96t-22 123.5t22 124.5t61.5 96t95.5 61.5t124 22q69 0 125.5 -22t96.5 -61.5t62 -96t22 -124.5z
M998 3324q0 -68 -21.5 -123.5t-62 -96t-96.5 -62t-126 -21.5q-69 0 -125 21.5t-95.5 62t-61 96t-21.5 123.5t21.5 124.5t61 96t95.5 61.5t125 22q70 0 126 -22t96.5 -61.5t62 -96t21.5 -124.5z" />
    <glyph glyph-name="Igrave" unicode="&#xcc;" horiz-adv-x="1253" 
d="M265 0v2859h721v-2859h-721zM887 3015l-887 233l211 431l835 -349z" />
    <glyph glyph-name="Iacute" unicode="&#xcd;" horiz-adv-x="1253" 
d="M265 0v2859h721v-2859h-721zM311 3015l-159 315l835 349l211 -431z" />
    <glyph glyph-name="Icircumflex" unicode="&#xce;" horiz-adv-x="1253" 
d="M265 0v2859h721v-2859h-721zM1164 3019l-538 210l-536 -210l-138 310l675 345l678 -341z" />
    <glyph glyph-name="Idieresis" unicode="&#xcf;" horiz-adv-x="1253" 
d="M265 0v2859h721v-2859h-721zM1347 3324q0 -68 -22 -123.5t-62.5 -95.5t-96.5 -61.5t-125 -21.5q-68 0 -124 21.5t-95.5 61.5t-61.5 95.5t-22 123.5t22 124.5t61.5 96t95.5 61.5t124 22q69 0 125 -22t96.5 -61.5t62.5 -96t22 -124.5zM520 3324q0 -68 -21.5 -123.5
t-62 -95.5t-96.5 -61.5t-126 -21.5q-69 0 -125 21.5t-95.5 61.5t-61 95.5t-21.5 123.5t21.5 124.5t61 96t95.5 61.5t125 22q70 0 126 -22t96.5 -61.5t62 -96t21.5 -124.5z" />
    <glyph glyph-name="Eth" unicode="&#xd0;" horiz-adv-x="2967" 
d="M2829 1467q0 -253 -50 -460t-143 -370t-228 -282.5t-305 -198.5t-373.5 -117.5t-433.5 -38.5h-990v1169h-282v524h282v1166h1051q232 0 431 -38t363 -114t290 -191t212 -269.5t131 -349t45 -430.5zM2083 1431q0 126 -18 240t-56.5 211.5t-99 176t-146.5 134t-199 85.5
t-255 30h-285v-615h469v-524h-469v-612h285q193 0 338 58.5t241.5 170t145.5 274.5t49 371z" />
    <glyph glyph-name="Ntilde" unicode="&#xd1;" horiz-adv-x="3019" 
d="M1834 0l-934 1868h-8v-1868h-627v2859h932l921 -1846h8v1846h628v-2859h-920zM2321 3474q-29 -102 -78 -180.5t-116 -131.5t-151.5 -81t-183.5 -28q-78 0 -138 12t-109 30.5t-90 40t-81.5 39.5t-83 30t-94.5 12q-33 0 -62.5 -10t-55.5 -31.5t-51 -55.5t-50 -82l-297 170
q29 101 78 179.5t116 132t151.5 81.5t183.5 28q77 0 137 -12.5t109 -30.5t90 -39.5t81.5 -39.5t83 -30.5t94.5 -12.5q34 0 63 10t55.5 31.5t51.5 55t50 81.5l297 -168v0z" />
    <glyph glyph-name="Ograve" unicode="&#xd2;" horiz-adv-x="3158" 
d="M3008 1458q0 -242 -41 -448.5t-121.5 -376t-202 -299.5t-281.5 -219t-359.5 -134.5t-437.5 -45.5q-228 0 -422 36.5t-351.5 113t-277 195.5t-200.5 284.5t-122 378.5t-41 479q0 231 42 432.5t124.5 368.5t204.5 297t282 220t357 137t431 47q223 0 415.5 -38.5t349.5 -117
t278.5 -198t204.5 -282.5t125.5 -370t42.5 -460zM2251 1415q0 142 -14.5 265t-47 226t-85 183.5t-128.5 136t-177.5 85t-231.5 29.5q-128 0 -227 -32t-172 -90.5t-123 -139.5t-80 -178t-43.5 -208t-13.5 -228q0 -151 15 -280t48 -234t85.5 -185.5t128 -135.5t176.5 -82.5
t230 -27.5q126 0 224.5 31.5t172 89.5t124 139.5t81.5 181t44.5 214.5t13.5 240zM1714 3015l-887 233l211 431l835 -349z" />
    <glyph glyph-name="Oacute" unicode="&#xd3;" horiz-adv-x="3158" 
d="M3008 1458q0 -242 -41 -448.5t-121.5 -376t-202 -299.5t-281.5 -219t-359.5 -134.5t-437.5 -45.5q-228 0 -422 36.5t-351.5 113t-277 195.5t-200.5 284.5t-122 378.5t-41 479q0 231 42 432.5t124.5 368.5t204.5 297t282 220t357 137t431 47q223 0 415.5 -38.5t349.5 -117
t278.5 -198t204.5 -282.5t125.5 -370t42.5 -460zM2251 1415q0 142 -14.5 265t-47 226t-85 183.5t-128.5 136t-177.5 85t-231.5 29.5q-128 0 -227 -32t-172 -90.5t-123 -139.5t-80 -178t-43.5 -208t-13.5 -228q0 -151 15 -280t48 -234t85.5 -185.5t128 -135.5t176.5 -82.5
t230 -27.5q126 0 224.5 31.5t172 89.5t124 139.5t81.5 181t44.5 214.5t13.5 240zM1453 3015l-159 315l835 349l211 -431z" />
    <glyph glyph-name="Ocircumflex" unicode="&#xd4;" horiz-adv-x="3158" 
d="M3008 1458q0 -242 -41 -448.5t-121.5 -376t-202 -299.5t-281.5 -219t-359.5 -134.5t-437.5 -45.5q-228 0 -422 36.5t-351.5 113t-277 195.5t-200.5 284.5t-122 378.5t-41 479q0 231 42 432.5t124.5 368.5t204.5 297t282 220t357 137t431 47q223 0 415.5 -38.5t349.5 -117
t278.5 -198t204.5 -282.5t125.5 -370t42.5 -460zM2251 1415q0 142 -14.5 265t-47 226t-85 183.5t-128.5 136t-177.5 85t-231.5 29.5q-128 0 -227 -32t-172 -90.5t-123 -139.5t-80 -178t-43.5 -208t-13.5 -228q0 -151 15 -280t48 -234t85.5 -185.5t128 -135.5t176.5 -82.5
t230 -27.5q126 0 224.5 31.5t172 89.5t124 139.5t81.5 181t44.5 214.5t13.5 240zM2121 3019l-538 210l-536 -210l-138 310l675 345l678 -341z" />
    <glyph glyph-name="Otilde" unicode="&#xd5;" horiz-adv-x="3158" 
d="M3008 1458q0 -242 -41 -448.5t-121.5 -376t-202 -299.5t-281.5 -219t-359.5 -134.5t-437.5 -45.5q-228 0 -422 36.5t-351.5 113t-277 195.5t-200.5 284.5t-122 378.5t-41 479q0 231 42 432.5t124.5 368.5t204.5 297t282 220t357 137t431 47q223 0 415.5 -38.5t349.5 -117
t278.5 -198t204.5 -282.5t125.5 -370t42.5 -460zM2251 1415q0 142 -14.5 265t-47 226t-85 183.5t-128.5 136t-177.5 85t-231.5 29.5q-128 0 -227 -32t-172 -90.5t-123 -139.5t-80 -178t-43.5 -208t-13.5 -228q0 -151 15 -280t48 -234t85.5 -185.5t128 -135.5t176.5 -82.5
t230 -27.5q126 0 224.5 31.5t172 89.5t124 139.5t81.5 181t44.5 214.5t13.5 240zM2395 3474q-29 -102 -78 -180.5t-116 -131.5t-151.5 -81t-183.5 -28q-78 0 -138 12t-109 30.5t-90 40t-81.5 39.5t-83 30t-94.5 12q-33 0 -62.5 -10t-55.5 -31.5t-51 -55.5t-50 -82l-297 170
q29 101 78 179.5t116 132t151.5 81.5t183.5 28q77 0 137 -12.5t109 -30.5t90 -39.5t81.5 -39.5t83 -30.5t94.5 -12.5q34 0 63 10t55.5 31.5t51.5 55t50 81.5l297 -168v0z" />
    <glyph glyph-name="Odieresis" unicode="&#xd6;" horiz-adv-x="3158" 
d="M3008 1458q0 -242 -41 -448.5t-121.5 -376t-202 -299.5t-281.5 -219t-359.5 -134.5t-437.5 -45.5q-228 0 -422 36.5t-351.5 113t-277 195.5t-200.5 284.5t-122 378.5t-41 479q0 231 42 432.5t124.5 368.5t204.5 297t282 220t357 137t431 47q223 0 415.5 -38.5t349.5 -117
t278.5 -198t204.5 -282.5t125.5 -370t42.5 -460zM2251 1415q0 142 -14.5 265t-47 226t-85 183.5t-128.5 136t-177.5 85t-231.5 29.5q-128 0 -227 -32t-172 -90.5t-123 -139.5t-80 -178t-43.5 -208t-13.5 -228q0 -151 15 -280t48 -234t85.5 -185.5t128 -135.5t176.5 -82.5
t230 -27.5q126 0 224.5 31.5t172 89.5t124 139.5t81.5 181t44.5 214.5t13.5 240zM2337 3324q0 -68 -22 -123.5t-62 -96t-96.5 -62t-125.5 -21.5q-68 0 -124 21.5t-95.5 62t-61.5 96t-22 123.5t22 124.5t61.5 96t95.5 61.5t124 22q69 0 125.5 -22t96.5 -61.5t62 -96
t22 -124.5zM1432 3324q0 -68 -21.5 -123.5t-62 -96t-96.5 -62t-126 -21.5q-69 0 -125 21.5t-95.5 62t-61 96t-21.5 123.5t21.5 124.5t61 96t95.5 61.5t125 22q70 0 126 -22t96.5 -61.5t62 -96t21.5 -124.5z" />
    <glyph glyph-name="multiply" unicode="&#xd7;" 
d="M1764 303l-630 637l-626 -634l-353 347l630 629l-625 625l346 345l624 -624l630 625l350 -342l-637 -632l637 -631z" />
    <glyph glyph-name="Oslash" unicode="&#xd8;" horiz-adv-x="3157" 
d="M3008 1458q0 -242 -41 -448.5t-122 -376t-202 -299.5t-281.5 -219t-360 -134.5t-438.5 -45.5q-61 0 -119 3.5t-114 10t-109.5 16.5t-104.5 22l-264 -528l-412 189l250 496q-132 81 -232.5 199t-169 276.5t-103 358t-34.5 444.5q0 231 42 432.5t124.5 368.5t204.5 297
t282 220t357 137t431 47q65 0 127 -4t120.5 -11.5t114.5 -19.5t109 -27l239 476l412 -189l-228 -455q83 -57 154.5 -129t129.5 -159t102.5 -189.5t75 -221t45.5 -252.5t15 -285zM2295 1414q0 62 -3.5 121.5t-10 116t-17 109.5t-25 102t-33.5 93.5t-42 84.5l-793 -1536
q47 -16 101.5 -24.5t118.5 -8.5q136 0 240.5 33.5t183 94.5t132 147t86.5 191t47.5 225.5t14.5 250.5zM1809 2345q-26 10 -53.5 17.5t-57.5 13t-63 8.5t-68 3q-138 0 -243 -34t-183.5 -95t-131 -146t-85.5 -187.5t-46.5 -218.5t-13.5 -239q0 -68 3.5 -133t11 -126t19 -118
t27 -109t37 -99t47.5 -87z" />
    <glyph glyph-name="Ugrave" unicode="&#xd9;" horiz-adv-x="2986" 
d="M2723 1075q0 -265 -78.5 -476t-233.5 -358t-387 -226t-539 -79q-295 0 -523 68.5t-383.5 207t-235.5 347.5t-80 490v1810h720v-1760q0 -99 17.5 -180.5t50 -145.5t79 -112.5t104.5 -80t126.5 -47t145.5 -15.5q118 0 212.5 38t160 109t101 172t35.5 226v1796h708v-1784v0z
M1530 3015l-887 233l211 431l835 -349z" />
    <glyph glyph-name="Uacute" unicode="&#xda;" horiz-adv-x="2986" 
d="M2723 1075q0 -265 -78.5 -476t-233.5 -358t-387 -226t-539 -79q-295 0 -523 68.5t-383.5 207t-235.5 347.5t-80 490v1810h720v-1760q0 -99 17.5 -180.5t50 -145.5t79 -112.5t104.5 -80t126.5 -47t145.5 -15.5q118 0 212.5 38t160 109t101 172t35.5 226v1796h708v-1784v0z
M1494 3015l-159 315l835 349l211 -431z" />
    <glyph glyph-name="Ucircumflex" unicode="&#xdb;" horiz-adv-x="2986" 
d="M2723 1075q0 -265 -78.5 -476t-233.5 -358t-387 -226t-539 -79q-295 0 -523 68.5t-383.5 207t-235.5 347.5t-80 490v1810h720v-1760q0 -99 17.5 -180.5t50 -145.5t79 -112.5t104.5 -80t126.5 -47t145.5 -15.5q118 0 212.5 38t160 109t101 172t35.5 226v1796h708v-1784v0z
M2048 3019l-538 210l-536 -210l-138 310l675 345l678 -341z" />
    <glyph glyph-name="Udieresis" unicode="&#xdc;" horiz-adv-x="2986" 
d="M2723 1075q0 -265 -78.5 -476t-233.5 -358t-387 -226t-539 -79q-295 0 -523 68.5t-383.5 207t-235.5 347.5t-80 490v1810h720v-1760q0 -99 17.5 -180.5t50 -145.5t79 -112.5t104.5 -80t126.5 -47t145.5 -15.5q118 0 212.5 38t160 109t101 172t35.5 226v1796h708v-1784v0z
M2247 3324q0 -68 -22 -123.5t-62 -96t-96.5 -62t-125.5 -21.5q-68 0 -124 21.5t-95.5 62t-61.5 96t-22 123.5t22 124.5t61.5 96t95.5 61.5t124 22q69 0 125.5 -22t96.5 -61.5t62 -96t22 -124.5zM1342 3324q0 -68 -21.5 -123.5t-62 -96t-96.5 -62t-126 -21.5q-69 0 -125 21.5
t-95.5 62t-61 96t-21.5 123.5t21.5 124.5t61 96t95.5 61.5t125 22q70 0 126 -22t96.5 -61.5t62 -96t21.5 -124.5z" />
    <glyph glyph-name="Yacute" unicode="&#xdd;" horiz-adv-x="2507" 
d="M2494 2859q-57 -159 -119 -314t-129.5 -306t-140 -298.5t-150 -290.5t-161 -281.5t-172.5 -273.5v-1095h-724v1095q-132 207 -252.5 421.5t-231 435t-210.5 447.5t-191 460h819q32 -101 65 -197.5t67.5 -189t71.5 -182.5t77.5 -180t84.5 -181t94 -185q46 86 89 173.5
t82 177.5t76 182.5t70 187.5t63.5 193.5t58.5 200.5h763v0zM1199 3015l-159 315l835 349l211 -431z" />
    <glyph glyph-name="Thorn" unicode="&#xde;" horiz-adv-x="2464" 
d="M2363 1526q0 -260 -77.5 -455t-227.5 -325t-369.5 -194.5t-502.5 -64.5h-200v-487h-721v2859h721v-440h210q54 0 107.5 -1.5t106 -5.5t103.5 -10.5t99 -15.5q176 -31 315 -100.5t236 -177t148.5 -253t51.5 -329.5zM1606 1475q0 71 -13.5 131t-41 107.5t-70.5 82.5
t-102 54q-23 8 -47.5 13t-51 8.5t-55.5 5t-61 1.5h-178v-847h227q107 0 181 32.5t121.5 91.5t69 140.5t21.5 179.5z" />
    <glyph glyph-name="germandbls" unicode="&#xdf;" horiz-adv-x="2604" 
d="M2529 733q0 -111 -25.5 -213t-76.5 -189.5t-126 -158.5t-173.5 -122t-219.5 -78t-264 -27q-67 0 -130 3t-125.5 10.5t-124.5 19t-125 29.5l72 524q96 -31 178 -46t159 -15q68 0 117.5 17t82 45t48 65t15.5 77q0 49 -19 89.5t-51 74.5t-75 64.5t-91.5 61.5t-99.5 64
t-99.5 72.5t-91.5 88t-75 110.5t-50.5 138t-18.5 172q0 83 18 150t48 122t68 101t78.5 86t78.5 76.5t68 73.5t48 75.5t18 84.5q0 28 -7 57t-21.5 55t-37.5 48.5t-55 39t-73.5 26t-93.5 9.5q-68 0 -120.5 -16t-91 -46t-65 -74t-42.5 -99.5t-23 -122t-7 -142.5v-2113h-686
v2081q0 169 31.5 313t93 261t152.5 206t210.5 150t266.5 91.5t322 30.5q158 0 290 -22.5t239 -65.5t188 -105t135 -140.5t82 -172.5t28 -201q0 -96 -19 -167t-50.5 -124.5t-72 -93.5t-82 -71.5t-81.5 -59t-71.5 -58t-50.5 -67t-19 -85.5q0 -46 19.5 -84t52.5 -71.5t77.5 -65
t94.5 -64t103.5 -68.5t103.5 -79t94.5 -95t77.5 -117t52.5 -145t19.5 -178z" />
    <glyph glyph-name="agrave" unicode="&#xe0;" horiz-adv-x="2322" 
d="M1564 0l-46 189q-61 -60 -132 -107.5t-153 -80t-174 -50t-196 -17.5q-160 0 -295.5 41t-235.5 124.5t-156.5 209.5t-56.5 297q0 192 72.5 328t216.5 222.5t358 127t498 40.5h146v85q0 71 -16.5 125t-59 89.5t-117 53.5t-189.5 18q-79 0 -161 -9.5t-163.5 -26.5
t-158.5 -39.5t-145 -48.5l-110 474q83 33 183 59.5t207.5 46t217 30t213.5 10.5q167 0 304 -18.5t245.5 -58.5t188 -101.5t132 -146t78 -194.5t25.5 -246v-1426h-520zM1410 905h-161q-125 0 -212.5 -14.5t-143 -46.5t-81 -81.5t-25.5 -117.5q0 -50 16 -91.5t48.5 -71
t81.5 -46.5t114 -17q53 0 102.5 13.5t95 37t87 56t78.5 70.5v309zM1122 2346l-667 590l478 283l523 -664z" />
    <glyph glyph-name="aacute" unicode="&#xe1;" horiz-adv-x="2322" 
d="M1564 0l-46 189q-61 -60 -132 -107.5t-153 -80t-174 -50t-196 -17.5q-160 0 -295.5 41t-235.5 124.5t-156.5 209.5t-56.5 297q0 192 72.5 328t216.5 222.5t358 127t498 40.5h146v85q0 71 -16.5 125t-59 89.5t-117 53.5t-189.5 18q-79 0 -161 -9.5t-163.5 -26.5
t-158.5 -39.5t-145 -48.5l-110 474q83 33 183 59.5t207.5 46t217 30t213.5 10.5q167 0 304 -18.5t245.5 -58.5t188 -101.5t132 -146t78 -194.5t25.5 -246v-1426h-520zM1410 905h-161q-125 0 -212.5 -14.5t-143 -46.5t-81 -81.5t-25.5 -117.5q0 -50 16 -91.5t48.5 -71
t81.5 -46.5t114 -17q53 0 102.5 13.5t95 37t87 56t78.5 70.5v309zM1114 2346l-332 203l526 670l482 -281z" />
    <glyph glyph-name="acircumflex" unicode="&#xe2;" horiz-adv-x="2322" 
d="M1564 0l-46 189q-61 -60 -132 -107.5t-153 -80t-174 -50t-196 -17.5q-160 0 -295.5 41t-235.5 124.5t-156.5 209.5t-56.5 297q0 192 72.5 328t216.5 222.5t358 127t498 40.5h146v85q0 71 -16.5 125t-59 89.5t-117 53.5t-189.5 18q-79 0 -161 -9.5t-163.5 -26.5
t-158.5 -39.5t-145 -48.5l-110 474q83 33 183 59.5t207.5 46t217 30t213.5 10.5q167 0 304 -18.5t245.5 -58.5t188 -101.5t132 -146t78 -194.5t25.5 -246v-1426h-520zM1410 905h-161q-125 0 -212.5 -14.5t-143 -46.5t-81 -81.5t-25.5 -117.5q0 -50 16 -91.5t48.5 -71
t81.5 -46.5t114 -17q53 0 102.5 13.5t95 37t87 56t78.5 70.5v309zM1650 2349l-466 331l-471 -331l-217 293l690 582l693 -581z" />
    <glyph glyph-name="atilde" unicode="&#xe3;" horiz-adv-x="2322" 
d="M1564 0l-46 189q-61 -60 -132 -107.5t-153 -80t-174 -50t-196 -17.5q-160 0 -295.5 41t-235.5 124.5t-156.5 209.5t-56.5 297q0 192 72.5 328t216.5 222.5t358 127t498 40.5h146v85q0 71 -16.5 125t-59 89.5t-117 53.5t-189.5 18q-79 0 -161 -9.5t-163.5 -26.5
t-158.5 -39.5t-145 -48.5l-110 474q83 33 183 59.5t207.5 46t217 30t213.5 10.5q167 0 304 -18.5t245.5 -58.5t188 -101.5t132 -146t78 -194.5t25.5 -246v-1426h-520zM1410 905h-161q-125 0 -212.5 -14.5t-143 -46.5t-81 -81.5t-25.5 -117.5q0 -50 16 -91.5t48.5 -71
t81.5 -46.5t114 -17q53 0 102.5 13.5t95 37t87 56t78.5 70.5v309zM1967 2911q-28 -112 -75 -198t-112 -145t-146 -89.5t-178 -30.5q-77 0 -136 13t-106.5 33t-87.5 42.5t-80 42.5t-82 33t-93 13q-32 0 -60.5 -10.5t-54.5 -33.5t-50 -60.5t-47 -89.5l-286 187
q29 111 76 197.5t111.5 145t146 89t178.5 30.5q76 0 134 -13t106 -32.5t88 -42.5t80 -42.5t82 -32.5t93 -13q32 0 60.5 11t55 34t50.5 59.5t47 89.5l286 -187v0z" />
    <glyph glyph-name="adieresis" unicode="&#xe4;" horiz-adv-x="2322" 
d="M1564 0l-46 189q-61 -60 -132 -107.5t-153 -80t-174 -50t-196 -17.5q-160 0 -295.5 41t-235.5 124.5t-156.5 209.5t-56.5 297q0 192 72.5 328t216.5 222.5t358 127t498 40.5h146v85q0 71 -16.5 125t-59 89.5t-117 53.5t-189.5 18q-79 0 -161 -9.5t-163.5 -26.5
t-158.5 -39.5t-145 -48.5l-110 474q83 33 183 59.5t207.5 46t217 30t213.5 10.5q167 0 304 -18.5t245.5 -58.5t188 -101.5t132 -146t78 -194.5t25.5 -246v-1426h-520zM1410 905h-161q-125 0 -212.5 -14.5t-143 -46.5t-81 -81.5t-25.5 -117.5q0 -50 16 -91.5t48.5 -71
t81.5 -46.5t114 -17q53 0 102.5 13.5t95 37t87 56t78.5 70.5v309zM1971 2760q0 -75 -23.5 -135.5t-66.5 -103.5t-104 -66t-137 -23q-75 0 -136 23t-104.5 66t-67 103.5t-23.5 135.5q0 74 23.5 134.5t67 103.5t104.5 66.5t136 23.5q76 0 137 -23.5t104 -66.5t66.5 -103.5
t23.5 -134.5zM1075 2760q0 -75 -23.5 -135.5t-66.5 -103.5t-104 -66t-137 -23q-75 0 -136 23t-104 66t-66.5 103.5t-23.5 135.5q0 74 23.5 134.5t66.5 103.5t104 66.5t136 23.5q76 0 137 -23.5t104 -66.5t66.5 -103.5t23.5 -134.5z" />
    <glyph glyph-name="aring" unicode="&#xe5;" horiz-adv-x="2322" 
d="M1564 0l-46 189q-61 -60 -132 -107.5t-153 -80t-174 -50t-196 -17.5q-160 0 -295.5 41t-235.5 124.5t-156.5 209.5t-56.5 297q0 192 72.5 328t216.5 222.5t358 127t498 40.5h146v85q0 71 -16.5 125t-59 89.5t-117 53.5t-189.5 18q-79 0 -161 -9.5t-163.5 -26.5
t-158.5 -39.5t-145 -48.5l-110 474q83 33 183 59.5t207.5 46t217 30t213.5 10.5q167 0 304 -18.5t245.5 -58.5t188 -101.5t132 -146t78 -194.5t25.5 -246v-1426h-520zM1410 905h-161q-125 0 -212.5 -14.5t-143 -46.5t-81 -81.5t-25.5 -117.5q0 -50 16 -91.5t48.5 -71
t81.5 -46.5t114 -17q53 0 102.5 13.5t95 37t87 56t78.5 70.5v309zM1702 2857q0 -109 -35.5 -197t-106.5 -149.5t-175.5 -94.5t-241.5 -33q-138 0 -239 30.5t-167.5 88.5t-98.5 141.5t-32 188.5q0 114 36 203.5t106 152t174 95t240 32.5t237.5 -31t169 -89.5t100.5 -143.5
t33 -194zM1325 2841q0 57 -11 97.5t-33 66t-55.5 37t-77.5 11.5t-75.5 -14.5t-51 -41t-28.5 -63t-9 -79.5q0 -58 10.5 -98t32 -65t54 -36.5t77.5 -11.5t76.5 15t52 40.5t29.5 62t9 79.5z" />
    <glyph glyph-name="ae" unicode="&#xe6;" horiz-adv-x="3563" 
d="M3410 1188q0 -26 -1 -60t-2.5 -73t-3 -79.5t-3.5 -77.5h-1341q0 -71 11.5 -132t37 -110t65 -86.5t94.5 -63t126.5 -38t160.5 -12.5q87 0 178 6.5t182.5 18t183 29t179.5 38.5l58 -491q-102 -30 -207 -52.5t-215 -38t-225 -24t-234 -8.5q-145 0 -269.5 18t-229 54.5
t-189.5 90t-150 123.5q-68 -63 -144 -115.5t-169 -90.5t-207 -59t-260 -21q-159 0 -291 41t-227 124.5t-147 209.5t-52 297q0 188 68.5 322.5t207 220.5t349 127t494.5 41h145v92q0 71 -14 126t-54 91.5t-111.5 55.5t-187.5 19q-78 0 -158.5 -10.5t-159.5 -28.5
t-154.5 -41.5t-143.5 -49.5l-110 474q83 33 181.5 59.5t204 46t214 30t212.5 10.5q123 0 227.5 -12t192 -38.5t158.5 -66.5t127 -96q61 56 133 96.5t152.5 66.5t169.5 38t187 12q168 0 305 -27.5t244 -83t184.5 -138.5t128 -194.5t75 -251.5t24.5 -308zM2739 1317
q4 92 -11.5 167t-54.5 128.5t-103.5 82.5t-156.5 29q-60 0 -109 -15t-88.5 -42t-68 -65t-47.5 -83t-29.5 -96t-11.5 -106h680v0zM1383 898h-160q-124 0 -207 -16.5t-134.5 -48t-73 -78.5t-21.5 -109q0 -50 15 -91.5t44 -71.5t73 -47t101 -17q60 0 111.5 16t96 44.5t83 68
t72.5 87.5v263z" />
    <glyph glyph-name="ccedilla" unicode="&#xe7;" horiz-adv-x="1842" 
d="M1440 -145q36 -58 58.5 -103.5t35 -83.5t17.5 -71t5 -66q0 -62 -17.5 -111.5t-48.5 -88.5t-75.5 -66.5t-99.5 -45t-118.5 -26t-132.5 -8.5q-59 0 -123 6.5t-126 17.5t-119 26t-104 34v369h342q20 0 35.5 1.5t25.5 5t15 10t5 16.5q0 5 -1.5 13.5t-4 18t-7 20.5t-8.5 22
l-103 220q-192 33 -335 119.5t-237.5 221t-141.5 314.5t-47 398q0 287 77.5 504.5t219 363.5t341 220.5t443.5 74.5q66 0 135.5 -6t139 -19t137 -33.5t130.5 -49.5l-140 -508q-35 14 -75.5 27t-84.5 22.5t-89 15t-90 5.5q-111 0 -193 -38t-135 -110t-79 -176.5t-26 -237.5
q0 -138 25 -243.5t78.5 -176.5t138 -107.5t201.5 -36.5q51 0 99 5t94 14.5t90 24.5t88 35l117 -505q-48 -22 -97 -39.5t-98 -32.5t-98.5 -26.5t-100.5 -19.5z" />
    <glyph glyph-name="egrave" unicode="&#xe8;" horiz-adv-x="2339" 
d="M2184 1167q0 -24 -1 -57.5t-2 -71.5t-3 -77.5t-4 -76.5h-1341q0 -68 11.5 -125.5t37 -104.5t65 -83t94.5 -60.5t126.5 -37t160.5 -12.5q87 0 178 6t183 17t183 27t178 37l59 -491q-102 -30 -207 -52.5t-215 -38t-225 -24t-234 -8.5q-277 0 -483.5 65.5t-342.5 200.5
t-203 342t-67 490q0 272 70.5 487.5t208.5 365t342 228t470 78.5q168 0 305 -29t244 -86.5t184.5 -143.5t128.5 -200t75 -255.5t24 -309.5zM1513 1303q4 95 -12 173t-54.5 133t-103 85t-156.5 30q-60 0 -109 -15.5t-88 -43.5t-68 -66.5t-48 -85.5t-29.5 -100t-11.5 -110h680
v0zM1175 2346l-667 590l478 283l523 -664z" />
    <glyph glyph-name="eacute" unicode="&#xe9;" horiz-adv-x="2339" 
d="M2184 1167q0 -24 -1 -57.5t-2 -71.5t-3 -77.5t-4 -76.5h-1341q0 -68 11.5 -125.5t37 -104.5t65 -83t94.5 -60.5t126.5 -37t160.5 -12.5q87 0 178 6t183 17t183 27t178 37l59 -491q-102 -30 -207 -52.5t-215 -38t-225 -24t-234 -8.5q-277 0 -483.5 65.5t-342.5 200.5
t-203 342t-67 490q0 272 70.5 487.5t208.5 365t342 228t470 78.5q168 0 305 -29t244 -86.5t184.5 -143.5t128.5 -200t75 -255.5t24 -309.5zM1513 1303q4 95 -12 173t-54.5 133t-103 85t-156.5 30q-60 0 -109 -15.5t-88 -43.5t-68 -66.5t-48 -85.5t-29.5 -100t-11.5 -110h680
v0zM1192 2346l-332 203l526 670l482 -281z" />
    <glyph glyph-name="ecircumflex" unicode="&#xea;" horiz-adv-x="2339" 
d="M2184 1167q0 -24 -1 -57.5t-2 -71.5t-3 -77.5t-4 -76.5h-1341q0 -68 11.5 -125.5t37 -104.5t65 -83t94.5 -60.5t126.5 -37t160.5 -12.5q87 0 178 6t183 17t183 27t178 37l59 -491q-102 -30 -207 -52.5t-215 -38t-225 -24t-234 -8.5q-277 0 -483.5 65.5t-342.5 200.5
t-203 342t-67 490q0 272 70.5 487.5t208.5 365t342 228t470 78.5q168 0 305 -29t244 -86.5t184.5 -143.5t128.5 -200t75 -255.5t24 -309.5zM1513 1303q4 95 -12 173t-54.5 133t-103 85t-156.5 30q-60 0 -109 -15.5t-88 -43.5t-68 -66.5t-48 -85.5t-29.5 -100t-11.5 -110h680
v0zM1654 2349l-466 331l-471 -331l-217 293l690 582l693 -581z" />
    <glyph glyph-name="edieresis" unicode="&#xeb;" horiz-adv-x="2339" 
d="M2184 1167q0 -24 -1 -57.5t-2 -71.5t-3 -77.5t-4 -76.5h-1341q0 -68 11.5 -125.5t37 -104.5t65 -83t94.5 -60.5t126.5 -37t160.5 -12.5q87 0 178 6t183 17t183 27t178 37l59 -491q-102 -30 -207 -52.5t-215 -38t-225 -24t-234 -8.5q-277 0 -483.5 65.5t-342.5 200.5
t-203 342t-67 490q0 272 70.5 487.5t208.5 365t342 228t470 78.5q168 0 305 -29t244 -86.5t184.5 -143.5t128.5 -200t75 -255.5t24 -309.5zM1513 1303q4 95 -12 173t-54.5 133t-103 85t-156.5 30q-60 0 -109 -15.5t-88 -43.5t-68 -66.5t-48 -85.5t-29.5 -100t-11.5 -110h680
v0zM1967 2760q0 -75 -23.5 -135.5t-66.5 -103.5t-104 -66t-137 -23q-75 0 -136 23t-104.5 66t-67 103.5t-23.5 135.5q0 74 23.5 134.5t67 103.5t104.5 66.5t136 23.5q76 0 137 -23.5t104 -66.5t66.5 -103.5t23.5 -134.5zM1071 2760q0 -75 -23.5 -135.5t-66.5 -103.5
t-104 -66t-137 -23q-75 0 -136 23t-104 66t-66.5 103.5t-23.5 135.5q0 74 23.5 134.5t66.5 103.5t104 66.5t136 23.5q76 0 137 -23.5t104 -66.5t66.5 -103.5t23.5 -134.5z" />
    <glyph glyph-name="igrave" unicode="&#xec;" horiz-adv-x="1282" 
d="M355 0v1608h-301v517h985v-2125h-684zM667 2346l-667 590l478 283l523 -664z" />
    <glyph glyph-name="iacute" unicode="&#xed;" horiz-adv-x="1282" 
d="M355 0v1608h-301v517h985v-2125h-684zM557 2346l-332 203l526 670l482 -281z" />
    <glyph glyph-name="icircumflex" unicode="&#xee;" horiz-adv-x="1282" 
d="M355 0v1608h-301v517h985v-2125h-684zM1154 2349l-466 331l-471 -331l-217 293l690 582l693 -581z" />
    <glyph glyph-name="idieresis" unicode="&#xef;" horiz-adv-x="1282" 
d="M355 0v1608h-301v517h985v-2125h-684zM1423 2760q0 -75 -23 -135.5t-66 -103.5t-104 -66t-136 -23t-136.5 23t-104.5 66t-66.5 103.5t-23.5 135.5q0 74 23.5 134.5t66.5 103.5t104.5 66.5t136.5 23.5t136 -23.5t104 -66.5t66 -103.5t23 -134.5zM556 2760
q0 -75 -23.5 -135.5t-66.5 -103.5t-103.5 -66t-136.5 -23q-75 0 -136.5 23t-104.5 66t-66.5 103.5t-23.5 135.5q0 74 23.5 134.5t66.5 103.5t104.5 66.5t136.5 23.5q76 0 136.5 -23.5t103.5 -66.5t66.5 -103.5t23.5 -134.5z" />
    <glyph glyph-name="eth" unicode="&#xf0;" horiz-adv-x="2499" 
d="M2330 1147q0 -271 -77.5 -494t-224.5 -383t-358.5 -248t-479.5 -88q-191 0 -343 37t-269 106t-201 168t-137.5 221t-78.5 266t-25 304q0 169 33.5 316t96.5 269.5t153 218.5t202.5 162.5t245 101t281.5 34.5q25 0 49.5 -2t47 -7t44 -11.5t41.5 -15.5q-19 36 -40.5 71.5
t-45 71.5t-48.5 72t-51 71l-355 -110l-212 342l315 100q-24 28 -49 56.5t-52 58t-55.5 59.5t-58.5 61l673 183q26 -27 53 -56l54 -58t53 -59t50 -59l453 138l211 -343l-406 -126q117 -159 211 -327t161 -345.5t103 -366t36 -389.5zM1640 1058q0 57 -3.5 115.5t-12 118
t-21 120t-28.5 120.5q-40 20 -81 34.5t-84.5 24.5t-90 14.5t-95.5 4.5q-65 0 -119 -19.5t-97.5 -54t-75.5 -83t-53.5 -106t-32 -123t-10.5 -134.5q0 -110 13.5 -199.5t39 -160t61.5 -121.5t81 -84t98.5 -49t113.5 -16q92 0 165.5 40t125 117t79 188t27.5 253z" />
    <glyph glyph-name="ntilde" unicode="&#xf1;" horiz-adv-x="2507" 
d="M1594 0v1206q0 105 -14 185t-45.5 134t-82.5 81t-126 27q-63 0 -113.5 -15t-97 -43.5t-92 -71t-98.5 -98.5v-1405h-686v2125h519l52 -228q78 76 155 131.5t160 92t176 53.5t205 17q132 0 241 -24.5t195 -73t149.5 -120.5t105.5 -165t62.5 -207.5t20.5 -248.5v-1352h-686z
M2061 2911q-28 -112 -75 -198t-112 -145t-146 -89.5t-178 -30.5q-77 0 -136 13t-106.5 33t-87.5 42.5t-80 42.5t-82 33t-93 13q-32 0 -60.5 -10.5t-54.5 -33.5t-50 -60.5t-47 -89.5l-286 187q29 111 76 197.5t111.5 145t146 89t178.5 30.5q76 0 134 -13t106 -32.5t88 -42.5
t80 -42.5t82 -32.5t93 -13q32 0 60.5 11t55 34t50.5 59.5t47 89.5l286 -187v0z" />
    <glyph glyph-name="ograve" unicode="&#xf2;" horiz-adv-x="2523" 
d="M2391 1083q0 -174 -33.5 -327t-99 -280.5t-163 -228t-225 -170t-286 -106.5t-345.5 -37q-191 0 -347.5 34.5t-279.5 99.5t-214 159.5t-150.5 215t-88.5 265.5t-29 311q0 182 33 339.5t98.5 288t162.5 232t224.5 171t286 105.5t346.5 36q279 0 487.5 -76.5t347 -219.5
t207 -348.5t68.5 -463.5zM1681 1040q0 106 -11.5 192.5t-34.5 155t-58 119t-83 83.5t-108.5 49t-134.5 16q-109 0 -187 -42.5t-127.5 -119t-72.5 -183t-23 -235.5q0 -107 11 -194t34 -154.5t58.5 -116t83.5 -80t109.5 -46.5t136.5 -15q72 0 130 19t103.5 55t78 86.5t54 114
t31.5 138t10 158.5zM1269 2346l-667 590l478 283l523 -664z" />
    <glyph glyph-name="oacute" unicode="&#xf3;" horiz-adv-x="2523" 
d="M2391 1083q0 -174 -33.5 -327t-99 -280.5t-163 -228t-225 -170t-286 -106.5t-345.5 -37q-191 0 -347.5 34.5t-279.5 99.5t-214 159.5t-150.5 215t-88.5 265.5t-29 311q0 182 33 339.5t98.5 288t162.5 232t224.5 171t286 105.5t346.5 36q279 0 487.5 -76.5t347 -219.5
t207 -348.5t68.5 -463.5zM1681 1040q0 106 -11.5 192.5t-34.5 155t-58 119t-83 83.5t-108.5 49t-134.5 16q-109 0 -187 -42.5t-127.5 -119t-72.5 -183t-23 -235.5q0 -107 11 -194t34 -154.5t58.5 -116t83.5 -80t109.5 -46.5t136.5 -15q72 0 130 19t103.5 55t78 86.5t54 114
t31.5 138t10 158.5zM1233 2346l-332 203l526 670l482 -281z" />
    <glyph glyph-name="ocircumflex" unicode="&#xf4;" horiz-adv-x="2523" 
d="M2391 1083q0 -174 -33.5 -327t-99 -280.5t-163 -228t-225 -170t-286 -106.5t-345.5 -37q-191 0 -347.5 34.5t-279.5 99.5t-214 159.5t-150.5 215t-88.5 265.5t-29 311q0 182 33 339.5t98.5 288t162.5 232t224.5 171t286 105.5t346.5 36q279 0 487.5 -76.5t347 -219.5
t207 -348.5t68.5 -463.5zM1681 1040q0 106 -11.5 192.5t-34.5 155t-58 119t-83 83.5t-108.5 49t-134.5 16q-109 0 -187 -42.5t-127.5 -119t-72.5 -183t-23 -235.5q0 -107 11 -194t34 -154.5t58.5 -116t83.5 -80t109.5 -46.5t136.5 -15q72 0 130 19t103.5 55t78 86.5t54 114
t31.5 138t10 158.5zM1723 2349l-466 331l-471 -331l-217 293l690 582l693 -581z" />
    <glyph glyph-name="otilde" unicode="&#xf5;" horiz-adv-x="2523" 
d="M2391 1083q0 -174 -33.5 -327t-99 -280.5t-163 -228t-225 -170t-286 -106.5t-345.5 -37q-191 0 -347.5 34.5t-279.5 99.5t-214 159.5t-150.5 215t-88.5 265.5t-29 311q0 182 33 339.5t98.5 288t162.5 232t224.5 171t286 105.5t346.5 36q279 0 487.5 -76.5t347 -219.5
t207 -348.5t68.5 -463.5zM1681 1040q0 106 -11.5 192.5t-34.5 155t-58 119t-83 83.5t-108.5 49t-134.5 16q-109 0 -187 -42.5t-127.5 -119t-72.5 -183t-23 -235.5q0 -107 11 -194t34 -154.5t58.5 -116t83.5 -80t109.5 -46.5t136.5 -15q72 0 130 19t103.5 55t78 86.5t54 114
t31.5 138t10 158.5zM2065 2911q-28 -112 -75 -198t-112 -145t-146 -89.5t-178 -30.5q-77 0 -136 13t-106.5 33t-87.5 42.5t-80 42.5t-82 33t-93 13q-32 0 -60.5 -10.5t-54.5 -33.5t-50 -60.5t-47 -89.5l-286 187q29 111 76 197.5t111.5 145t146 89t178.5 30.5q76 0 134 -13
t106 -32.5t88 -42.5t80 -42.5t82 -32.5t93 -13q32 0 60.5 11t55 34t50.5 59.5t47 89.5l286 -187v0z" />
    <glyph glyph-name="odieresis" unicode="&#xf6;" horiz-adv-x="2523" 
d="M2391 1083q0 -174 -33.5 -327t-99 -280.5t-163 -228t-225 -170t-286 -106.5t-345.5 -37q-191 0 -347.5 34.5t-279.5 99.5t-214 159.5t-150.5 215t-88.5 265.5t-29 311q0 182 33 339.5t98.5 288t162.5 232t224.5 171t286 105.5t346.5 36q279 0 487.5 -76.5t347 -219.5
t207 -348.5t68.5 -463.5zM1681 1040q0 106 -11.5 192.5t-34.5 155t-58 119t-83 83.5t-108.5 49t-134.5 16q-109 0 -187 -42.5t-127.5 -119t-72.5 -183t-23 -235.5q0 -107 11 -194t34 -154.5t58.5 -116t83.5 -80t109.5 -46.5t136.5 -15q72 0 130 19t103.5 55t78 86.5t54 114
t31.5 138t10 158.5zM2044 2760q0 -75 -23.5 -135.5t-66.5 -103.5t-104 -66t-137 -23q-75 0 -136 23t-104.5 66t-67 103.5t-23.5 135.5q0 74 23.5 134.5t67 103.5t104.5 66.5t136 23.5q76 0 137 -23.5t104 -66.5t66.5 -103.5t23.5 -134.5zM1148 2760q0 -75 -23.5 -135.5
t-66.5 -103.5t-104 -66t-137 -23q-75 0 -136 23t-104 66t-66.5 103.5t-23.5 135.5q0 74 23.5 134.5t66.5 103.5t104 66.5t136 23.5q76 0 137 -23.5t104 -66.5t66.5 -103.5t23.5 -134.5z" />
    <glyph glyph-name="divide" unicode="&#xf7;" 
d="M1507 2129q0 -82 -29.5 -152.5t-81.5 -121.5t-123 -80.5t-153 -29.5q-80 0 -151 29.5t-123 80.5t-82 121.5t-30 152.5t29.5 152t81 122t121.5 81t152 29t153 -29t123.5 -81t82.5 -122t30 -152zM99 1015v509h2043v-509h-2043zM1507 412q0 -82 -30 -152.5t-82.5 -122
t-123.5 -81t-153 -29.5t-152 29.5t-121.5 81t-81 122t-29.5 152.5t30 152t82 121.5t123 81t151 29.5q82 0 153 -29.5t123 -81t81.5 -121.5t29.5 -152z" />
    <glyph glyph-name="oslash" unicode="&#xf8;" horiz-adv-x="2524" 
d="M2391 1084q0 -173 -33.5 -326.5t-99 -281t-163 -228t-225 -170t-286 -106.5t-345.5 -37q-45 0 -87 2.5t-82 7t-78 10.5t-75 16l-243 -463l-380 153l239 457q-103 68 -179 160.5t-125.5 207t-74 248.5t-24.5 286q0 182 33 339.5t98.5 287.5t162.5 231.5t224.5 171
t286 105.5t346.5 36q43 0 86 -2.5t84 -8t80.5 -13t75.5 -17.5l236 449l381 -152l-235 -442q100 -70 175.5 -164t125.5 -210t75.5 -253t25.5 -294zM1742 1041q0 32 -1.5 65t-6 66t-11 65t-14.5 62t-18.5 56.5t-23.5 48.5l-520 -970q13 -5 28.5 -8.5t32 -6t34 -4t35.5 -1.5
q84 0 151 21t118.5 60.5t89 95.5t61 126t34.5 151.5t11 172.5zM1377 1685q-24 11 -59 17t-69 6q-128 0 -217 -47t-145 -131t-82 -200t-26 -253q0 -33 2 -67t6 -67t10.5 -65.5t14.5 -61.5t18.5 -54.5t22.5 -46.5z" />
    <glyph glyph-name="ugrave" unicode="&#xf9;" horiz-adv-x="2507" 
d="M1746 0l-50 228q-79 -76 -156 -131.5t-159.5 -91.5t-175.5 -53.5t-205 -17.5q-132 0 -241.5 25t-195.5 73.5t-149.5 120t-105.5 165t-62.5 207.5t-20.5 248v1352h686v-1206q0 -69 6.5 -128t19.5 -106.5t34 -83.5t50 -60t68.5 -36.5t89.5 -12.5q63 0 114 15t97 44t92 71.5
t98 97.5v1405h684v-2125h-518zM1253 2346l-667 590l478 283l523 -664z" />
    <glyph glyph-name="uacute" unicode="&#xfa;" horiz-adv-x="2507" 
d="M1746 0l-50 228q-79 -76 -156 -131.5t-159.5 -91.5t-175.5 -53.5t-205 -17.5q-132 0 -241.5 25t-195.5 73.5t-149.5 120t-105.5 165t-62.5 207.5t-20.5 248v1352h686v-1206q0 -69 6.5 -128t19.5 -106.5t34 -83.5t50 -60t68.5 -36.5t89.5 -12.5q63 0 114 15t97 44t92 71.5
t98 97.5v1405h684v-2125h-518zM1270 2346l-332 203l526 670l482 -281z" />
    <glyph glyph-name="ucircumflex" unicode="&#xfb;" horiz-adv-x="2507" 
d="M1746 0l-50 228q-79 -76 -156 -131.5t-159.5 -91.5t-175.5 -53.5t-205 -17.5q-132 0 -241.5 25t-195.5 73.5t-149.5 120t-105.5 165t-62.5 207.5t-20.5 248v1352h686v-1206q0 -69 6.5 -128t19.5 -106.5t34 -83.5t50 -60t68.5 -36.5t89.5 -12.5q63 0 114 15t97 44t92 71.5
t98 97.5v1405h684v-2125h-518zM1723 2349l-466 331l-471 -331l-217 293l690 582l693 -581z" />
    <glyph glyph-name="udieresis" unicode="&#xfc;" horiz-adv-x="2507" 
d="M1746 0l-50 228q-79 -76 -156 -131.5t-159.5 -91.5t-175.5 -53.5t-205 -17.5q-132 0 -241.5 25t-195.5 73.5t-149.5 120t-105.5 165t-62.5 207.5t-20.5 248v1352h686v-1206q0 -69 6.5 -128t19.5 -106.5t34 -83.5t50 -60t68.5 -36.5t89.5 -12.5q63 0 114 15t97 44t92 71.5
t98 97.5v1405h684v-2125h-518zM2053 2760q0 -75 -23.5 -135.5t-66.5 -103.5t-104 -66t-137 -23q-75 0 -136 23t-104.5 66t-67 103.5t-23.5 135.5q0 74 23.5 134.5t67 103.5t104.5 66.5t136 23.5q76 0 137 -23.5t104 -66.5t66.5 -103.5t23.5 -134.5zM1157 2760
q0 -75 -23.5 -135.5t-66.5 -103.5t-104 -66t-137 -23q-75 0 -136 23t-104 66t-66.5 103.5t-23.5 135.5q0 74 23.5 134.5t66.5 103.5t104 66.5t136 23.5q76 0 137 -23.5t104 -66.5t66.5 -103.5t23.5 -134.5z" />
    <glyph glyph-name="yacute" unicode="&#xfd;" horiz-adv-x="2171" 
d="M2134 2125q-77 -356 -155.5 -665.5t-159 -573.5t-163.5 -484t-170 -399q-85 -176 -170.5 -309.5t-172 -231.5t-174.5 -163.5t-178.5 -104.5t-185 -55.5t-192.5 -16.5q-44 0 -87.5 4.5t-84.5 12.5t-77 18.5t-65 21.5l12 500h270q38 0 70 7.5t60.5 23t55 40.5t52.5 60.5
t54 82.5t59 107q-67 145 -133.5 306.5t-130 335t-123 356.5t-114.5 371t-103 378t-89 378h713q38 -186 81.5 -372t92 -367.5t102 -358t109.5 -344.5h6q51 163 99 344t89.5 368t76.5 373t60 357h666v0zM1114 2346l-332 203l526 670l482 -281z" />
    <glyph glyph-name="thorn" unicode="&#xfe;" horiz-adv-x="2511" 
d="M2378 1156q0 -172 -30 -328t-90 -290t-152 -242.5t-216 -185t-281.5 -118t-348.5 -41.5q-85 0 -172.5 9t-162.5 24v-803h-686v3891h686v-1076q51 42 111.5 78t128.5 62t143.5 40.5t156.5 14.5q157 0 286 -36t230.5 -102.5t176.5 -160.5t123.5 -209t72.5 -248.5t24 -278.5
zM1659 1065q0 92 -7 171t-23.5 142t-43 111.5t-65.5 80.5t-91.5 49t-119.5 17q-37 0 -72 -6t-69 -17.5t-66.5 -27.5t-63.5 -37t-59.5 -46.5t-53.5 -54.5v-868q24 -17 56 -33t71 -27.5t84 -18.5t95 -7q105 0 185 36t134 107t81.5 178.5t27.5 250.5z" />
    <glyph glyph-name="ydieresis" unicode="&#xff;" horiz-adv-x="2171" 
d="M2134 2125q-77 -356 -155.5 -665.5t-159 -573.5t-163.5 -484t-170 -399q-85 -176 -170.5 -309.5t-172 -231.5t-174.5 -163.5t-178.5 -104.5t-185 -55.5t-192.5 -16.5q-44 0 -87.5 4.5t-84.5 12.5t-77 18.5t-65 21.5l12 500h270q38 0 70 7.5t60.5 23t55 40.5t52.5 60.5
t54 82.5t59 107q-67 145 -133.5 306.5t-130 335t-123 356.5t-114.5 371t-103 378t-89 378h713q38 -186 81.5 -372t92 -367.5t102 -358t109.5 -344.5h6q51 163 99 344t89.5 368t76.5 373t60 357h666v0zM1905 2760q0 -75 -23.5 -135.5t-66.5 -103.5t-104 -66t-137 -23
q-75 0 -136 23t-104.5 66t-67 103.5t-23.5 135.5q0 74 23.5 134.5t67 103.5t104.5 66.5t136 23.5q76 0 137 -23.5t104 -66.5t66.5 -103.5t23.5 -134.5zM1009 2760q0 -75 -23.5 -135.5t-66.5 -103.5t-104 -66t-137 -23q-75 0 -136 23t-104 66t-66.5 103.5t-23.5 135.5
q0 74 23.5 134.5t66.5 103.5t104 66.5t136 23.5q76 0 137 -23.5t104 -66.5t66.5 -103.5t23.5 -134.5z" />
    <glyph glyph-name="Amacron" unicode="&#x100;" horiz-adv-x="2888" 
d="M2039 0q-18 66 -36.5 138t-38 146.5t-39.5 150t-41 148.5h-979q-23 -77 -44.5 -151.5t-42 -148t-40 -144t-37.5 -139.5h-704q104 356 213.5 707.5t227.5 705t246 713t269 733.5h889q136 -360 267 -722.5t254 -722t235.5 -714.5t213.5 -700h-813zM1739 1126
q-40 134 -80.5 265t-81.5 261t-84 261.5t-89 267.5l-4 -2q-46 -135 -90.5 -267t-87.5 -263.5t-84.5 -262t-81.5 -260.5h683zM836 3138v438h1217v-438h-1217z" />
    <glyph glyph-name="amacron" unicode="&#x101;" horiz-adv-x="2322" 
d="M1564 0l-46 189q-61 -60 -132 -107.5t-153 -80t-174 -50t-196 -17.5q-160 0 -295.5 41t-235.5 124.5t-156.5 209.5t-56.5 297q0 192 72.5 328t216.5 222.5t358 127t498 40.5h146v85q0 71 -16.5 125t-59 89.5t-117 53.5t-189.5 18q-79 0 -161 -9.5t-163.5 -26.5
t-158.5 -39.5t-145 -48.5l-110 474q83 33 183 59.5t207.5 46t217 30t213.5 10.5q167 0 304 -18.5t245.5 -58.5t188 -101.5t132 -146t78 -194.5t25.5 -246v-1426h-520zM1410 905h-161q-125 0 -212.5 -14.5t-143 -46.5t-81 -81.5t-25.5 -117.5q0 -50 16 -91.5t48.5 -71
t81.5 -46.5t114 -17q53 0 102.5 13.5t95 37t87 56t78.5 70.5v309zM569 2534v441h1217v-441h-1217z" />
    <glyph glyph-name="Abreve" unicode="&#x102;" horiz-adv-x="2888" 
d="M2039 0q-18 66 -36.5 138t-38 146.5t-39.5 150t-41 148.5h-979q-23 -77 -44.5 -151.5t-42 -148t-40 -144t-37.5 -139.5h-704q104 356 213.5 707.5t227.5 705t246 713t269 733.5h889q136 -360 267 -722.5t254 -722t235.5 -714.5t213.5 -700h-813zM1739 1126
q-40 134 -80.5 265t-81.5 261t-84 261.5t-89 267.5l-4 -2q-46 -135 -90.5 -267t-87.5 -263.5t-84.5 -262t-81.5 -260.5h683zM2140 3805q0 -126 -23 -229.5t-66 -185t-104.5 -141.5t-139.5 -99.5t-170.5 -58.5t-197.5 -19t-198 19.5t-170.5 59t-139 100t-103.5 142t-64.5 184
t-22.5 228.5h419q0 -70 17.5 -125t52.5 -92.5t87.5 -57.5t123.5 -20q137 0 208.5 72.5t71.5 222.5h419v0z" />
    <glyph glyph-name="abreve" unicode="&#x103;" horiz-adv-x="2322" 
d="M1564 0l-46 189q-61 -60 -132 -107.5t-153 -80t-174 -50t-196 -17.5q-160 0 -295.5 41t-235.5 124.5t-156.5 209.5t-56.5 297q0 192 72.5 328t216.5 222.5t358 127t498 40.5h146v85q0 71 -16.5 125t-59 89.5t-117 53.5t-189.5 18q-79 0 -161 -9.5t-163.5 -26.5
t-158.5 -39.5t-145 -48.5l-110 474q83 33 183 59.5t207.5 46t217 30t213.5 10.5q167 0 304 -18.5t245.5 -58.5t188 -101.5t132 -146t78 -194.5t25.5 -246v-1426h-520zM1410 905h-161q-125 0 -212.5 -14.5t-143 -46.5t-81 -81.5t-25.5 -117.5q0 -50 16 -91.5t48.5 -71
t81.5 -46.5t114 -17q53 0 102.5 13.5t95 37t87 56t78.5 70.5v309zM1872 3072q0 -127 -22 -230t-65 -184.5t-104.5 -141.5t-139.5 -99.5t-170.5 -58.5t-197.5 -19t-198 19t-170.5 59t-139 100.5t-103.5 142t-64.5 184t-22.5 228.5h419q0 -71 17.5 -125.5t52.5 -92t87.5 -57.5
t123.5 -20q68 0 120.5 18t87.5 54.5t53.5 92t18.5 130.5h417v0z" />
    <glyph glyph-name="Aogonek" unicode="&#x104;" horiz-adv-x="2886" 
d="M2684 0q-73 -45 -125.5 -90.5t-86.5 -90.5t-50 -87.5t-16 -81.5q0 -31 9 -55t25.5 -40t42 -23.5t58.5 -7.5q23 0 48.5 3t52.5 8t53.5 12.5t52.5 17.5l75 -350q-47 -18 -102.5 -33.5t-115 -26.5t-121 -17t-120.5 -6q-150 0 -260.5 23.5t-182.5 71t-107 119t-35 167.5
q0 71 19 138.5t53.5 129t82.5 117t105 102.5q-18 66 -36.5 138t-38 146.5t-39.5 150t-41 148.5h-979q-23 -77 -44.5 -151.5t-42 -148t-40 -144t-37.5 -139.5h-704q104 356 213.5 707.5t227.5 705t246 713t269 733.5h889q136 -360 267 -722.5t254 -722t235.5 -714.5
t213.5 -700h-168zM1739 1126q-40 134 -80.5 265t-81.5 261t-84 261.5t-89 267.5l-4 -2q-46 -135 -90.5 -267t-87.5 -263.5t-84.5 -262t-81.5 -260.5h683z" />
    <glyph glyph-name="aogonek" unicode="&#x105;" horiz-adv-x="2321" 
d="M2085 0q-56 -45 -101.5 -90.5t-76.5 -90.5t-47 -87.5t-16 -81.5q0 -31 8.5 -55t25 -40t40.5 -23.5t56 -7.5q25 0 46.5 2.5t43.5 7t45 12t48 16.5l75 -349q-47 -19 -98 -34t-107 -25.5t-113.5 -16t-116.5 -5.5q-148 0 -254 26t-173.5 75.5t-99 120.5t-31.5 162
q0 61 22 126t63 128t100 121.5t133 108.5v0l-40 212q-61 -61 -134 -111.5t-157.5 -87.5t-180.5 -58t-203 -21q-101 0 -194 18.5t-174 55t-146.5 92t-112 130t-72 169t-25.5 207.5q0 192 72.5 328t216.5 222.5t358 127t498 40.5h146v85q0 71 -16.5 125t-59 89.5t-117 53.5
t-189.5 18q-79 0 -161 -9.5t-163.5 -26.5t-158.5 -39.5t-145 -48.5l-110 474q83 33 183 59.5t207.5 46t217 30t213.5 10.5q167 0 304 -18.5t245.5 -58.5t188 -101.5t133 -146t79 -194.5t25.5 -246v-1426zM1409 905h-161q-125 0 -212.5 -14.5t-143 -46.5t-81 -81.5
t-25.5 -117.5q0 -50 15.5 -91.5t46 -71t75 -46.5t100.5 -17q58 0 112 16t102.5 43t91.5 61.5t80 73.5v292z" />
    <glyph glyph-name="Cacute" unicode="&#x106;" horiz-adv-x="2376" 
d="M2313 104q-75 -37 -166.5 -67t-189.5 -52t-197.5 -34t-190.5 -12q-336 0 -600 89.5t-446 269.5t-277.5 451.5t-95.5 635.5q0 249 46.5 459.5t133 381t210 300.5t278.5 217.5t339 132t391 44.5q101 0 199 -9.5t192.5 -30t185.5 -51.5t178 -73l-208 -551q-62 30 -125 52.5
t-127 37t-128 21t-129 6.5q-108 0 -199.5 -31t-166 -86.5t-131.5 -135.5t-95.5 -178.5t-58 -214t-19.5 -242.5q0 -240 53 -409t149.5 -276.5t230.5 -157.5t296 -50q64 0 128.5 8.5t126.5 23t121.5 35.5t116.5 47l175 -551v0zM1249 3015l-159 315l835 349l211 -431z" />
    <glyph glyph-name="cacute" unicode="&#x107;" horiz-adv-x="1843" 
d="M1772 83q-74 -32 -149.5 -58t-154.5 -44.5t-163 -28t-173 -9.5q-250 0 -437.5 74t-313 212.5t-188.5 338t-63 450.5q0 287 77.5 504.5t219 363.5t341 220.5t443.5 74.5q66 0 135.5 -6t139 -19t137 -33.5t130.5 -49.5l-140 -508q-35 14 -75.5 27t-84.5 22.5t-89 15
t-90 5.5q-111 0 -193 -38t-135 -110t-79 -176.5t-26 -237.5q0 -138 25 -243.5t78.5 -176.5t138 -107.5t201.5 -36.5q51 0 99 5t94 14.5t90 24.5t88 35l117 -505v0zM1094 2346l-332 203l526 670l482 -281z" />
    <glyph glyph-name="Ccaron" unicode="&#x10c;" horiz-adv-x="2376" 
d="M2313 104q-75 -37 -166.5 -67t-189.5 -52t-197.5 -34t-190.5 -12q-336 0 -600 89.5t-446 269.5t-277.5 451.5t-95.5 635.5q0 249 46.5 459.5t133 381t210 300.5t278.5 217.5t339 132t391 44.5q101 0 199 -9.5t192.5 -30t185.5 -51.5t178 -73l-208 -551q-62 30 -125 52.5
t-127 37t-128 21t-129 6.5q-108 0 -199.5 -31t-166 -86.5t-131.5 -135.5t-95.5 -178.5t-58 -214t-19.5 -242.5q0 -240 53 -409t149.5 -276.5t230.5 -157.5t296 -50q64 0 128.5 8.5t126.5 23t121.5 35.5t116.5 47l175 -551v0zM1469 3019l-678 343l143 312l537 -209l537 209
l136 -308z" />
    <glyph glyph-name="ccaron" unicode="&#x10d;" horiz-adv-x="1843" 
d="M1772 83q-74 -32 -149.5 -58t-154.5 -44.5t-163 -28t-173 -9.5q-250 0 -437.5 74t-313 212.5t-188.5 338t-63 450.5q0 287 77.5 504.5t219 363.5t341 220.5t443.5 74.5q66 0 135.5 -6t139 -19t137 -33.5t130.5 -49.5l-140 -508q-35 14 -75.5 27t-84.5 22.5t-89 15
t-90 5.5q-111 0 -193 -38t-135 -110t-79 -176.5t-26 -237.5q0 -138 25 -243.5t78.5 -176.5t138 -107.5t201.5 -36.5q51 0 99 5t94 14.5t90 24.5t88 35l117 -505v0zM1083 2350l-694 583l229 295l468 -332l470 332l216 -292z" />
    <glyph glyph-name="Dcaron" unicode="&#x10e;" horiz-adv-x="2925" 
d="M2788 1467q0 -253 -50 -460t-143 -370t-228 -282.5t-305 -198.5t-373.5 -117.5t-433.5 -38.5h-990v2859h1051q232 0 431 -38t363 -114t290 -191t212 -269.5t131 -349t45 -430.5zM2042 1431q0 126 -18 240t-56.5 211.5t-99 176t-146.5 134t-199 85.5t-255 30h-285v-1751
h285q193 0 338 58.5t241.5 170t145.5 274.5t49 371zM1354 3019l-678 343l143 312l537 -209l537 209l136 -308z" />
    <glyph glyph-name="dcaron" unicode="&#x10f;" horiz-adv-x="2929" 
d="M1751 0l-47 232q-68 -70 -141 -125t-155.5 -93.5t-175 -59t-199.5 -20.5q-155 0 -282 36t-227 102t-173.5 159.5t-122.5 209t-72.5 249t-23.5 280.5q0 172 29.5 328.5t90 290.5t152.5 242.5t216 184.5t281 118t349 42q43 0 86.5 -3t86 -7t83 -11t78.5 -15v932h684v-3072
h-517zM1584 1547q-48 34 -126.5 59.5t-179.5 25.5q-105 0 -184.5 -36t-133.5 -107.5t-81.5 -178.5t-27.5 -251q0 -92 7 -169.5t23.5 -141t42 -112t61.5 -81t84 -49t109 -16.5q37 0 72 6t68.5 19t66 32.5t65 45.5t66 59t68.5 74v821zM2763 2277l-395 54l217 882l508 -81z" />
    <glyph glyph-name="Dcroat" unicode="&#x110;" horiz-adv-x="2966" 
d="M2829 1467q0 -253 -50 -460t-143 -370t-228 -282.5t-305 -198.5t-373.5 -117.5t-433.5 -38.5h-990v1169h-282v524h282v1166h1051q232 0 431 -38t363 -114t290 -191t212 -269.5t131 -349t45 -430.5zM2083 1431q0 126 -18 240t-56.5 211.5t-99 176t-146.5 134t-199 85.5
t-255 30h-285v-615h469v-524h-469v-612h285q193 0 338 58.5t241.5 170t145.5 274.5t49 371z" />
    <glyph glyph-name="dcroat" unicode="&#x111;" horiz-adv-x="2511" 
d="M2547 2843v-475h-277v-2368h-519l-47 232q-68 -70 -141 -125t-155.5 -93.5t-175 -59t-199.5 -20.5q-155 0 -282 36t-227 102t-173.5 159.5t-122.5 209t-72.5 249t-23.5 280.5q0 172 29.5 328t89.5 289t151 240t213 182t276 116t342 41q49 0 95.5 -2t91 -7t85.5 -11
t79 -15v237h-419v475h419v229h686v-229h277zM1584 1547q-48 34 -126.5 59.5t-179.5 25.5q-105 0 -184.5 -36t-133.5 -107.5t-81.5 -178.5t-27.5 -251q0 -92 7 -169.5t23.5 -141t42 -112t61.5 -81t84 -49t109 -16.5q37 0 72 6t68.5 19t66 32.5t65 45.5t66 59t68.5 74v821z
" />
    <glyph glyph-name="Emacron" unicode="&#x112;" horiz-adv-x="2249" 
d="M265 0v2859h1768v-551h-1050v-563h896v-542h-896v-652h1064v-551h-1782zM537 3138v438h1217v-438h-1217z" />
    <glyph glyph-name="emacron" unicode="&#x113;" horiz-adv-x="2339" 
d="M2184 1167q0 -24 -1 -57.5t-2 -71.5t-3 -77.5t-4 -76.5h-1341q0 -68 11.5 -125.5t37 -104.5t65 -83t94.5 -60.5t126.5 -37t160.5 -12.5q87 0 178 6t183 17t183 27t178 37l59 -491q-102 -30 -207 -52.5t-215 -38t-225 -24t-234 -8.5q-277 0 -483.5 65.5t-342.5 200.5
t-203 342t-67 490q0 272 70.5 487.5t208.5 365t342 228t470 78.5q168 0 305 -29t244 -86.5t184.5 -143.5t128.5 -200t75 -255.5t24 -309.5zM1513 1303q4 95 -12 173t-54.5 133t-103 85t-156.5 30q-60 0 -109 -15.5t-88 -43.5t-68 -66.5t-48 -85.5t-29.5 -100t-11.5 -110h680
v0zM582 2534v441h1217v-441h-1217z" />
    <glyph glyph-name="Edotaccent" unicode="&#x116;" horiz-adv-x="2249" 
d="M265 0v2859h1768v-551h-1050v-563h896v-542h-896v-652h1064v-551h-1782zM1517 3392q0 -78 -27 -141t-75.5 -111t-116 -72t-153.5 -24q-82 0 -149.5 24t-119 72t-79.5 111t-28 141t28 140.5t79.5 111t119 73t149.5 24.5q86 0 153.5 -24.5t116 -73t75.5 -111t27 -140.5z
" />
    <glyph glyph-name="edotaccent" unicode="&#x117;" horiz-adv-x="2339" 
d="M2184 1167q0 -24 -1 -57.5t-2 -71.5t-3 -77.5t-4 -76.5h-1341q0 -68 11.5 -125.5t37 -104.5t65 -83t94.5 -60.5t126.5 -37t160.5 -12.5q87 0 178 6t183 17t183 27t178 37l59 -491q-102 -30 -207 -52.5t-215 -38t-225 -24t-234 -8.5q-277 0 -483.5 65.5t-342.5 200.5
t-203 342t-67 490q0 272 70.5 487.5t208.5 365t342 228t470 78.5q168 0 305 -29t244 -86.5t184.5 -143.5t128.5 -200t75 -255.5t24 -309.5zM1513 1303q4 95 -12 173t-54.5 133t-103 85t-156.5 30q-60 0 -109 -15.5t-88 -43.5t-68 -66.5t-48 -85.5t-29.5 -100t-11.5 -110h680
v0zM1586 2721q0 -87 -29 -158t-81 -121t-125 -77.5t-161 -27.5t-161.5 27.5t-125.5 77.5t-80.5 121t-28.5 158q0 88 28.5 158.5t80.5 121t125.5 78t161.5 27.5t161 -27.5t125 -78t81 -121t29 -158.5z" />
    <glyph glyph-name="Eogonek" unicode="&#x118;" horiz-adv-x="2249" 
d="M2047 0q-78 -45 -132.5 -90.5t-89.5 -90.5t-51 -87.5t-16 -81.5q0 -31 8.5 -55t25.5 -40t42 -23.5t59 -7.5q22 0 48 3t52.5 8t53.5 12.5t53 17.5l75 -350q-47 -18 -102.5 -33.5t-115 -26.5t-121 -17t-121.5 -6q-150 0 -260 23.5t-182 71t-107 119t-35 167.5
q0 71 19 138.5t55 129t86 117t111 102.5h-1137v2859h1768v-551h-1050v-563h896v-542h-896v-652h1064v-551z" />
    <glyph glyph-name="eogonek" unicode="&#x119;" horiz-adv-x="2339" 
d="M2109 57q-54 -13 -100 -40t-83 -62.5t-65.5 -76t-47.5 -81.5t-28.5 -79t-9.5 -68q0 -31 8.5 -55t25 -40t41 -23.5t55.5 -7.5q23 0 44 2.5t43 7t45 12t49 16.5l75 -349q-47 -19 -98 -34t-106 -25.5t-112.5 -16t-116.5 -5.5q-148 0 -253.5 26t-173.5 75.5t-100 120.5
t-32 162q0 59 18.5 118t51 114t78 105t100.5 93q-19 -3 -43.5 -5t-50 -4t-50.5 -2.5t-45 -0.5q-277 0 -483.5 65.5t-342.5 200.5t-203 342t-67 490q0 272 70.5 487.5t208.5 365t342 228t470 78.5q168 0 305 -29t244 -86.5t184.5 -143.5t128.5 -200t75 -255.5t24 -309.5
q0 -24 -1 -57.5t-2 -71.5t-3 -77.5t-4 -76.5h-1341q0 -68 11.5 -125.5t37 -104.5t65 -83t94.5 -60.5t126.5 -37t160.5 -12.5q87 0 178 6t183 17t183 27t178 37zM1513 1303q4 95 -12 173t-54.5 133t-103 85t-156.5 30q-60 0 -109 -15.5t-88 -43.5t-68 -66.5t-48 -85.5
t-29.5 -100t-11.5 -110h680v0z" />
    <glyph glyph-name="Ecaron" unicode="&#x11a;" horiz-adv-x="2249" 
d="M265 0v2859h1768v-551h-1050v-563h896v-542h-896v-652h1064v-551h-1782zM1145 3019l-678 343l143 312l537 -209l537 209l136 -308z" />
    <glyph glyph-name="ecaron" unicode="&#x11b;" horiz-adv-x="2339" 
d="M2184 1167q0 -24 -1 -57.5t-2 -71.5t-3 -77.5t-4 -76.5h-1341q0 -68 11.5 -125.5t37 -104.5t65 -83t94.5 -60.5t126.5 -37t160.5 -12.5q87 0 178 6t183 17t183 27t178 37l59 -491q-102 -30 -207 -52.5t-215 -38t-225 -24t-234 -8.5q-277 0 -483.5 65.5t-342.5 200.5
t-203 342t-67 490q0 272 70.5 487.5t208.5 365t342 228t470 78.5q168 0 305 -29t244 -86.5t184.5 -143.5t128.5 -200t75 -255.5t24 -309.5zM1513 1303q4 95 -12 173t-54.5 133t-103 85t-156.5 30q-60 0 -109 -15.5t-88 -43.5t-68 -66.5t-48 -85.5t-29.5 -100t-11.5 -110h680
v0zM1190 2350l-694 583l229 295l468 -332l470 332l216 -292z" />
    <glyph glyph-name="Gbreve" unicode="&#x11e;" horiz-adv-x="2888" 
d="M2450 2148q-94 48 -188.5 83.5t-189 59t-189.5 36t-190 12.5q-123 0 -231.5 -28.5t-199.5 -82.5t-163.5 -132.5t-122 -179t-76 -221.5t-26.5 -261q0 -224 55 -393.5t158 -282.5t250.5 -170t332.5 -57q67 0 128 9.5t118 26.5v1012h721v-1480q-99 -37 -217.5 -66.5
t-248 -51t-266.5 -33.5t-274 -12q-236 0 -437.5 43t-367.5 127.5t-294.5 208.5t-215.5 286t-132.5 361t-45.5 433q0 240 48 446t140 375.5t225 300.5t303.5 220.5t376.5 136t443 46.5q141 0 270.5 -15t251 -45t236.5 -74t226 -103zM2267 3805q0 -126 -23 -229.5t-66 -185
t-104.5 -141.5t-139.5 -99.5t-170.5 -58.5t-197.5 -19t-198 19.5t-170.5 59t-139 100t-103.5 142t-64.5 184t-22.5 228.5h419q0 -70 17.5 -125t52.5 -92.5t87.5 -57.5t123.5 -20q137 0 208.5 72.5t71.5 222.5h419v0z" />
    <glyph glyph-name="gbreve" unicode="&#x11f;" horiz-adv-x="2511" 
d="M2270 92q0 -172 -34.5 -311t-101.5 -246.5t-164.5 -185.5t-224 -128.5t-279.5 -74.5t-329 -24q-90 0 -183 4t-184 12.5t-177.5 21t-162.5 28.5l20 512q74 -13 155 -23t164 -16.5t168 -10t170 -3.5q82 0 150 7t121 22.5t92 40.5t64 61t37.5 84t12.5 109v213
q-53 -45 -114 -83t-129 -63.5t-141.5 -38.5t-152.5 -13q-159 0 -289 37.5t-231.5 104t-175.5 159.5t-123 206.5t-72.5 244.5t-23.5 273q0 174 32 328.5t98 285t166 230t234 172t303.5 111t375.5 38.5q98 0 199 -7t213 -24.5t239.5 -48.5t277.5 -77v-1927v0zM1584 1560
q-24 17 -55.5 31t-69 23t-79.5 14t-87 5q-105 0 -187.5 -37t-139 -108.5t-86 -167t-29.5 -229.5q0 -86 6.5 -160.5t23 -136t42.5 -109t65 -80t91.5 -49.5t121.5 -17q54 0 106.5 13t101.5 37.5t93 59t82 78.5v833zM1952 3072q0 -127 -22 -230t-65 -184.5t-104.5 -141.5
t-139.5 -99.5t-170.5 -58.5t-197.5 -19t-198 19t-170.5 59t-139 100.5t-103.5 142t-64.5 184t-22.5 228.5h419q0 -71 17.5 -125.5t52.5 -92t87.5 -57.5t123.5 -20q68 0 120.5 18t87.5 54.5t53.5 92t18.5 130.5h417v0z" />
    <glyph glyph-name="Gcommaaccent" unicode="&#x122;" horiz-adv-x="2888" 
d="M2450 2148q-94 48 -188.5 83.5t-189 59t-189.5 36t-190 12.5q-123 0 -231.5 -28.5t-199.5 -82.5t-163.5 -132.5t-122 -179t-76 -221.5t-26.5 -261q0 -224 55 -393.5t158 -282.5t250.5 -170t332.5 -57q67 0 128 9.5t118 26.5v1012h721v-1480q-99 -37 -217.5 -66.5
t-248 -51t-266.5 -33.5t-274 -12q-236 0 -437.5 43t-367.5 127.5t-294.5 208.5t-215.5 286t-132.5 361t-45.5 433q0 240 48 446t140 375.5t225 300.5t303.5 220.5t376.5 136t443 46.5q141 0 270.5 -15t251 -45t236.5 -74t226 -103zM849 -543q103 0 173.5 11.5t118 30.5
t77 44t50.5 52t38.5 53.5t42.5 49.5q51 54 115 83t143 29q65 0 117 -21.5t88.5 -59.5t56 -91.5t19.5 -117.5q0 -79 -42.5 -151.5t-131.5 -126.5t-224.5 -86t-320.5 -32q-93 0 -176.5 6.5t-140.5 14.5z" />
    <glyph glyph-name="gcommaaccent" unicode="&#x123;" horiz-adv-x="2511" 
d="M2270 92q0 -172 -34.5 -311t-101.5 -246.5t-164.5 -185.5t-224 -128.5t-279.5 -74.5t-329 -24q-90 0 -183 4t-184 12.5t-177.5 21t-162.5 28.5l20 512q74 -13 155 -23t164 -16.5t168 -10t170 -3.5q82 0 150 7t121 22.5t92 40.5t64 61t37.5 84t12.5 109v213
q-53 -45 -114 -83t-129 -63.5t-141.5 -38.5t-152.5 -13q-159 0 -289 37.5t-231.5 104t-175.5 159.5t-123 206.5t-72.5 244.5t-23.5 273q0 174 32 328.5t98 285t166 230t234 172t303.5 111t375.5 38.5q98 0 199 -7t213 -24.5t239.5 -48.5t277.5 -77v-1927v0zM1584 1560
q-24 17 -55.5 31t-69 23t-79.5 14t-87 5q-105 0 -187.5 -37t-139 -108.5t-86 -167t-29.5 -229.5q0 -86 6.5 -160.5t23 -136t42.5 -109t65 -80t91.5 -49.5t121.5 -17q54 0 106.5 13t101.5 37.5t93 59t82 78.5v833zM1964 2707q-77 0 -136 -6.5t-102.5 -18t-75 -27.5t-54.5 -34
t-39.5 -38.5t-31 -40.5t-28.5 -39.5t-32 -35.5q-51 -54 -114.5 -83.5t-143.5 -29.5q-65 0 -117.5 21.5t-88.5 60t-55.5 91.5t-19.5 117q0 79 42.5 151.5t131 126.5t224.5 86t321 32q46 0 91 -1.5t85.5 -4.5t76.5 -7t63 -8z" />
    <glyph glyph-name="Imacron" unicode="&#x12a;" horiz-adv-x="1253" 
d="M265 0v2859h721v-2859h-721zM16 3138v438h1217v-438h-1217z" />
    <glyph glyph-name="imacron" unicode="&#x12b;" horiz-adv-x="1282" 
d="M355 0v1608h-301v517h985v-2125h-684zM33 2534v441h1217v-441h-1217z" />
    <glyph glyph-name="Iogonek" unicode="&#x12e;" horiz-adv-x="1253" 
d="M985 0q-74 -45 -129 -90.5t-94.5 -90.5t-59.5 -87.5t-20 -81.5q0 -31 8.5 -55t25.5 -40t42 -23.5t58 -7.5q23 0 48.5 3t52.5 8t54 12.5t53 17.5l75 -350q-48 -18 -103 -33.5t-114.5 -26.5t-121 -17t-121.5 -6q-150 0 -261.5 25t-184.5 78t-109 136.5t-36 203.5
q0 48 14.5 103.5t43 112t69 110.5t90.5 99v0v2859h720v-2859z" />
    <glyph glyph-name="iogonek" unicode="&#x12f;" horiz-adv-x="1281" 
d="M1087 2720q0 -87 -29 -158t-81 -121t-125 -77.5t-161 -27.5t-161 27.5t-125 77.5t-81 121t-29 158q0 88 29 158.5t81 120.5t125 77.5t161 27.5t161 -27.5t125 -77.5t81 -120.5t29 -158.5zM1039 0q-56 -45 -99.5 -90.5t-74.5 -90.5t-47.5 -87.5t-16.5 -81.5q0 -31 9 -55
t25.5 -40t40.5 -23.5t56 -7.5q23 0 44.5 2.5t43.5 7t45 12t48 16.5l75 -349q-47 -19 -98 -34t-106 -25.5t-112.5 -16t-116.5 -5.5q-148 0 -254 26t-173 75.5t-99 120.5t-32 162q0 61 21.5 126t63 128t100.5 121.5t134 108.5h-161v1608h-301v517h985v-2125z" />
    <glyph glyph-name="Idotaccent" unicode="&#x130;" horiz-adv-x="1253" 
d="M265 0v2859h721v-2859h-721zM1002 3392q0 -78 -27 -141t-75.5 -111t-116 -72t-153.5 -24q-82 0 -149.5 24t-119 72t-79.5 111t-28 141t28 140.5t79.5 111t119 73t149.5 24.5q86 0 153.5 -24.5t116 -73t75.5 -111t27 -140.5z" />
    <glyph glyph-name="dotlessi" unicode="&#x131;" horiz-adv-x="1281" 
d="M355 0v1608h-301v517h985v-2125h-684z" />
    <glyph glyph-name="Kcommaaccent" unicode="&#x136;" horiz-adv-x="2695" 
d="M1821 0l-643 1255l-192 -229v-1026h-721v2859h721v-1040q99 130 198 259.5t196.5 260t195 260.5t194.5 260h865l-939 -1101l975 -1758h-850zM620 -543q103 0 173.5 11.5t118 30.5t77 44t50.5 52t38.5 53.5t42.5 49.5q51 54 115 83t143 29q65 0 117 -21.5t88.5 -59.5
t56 -91.5t19.5 -117.5q0 -79 -42.5 -151.5t-131.5 -126.5t-224.5 -86t-320.5 -32q-93 0 -176.5 6.5t-140.5 14.5z" />
    <glyph glyph-name="kcommaaccent" unicode="&#x137;" horiz-adv-x="2343" 
d="M1512 0l-422 944l-165 -179v-765h-686v3072h686v-1604q130 166 259.5 329.5t258.5 327.5h822l-666 -716l722 -1409h-809zM448 -543q103 0 173.5 11.5t118 30.5t77 44t50.5 52t38.5 53.5t42.5 49.5q51 54 115 83t143 29q65 0 117 -21.5t88.5 -59.5t56 -91.5t19.5 -117.5
q0 -79 -42.5 -151.5t-131.5 -126.5t-224.5 -86t-320.5 -32q-93 0 -176.5 6.5t-140.5 14.5z" />
    <glyph glyph-name="Lacute" unicode="&#x139;" horiz-adv-x="1921" 
d="M265 0v2859h724v-2288h884v-571h-1608zM691 3015l-159 315l835 349l211 -431z" />
    <glyph glyph-name="lacute" unicode="&#x13a;" horiz-adv-x="1249" 
d="M1199 0q-35 -10 -78 -20.5t-93.5 -19t-110 -14t-126.5 -5.5q-120 0 -221.5 26t-175 89.5t-114.5 170.5t-41 269v2576h686v-2397q0 -50 8 -86t26 -59.5t47.5 -34t72.5 -10.5h120v-485v0zM347 3220l-159 315l835 349l211 -431z" />
    <glyph glyph-name="Lcommaaccent" unicode="&#x13b;" horiz-adv-x="1921" 
d="M265 0v2859h724v-2288h884v-571h-1608zM329 -543q103 0 173.5 11.5t118 30.5t77 44t50.5 52t38.5 53.5t42.5 49.5q51 54 115 83t143 29q65 0 117 -21.5t88.5 -59.5t56 -91.5t19.5 -117.5q0 -79 -42.5 -151.5t-131.5 -126.5t-224.5 -86t-320.5 -32q-93 0 -176.5 6.5
t-140.5 14.5z" />
    <glyph glyph-name="lcommaaccent" unicode="&#x13c;" horiz-adv-x="1249" 
d="M1199 0q-35 -10 -78 -20.5t-93.5 -19t-110 -14t-126.5 -5.5q-120 0 -221.5 26t-175 89.5t-114.5 170.5t-41 269v2576h686v-2397q0 -50 8 -86t26 -59.5t47.5 -34t72.5 -10.5h120v-485v0zM39 -543q103 0 173.5 11.5t118 30.5t77 44t50.5 52t38.5 53.5t42.5 49.5
q51 54 115 83t143 29q65 0 117 -21.5t88.5 -59.5t56 -91.5t19.5 -117.5q0 -79 -42.5 -151.5t-131.5 -126.5t-224.5 -86t-320.5 -32q-93 0 -176.5 6.5t-140.5 14.5z" />
    <glyph glyph-name="Lcaron" unicode="&#x13d;" horiz-adv-x="1962" 
d="M265 0v2859h724v-2288h884v-571h-1608zM1657 2277l-395 54l217 882l508 -81z" />
    <glyph glyph-name="lcaron" unicode="&#x13e;" horiz-adv-x="1585" 
d="M1199 0q-35 -10 -78 -20.5t-93.5 -19t-110 -14t-126.5 -5.5q-120 0 -221.5 26t-175 89.5t-114.5 170.5t-41 269v2576h686v-2397q0 -50 8 -86t26 -59.5t47.5 -34t72.5 -10.5h120v-485v0zM1416 2277l-395 54l217 882l508 -81z" />
    <glyph glyph-name="Lslash" unicode="&#x141;" horiz-adv-x="1966" 
d="M309 0v1309l-202 -114l-93 484l295 163v1017h723v-640l398 219l94 -484l-492 -269v-1114h885v-571h-1608z" />
    <glyph glyph-name="lslash" unicode="&#x142;" horiz-adv-x="1309" 
d="M966 1868v-1193q0 -50 8 -86t26 -59.5t47.5 -34t72.5 -10.5h120v-485q-34 -10 -76.5 -20.5t-93.5 -19t-111 -14t-128 -5.5q-120 0 -221.5 26t-174.5 89.5t-114 170.5t-41 269v1020l-176 -100l-90 469l266 146v1041h686v-688l176 99l91 -469z" />
    <glyph glyph-name="Nacute" unicode="&#x143;" horiz-adv-x="3019" 
d="M1834 0l-934 1868h-8v-1868h-627v2859h932l921 -1846h8v1846h628v-2859h-920zM1347 3015l-159 315l835 349l211 -431z" />
    <glyph glyph-name="nacute" unicode="&#x144;" horiz-adv-x="2507" 
d="M1594 0v1206q0 105 -14 185t-45.5 134t-82.5 81t-126 27q-63 0 -113.5 -15t-97 -43.5t-92 -71t-98.5 -98.5v-1405h-686v2125h519l52 -228q78 76 155 131.5t160 92t176 53.5t205 17q132 0 241 -24.5t195 -73t149.5 -120.5t105.5 -165t62.5 -207.5t20.5 -248.5v-1352h-686z
M1368 2346l-332 203l526 670l482 -281z" />
    <glyph glyph-name="Ncommaaccent" unicode="&#x145;" horiz-adv-x="3019" 
d="M1834 0l-934 1868h-8v-1868h-627v2859h932l921 -1846h8v1846h628v-2859h-920zM775 -543q103 0 173.5 11.5t118 30.5t77 44t50.5 52t38.5 53.5t42.5 49.5q51 54 115 83t143 29q65 0 117 -21.5t88.5 -59.5t56 -91.5t19.5 -117.5q0 -79 -42.5 -151.5t-131.5 -126.5
t-224.5 -86t-320.5 -32q-93 0 -176.5 6.5t-140.5 14.5z" />
    <glyph glyph-name="ncommaaccent" unicode="&#x146;" horiz-adv-x="2507" 
d="M1594 0v1206q0 105 -14 185t-45.5 134t-82.5 81t-126 27q-63 0 -113.5 -15t-97 -43.5t-92 -71t-98.5 -98.5v-1405h-686v2125h519l52 -228q78 76 155 131.5t160 92t176 53.5t205 17q132 0 241 -24.5t195 -73t149.5 -120.5t105.5 -165t62.5 -207.5t20.5 -248.5v-1352h-686z
M513 -543q103 0 173.5 11.5t118 30.5t77 44t50.5 52t38.5 53.5t42.5 49.5q51 54 115 83t143 29q65 0 117 -21.5t88.5 -59.5t56 -91.5t19.5 -117.5q0 -79 -42.5 -151.5t-131.5 -126.5t-224.5 -86t-320.5 -32q-93 0 -176.5 6.5t-140.5 14.5z" />
    <glyph glyph-name="Ncaron" unicode="&#x147;" horiz-adv-x="3019" 
d="M1834 0l-934 1868h-8v-1868h-627v2859h932l921 -1846h8v1846h628v-2859h-920zM1538 3019l-678 343l143 312l537 -209l537 209l136 -308z" />
    <glyph glyph-name="ncaron" unicode="&#x148;" horiz-adv-x="2507" 
d="M1594 0v1206q0 105 -14 185t-45.5 134t-82.5 81t-126 27q-63 0 -113.5 -15t-97 -43.5t-92 -71t-98.5 -98.5v-1405h-686v2125h519l52 -228q78 76 155 131.5t160 92t176 53.5t205 17q132 0 241 -24.5t195 -73t149.5 -120.5t105.5 -165t62.5 -207.5t20.5 -248.5v-1352h-686z
M1284 2350l-694 583l229 295l468 -332l470 332l216 -292z" />
    <glyph glyph-name="Omacron" unicode="&#x14c;" horiz-adv-x="3158" 
d="M3008 1458q0 -242 -41 -448.5t-121.5 -376t-202 -299.5t-281.5 -219t-359.5 -134.5t-437.5 -45.5q-228 0 -422 36.5t-351.5 113t-277 195.5t-200.5 284.5t-122 378.5t-41 479q0 231 42 432.5t124.5 368.5t204.5 297t282 220t357 137t431 47q223 0 415.5 -38.5t349.5 -117
t278.5 -198t204.5 -282.5t125.5 -370t42.5 -460zM2251 1415q0 142 -14.5 265t-47 226t-85 183.5t-128.5 136t-177.5 85t-231.5 29.5q-128 0 -227 -32t-172 -90.5t-123 -139.5t-80 -178t-43.5 -208t-13.5 -228q0 -151 15 -280t48 -234t85.5 -185.5t128 -135.5t176.5 -82.5
t230 -27.5q126 0 224.5 31.5t172 89.5t124 139.5t81.5 181t44.5 214.5t13.5 240zM971 3138v438h1217v-438h-1217z" />
    <glyph glyph-name="omacron" unicode="&#x14d;" horiz-adv-x="2523" 
d="M2391 1083q0 -174 -33.5 -327t-99 -280.5t-163 -228t-225 -170t-286 -106.5t-345.5 -37q-191 0 -347.5 34.5t-279.5 99.5t-214 159.5t-150.5 215t-88.5 265.5t-29 311q0 182 33 339.5t98.5 288t162.5 232t224.5 171t286 105.5t346.5 36q279 0 487.5 -76.5t347 -219.5
t207 -348.5t68.5 -463.5zM1681 1040q0 106 -11.5 192.5t-34.5 155t-58 119t-83 83.5t-108.5 49t-134.5 16q-109 0 -187 -42.5t-127.5 -119t-72.5 -183t-23 -235.5q0 -107 11 -194t34 -154.5t58.5 -116t83.5 -80t109.5 -46.5t136.5 -15q72 0 130 19t103.5 55t78 86.5t54 114
t31.5 138t10 158.5zM651 2534v441h1217v-441h-1217z" />
    <glyph glyph-name="Ohungarumlaut" unicode="&#x150;" horiz-adv-x="3158" 
d="M3008 1458q0 -242 -41 -448.5t-121.5 -376t-202 -299.5t-281.5 -219t-359.5 -134.5t-437.5 -45.5q-228 0 -422 36.5t-351.5 113t-277 195.5t-200.5 284.5t-122 378.5t-41 479q0 231 42 432.5t124.5 368.5t204.5 297t282 220t357 137t431 47q223 0 415.5 -38.5t349.5 -117
t278.5 -198t204.5 -282.5t125.5 -370t42.5 -460zM2251 1415q0 142 -14.5 265t-47 226t-85 183.5t-128.5 136t-177.5 85t-231.5 29.5q-128 0 -227 -32t-172 -90.5t-123 -139.5t-80 -178t-43.5 -208t-13.5 -228q0 -151 15 -280t48 -234t85.5 -185.5t128 -135.5t176.5 -82.5
t230 -27.5q126 0 224.5 31.5t172 89.5t124 139.5t81.5 181t44.5 214.5t13.5 240zM2112 3023l-327 157l530 685l450 -256zM1264 3023l-317 157l485 707l441 -254z" />
    <glyph glyph-name="ohungarumlaut" unicode="&#x151;" horiz-adv-x="2523" 
d="M2391 1083q0 -174 -33.5 -327t-99 -280.5t-163 -228t-225 -170t-286 -106.5t-345.5 -37q-191 0 -347.5 34.5t-279.5 99.5t-214 159.5t-150.5 215t-88.5 265.5t-29 311q0 182 33 339.5t98.5 288t162.5 232t224.5 171t286 105.5t346.5 36q279 0 487.5 -76.5t347 -219.5
t207 -348.5t68.5 -463.5zM1681 1040q0 106 -11.5 192.5t-34.5 155t-58 119t-83 83.5t-108.5 49t-134.5 16q-109 0 -187 -42.5t-127.5 -119t-72.5 -183t-23 -235.5q0 -107 11 -194t34 -154.5t58.5 -116t83.5 -80t109.5 -46.5t136.5 -15q72 0 130 19t103.5 55t78 86.5t54 114
t31.5 138t10 158.5zM1807 2379l-327 157l516 680l454 -251zM957 2379l-318 157l478 705l450 -250z" />
    <glyph glyph-name="OE" unicode="&#x152;" horiz-adv-x="3929" 
d="M2031 0q-53 -11 -110.5 -22.5t-116.5 -20.5t-119.5 -15t-120.5 -6q-227 0 -420.5 36t-350.5 112t-277 194t-201 283.5t-122.5 379t-41.5 481.5q0 231 41.5 432.5t124 368t204.5 297t282.5 220t358 136.5t431.5 47q63 0 127 -5t126.5 -13.5t121.5 -20.5t114 -25h1629v-551
h-1050v-563h896v-542h-896v-652h1064v-551h-1694zM1943 2247q-71 43 -164.5 68t-210.5 25q-129 0 -228 -32t-172 -90.5t-123 -139.5t-80 -178t-43.5 -208t-13.5 -228q0 -152 15 -281t48 -234t86 -185.5t129 -135t177 -82t230 -27.5q56 0 106 7.5t93.5 20.5t81.5 30t69 36
v1634z" />
    <glyph glyph-name="oe" unicode="&#x153;" horiz-adv-x="3873" 
d="M3717 1167q0 -24 -0.5 -57.5t-2 -71.5t-3 -77.5t-4.5 -76.5h-1340q0 -102 27 -180.5t86.5 -132.5t153.5 -82t228 -28q86 0 177.5 6t183 17t183 27t178.5 37l58 -491q-101 -30 -206.5 -52.5t-215 -38t-224.5 -24t-235 -8.5q-129 0 -240.5 16t-207.5 50t-176 87.5
t-146 128.5q-68 -72 -149.5 -124.5t-176.5 -87.5t-202 -52.5t-224 -17.5q-191 0 -347.5 34.5t-279.5 99.5t-214 159.5t-150.5 215t-88.5 265.5t-29 311q0 182 33 339.5t98.5 288t162.5 232t224.5 171t286 105.5t346.5 36q122 0 231 -17t204 -51.5t175.5 -88.5t147.5 -126
q62 71 138 124t166 88.5t193 53t220 17.5q169 0 305.5 -29t243.5 -86.5t185 -143.5t128.5 -200t74.5 -255.5t24 -309.5zM3047 1303q4 95 -12 173t-55 133t-103 85t-156 30q-61 0 -110 -15.5t-87.5 -43.5t-67.5 -66.5t-48 -85.5t-29 -100t-12 -110h680zM1681 1041
q0 106 -11.5 192.5t-34.5 155t-58 118.5t-83 83t-108.5 49t-134.5 16q-109 0 -187 -42.5t-127.5 -119t-72.5 -183t-23 -235.5q0 -107 11 -194t34 -154.5t58.5 -116t83.5 -80t109.5 -46.5t136.5 -15q72 0 130 19t103.5 55t78 86.5t54 114t31.5 138.5t10 159z" />
    <glyph glyph-name="Racute" unicode="&#x154;" horiz-adv-x="2601" 
d="M1714 0l-522 1096h-206v-1096h-721v2859h1081q151 0 287.5 -20t253 -62t210 -106t159.5 -152.5t101.5 -202t35.5 -253.5q0 -103 -16 -193t-46.5 -167t-75 -141.5t-101 -117t-124.5 -92.5t-147 -68l660 -1284h-829zM1636 1993q0 44 -8.5 85.5t-27 77.5t-47.5 66t-69 50.5
t-92.5 32.5t-117.5 12h-288v-697h209q110 0 192.5 27t138 75.5t83 117.5t27.5 153zM1117 3015l-159 315l835 349l211 -431z" />
    <glyph glyph-name="racute" unicode="&#x155;" horiz-adv-x="1618" 
d="M1516 1514q-15 5 -41.5 10t-56.5 9t-60.5 6.5t-54.5 2.5q-31 0 -60.5 -9t-59.5 -25.5t-61.5 -41t-63 -57t-65 -73t-68.5 -87.5v-1249h-686v2125h532l62 -308q67 97 126 168t119.5 117t128 67.5t153.5 21.5q39 0 71.5 -1.5t59.5 -4t49 -7t42 -10.5zM910 2346l-332 203
l526 670l482 -281z" />
    <glyph glyph-name="Rcommaaccent" unicode="&#x156;" horiz-adv-x="2601" 
d="M1714 0l-522 1096h-206v-1096h-721v2859h1081q151 0 287.5 -20t253 -62t210 -106t159.5 -152.5t101.5 -202t35.5 -253.5q0 -103 -16 -193t-46.5 -167t-75 -141.5t-101 -117t-124.5 -92.5t-147 -68l660 -1284h-829zM1636 1993q0 44 -8.5 85.5t-27 77.5t-47.5 66t-69 50.5
t-92.5 32.5t-117.5 12h-288v-697h209q110 0 192.5 27t138 75.5t83 117.5t27.5 153zM570 -543q103 0 173.5 11.5t118 30.5t77 44t50.5 52t38.5 53.5t42.5 49.5q51 54 115 83t143 29q65 0 117 -21.5t88.5 -59.5t56 -91.5t19.5 -117.5q0 -79 -42.5 -151.5t-131.5 -126.5
t-224.5 -86t-320.5 -32q-93 0 -176.5 6.5t-140.5 14.5z" />
    <glyph glyph-name="rcommaaccent" unicode="&#x157;" horiz-adv-x="1618" 
d="M1516 1514q-15 5 -41.5 10t-56.5 9t-60.5 6.5t-54.5 2.5q-31 0 -60.5 -9t-59.5 -25.5t-61.5 -41t-63 -57t-65 -73t-68.5 -87.5v-1249h-686v2125h532l62 -308q67 97 126 168t119.5 117t128 67.5t153.5 21.5q39 0 71.5 -1.5t59.5 -4t49 -7t42 -10.5zM-129 -543
q103 0 173.5 11.5t118 30.5t77 44t50.5 52t38.5 53.5t42.5 49.5q51 54 115 83t143 29q65 0 117 -21.5t88.5 -59.5t56 -91.5t19.5 -117.5q0 -79 -42.5 -151.5t-131.5 -126.5t-224.5 -86t-320.5 -32q-93 0 -176.5 6.5t-140.5 14.5z" />
    <glyph glyph-name="Rcaron" unicode="&#x158;" horiz-adv-x="2601" 
d="M1714 0l-522 1096h-206v-1096h-721v2859h1081q151 0 287.5 -20t253 -62t210 -106t159.5 -152.5t101.5 -202t35.5 -253.5q0 -103 -16 -193t-46.5 -167t-75 -141.5t-101 -117t-124.5 -92.5t-147 -68l660 -1284h-829zM1636 1993q0 44 -8.5 85.5t-27 77.5t-47.5 66t-69 50.5
t-92.5 32.5t-117.5 12h-288v-697h209q110 0 192.5 27t138 75.5t83 117.5t27.5 153zM1260 3019l-678 343l143 312l537 -209l537 209l136 -308z" />
    <glyph glyph-name="rcaron" unicode="&#x159;" horiz-adv-x="1618" 
d="M1516 1514q-15 5 -41.5 10t-56.5 9t-60.5 6.5t-54.5 2.5q-31 0 -60.5 -9t-59.5 -25.5t-61.5 -41t-63 -57t-65 -73t-68.5 -87.5v-1249h-686v2125h532l62 -308q67 97 126 168t119.5 117t128 67.5t153.5 21.5q39 0 71.5 -1.5t59.5 -4t49 -7t42 -10.5zM903 2350l-694 583
l229 295l468 -332l470 332l216 -292z" />
    <glyph glyph-name="Sacute" unicode="&#x15a;" horiz-adv-x="2232" 
d="M2108 916q0 -170 -41.5 -309.5t-118 -248t-183 -188.5t-237.5 -132t-282.5 -77.5t-316.5 -25.5q-76 0 -143.5 3t-129.5 9t-121 15t-119 21.5t-123 28t-134 35.5l73 576q75 -26 154.5 -46.5t161 -35.5t166 -22.5t167.5 -7.5q130 0 219.5 20t144.5 57.5t79.5 93t24.5 126.5
q0 48 -11.5 86.5t-36 70.5t-63 60t-91.5 54t-122.5 53t-155.5 57q-109 39 -204 84t-173.5 100t-140 121.5t-104 148.5t-64 180.5t-21.5 218.5q0 147 38 270t108 220.5t167.5 171t216 122.5t254 73.5t282.5 24.5q99 0 193 -7.5t182.5 -21.5t172.5 -35.5t163 -50.5l-97 -546
q-66 24 -137.5 44t-146.5 33.5t-152.5 21.5t-153.5 8q-77 0 -138 -15t-103 -45t-65 -74t-23 -104q0 -48 11.5 -86t33 -69.5t54 -57.5t74.5 -49t93.5 -44.5t111.5 -43.5q96 -35 194 -72.5t187.5 -85.5t167 -110.5t135 -147t90.5 -195.5t33 -255zM909 3015l-159 315l835 349
l211 -431z" />
    <glyph glyph-name="sacute" unicode="&#x15b;" horiz-adv-x="1827" 
d="M1715 678q0 -164 -61.5 -300.5t-175.5 -235t-284 -153.5t-387 -55q-81 0 -165 5t-169 15t-170.5 24.5t-169.5 33.5l93 529q64 -21 130 -37.5t132.5 -29t132.5 -21.5t129 -9t110 10.5t78.5 31t47.5 51t16 69.5q0 38 -15.5 68.5t-50 57t-90.5 50.5t-137 49
q-140 45 -247 97.5t-180 127.5t-110.5 178.5t-37.5 247.5q0 107 26 201t77 173t126.5 141t173.5 105.5t218.5 66t261.5 22.5q78 0 155 -5.5t151.5 -15t145 -22t133.5 -26.5l-76 -508q-53 16 -111.5 30t-118 24t-117 16t-109.5 6q-68 0 -113 -13.5t-71.5 -35.5t-37 -50
t-10.5 -57q0 -35 15 -62t49.5 -50t91 -45t139.5 -48q110 -33 193 -69.5t148 -80.5t111 -95.5t75 -113.5t42 -134t13 -158zM877 2346l-332 203l526 670l482 -281z" />
    <glyph glyph-name="Scedilla" unicode="&#x15e;" horiz-adv-x="2232" 
d="M885 -66h-21q-94 2 -176 8.5t-164 19.5t-170 33.5t-194 49.5l73 573q149 -52 314.5 -81t333.5 -29q132 0 221.5 20t144 58.5t78 94t23.5 126.5q0 72 -26.5 124t-84.5 94t-149 80t-220 83q-164 58 -295.5 131.5t-223 175t-140.5 235.5t-49 314q0 147 38.5 269t108.5 220
t168 171.5t216.5 122.5t254.5 73.5t283 24.5q198 0 375 -28t338 -87l-99 -541q-133 47 -285.5 77t-304.5 30q-157 0 -244 -62.5t-87 -179.5q0 -72 25.5 -123.5t74 -91t119.5 -71.5t162 -66q96 -35 193.5 -72.5t187 -85.5t167 -110t135 -146.5t90.5 -195t33 -254.5
q0 -201 -56.5 -358t-157.5 -272.5t-240 -191.5t-303 -116l65 -123q34 -59 56.5 -101.5t36.5 -79t20 -71t6 -76.5q0 -92 -37.5 -157.5t-103.5 -107t-156 -60.5t-195 -19q-60 0 -123.5 6t-126 17t-120 27t-105.5 36v369h344q41 0 61.5 5.5t20.5 26.5q0 24 -24 74z" />
    <glyph glyph-name="Scedilla" unicode="&#xf6c1;" horiz-adv-x="2232" 
d="M885 -66h-21q-94 2 -176 8.5t-164 19.5t-170 33.5t-194 49.5l73 573q149 -52 314.5 -81t333.5 -29q132 0 221.5 20t144 58.5t78 94t23.5 126.5q0 72 -26.5 124t-84.5 94t-149 80t-220 83q-164 58 -295.5 131.5t-223 175t-140.5 235.5t-49 314q0 147 38.5 269t108.5 220
t168 171.5t216.5 122.5t254.5 73.5t283 24.5q198 0 375 -28t338 -87l-99 -541q-133 47 -285.5 77t-304.5 30q-157 0 -244 -62.5t-87 -179.5q0 -72 25.5 -123.5t74 -91t119.5 -71.5t162 -66q96 -35 193.5 -72.5t187 -85.5t167 -110t135 -146.5t90.5 -195t33 -254.5
q0 -201 -56.5 -358t-157.5 -272.5t-240 -191.5t-303 -116l65 -123q34 -59 56.5 -101.5t36.5 -79t20 -71t6 -76.5q0 -92 -37.5 -157.5t-103.5 -107t-156 -60.5t-195 -19q-60 0 -123.5 6t-126 17t-120 27t-105.5 36v369h344q41 0 61.5 5.5t20.5 26.5q0 24 -24 74z" />
    <glyph glyph-name="scedilla" unicode="&#x15f;" horiz-adv-x="1827" 
d="M225 541q130 -44 265 -69.5t268 -25.5q66 0 112 11t74.5 31.5t41.5 49.5t13 64q0 55 -37 91.5t-98 64.5t-138.5 53.5t-158.5 59t-158.5 80.5t-138.5 118t-98 172t-37 242q0 160 60 290.5t174 223.5t279.5 143.5t375.5 50.5q139 0 285.5 -17t292.5 -48l-74 -508
q-54 15 -112 28.5t-116 23.5t-114 16t-105 6q-66 0 -111.5 -11.5t-73 -32t-40 -48.5t-12.5 -60q0 -44 24.5 -75.5t66.5 -56t98 -45t119 -42t130 -47t130 -61t119 -84t98 -115t66.5 -154t24.5 -201.5q0 -141 -45 -256.5t-124 -202.5t-187 -145t-234 -84l70 -114
q37 -59 59.5 -104.5t35 -84t16.5 -72t4 -67.5q0 -92 -37.5 -157.5t-103.5 -107t-156 -60.5t-195 -19q-58 0 -121.5 6t-126 17t-120 27t-103.5 36v369h340q40 0 61 5.5t21 26.5q0 13 -5.5 31t-14.5 43l-90 193q-75 4 -140 10.5t-127.5 15t-126 20.5t-135.5 27z" />
    <glyph glyph-name="scedilla" unicode="&#xf6c2;" horiz-adv-x="1827" 
d="M225 541q130 -44 265 -69.5t268 -25.5q66 0 112 11t74.5 31.5t41.5 49.5t13 64q0 55 -37 91.5t-98 64.5t-138.5 53.5t-158.5 59t-158.5 80.5t-138.5 118t-98 172t-37 242q0 160 60 290.5t174 223.5t279.5 143.5t375.5 50.5q139 0 285.5 -17t292.5 -48l-74 -508
q-54 15 -112 28.5t-116 23.5t-114 16t-105 6q-66 0 -111.5 -11.5t-73 -32t-40 -48.5t-12.5 -60q0 -44 24.5 -75.5t66.5 -56t98 -45t119 -42t130 -47t130 -61t119 -84t98 -115t66.5 -154t24.5 -201.5q0 -141 -45 -256.5t-124 -202.5t-187 -145t-234 -84l70 -114
q37 -59 59.5 -104.5t35 -84t16.5 -72t4 -67.5q0 -92 -37.5 -157.5t-103.5 -107t-156 -60.5t-195 -19q-58 0 -121.5 6t-126 17t-120 27t-103.5 36v369h340q40 0 61 5.5t21 26.5q0 13 -5.5 31t-14.5 43l-90 193q-75 4 -140 10.5t-127.5 15t-126 20.5t-135.5 27z" />
    <glyph glyph-name="Scaron" unicode="&#x160;" horiz-adv-x="2232" 
d="M2108 916q0 -170 -41.5 -309.5t-118 -248t-183 -188.5t-237.5 -132t-282.5 -77.5t-316.5 -25.5q-76 0 -143.5 3t-129.5 9t-121 15t-119 21.5t-123 28t-134 35.5l73 576q75 -26 154.5 -46.5t161 -35.5t166 -22.5t167.5 -7.5q130 0 219.5 20t144.5 57.5t79.5 93t24.5 126.5
q0 48 -11.5 86.5t-36 70.5t-63 60t-91.5 54t-122.5 53t-155.5 57q-109 39 -204 84t-173.5 100t-140 121.5t-104 148.5t-64 180.5t-21.5 218.5q0 147 38 270t108 220.5t167.5 171t216 122.5t254 73.5t282.5 24.5q99 0 193 -7.5t182.5 -21.5t172.5 -35.5t163 -50.5l-97 -546
q-66 24 -137.5 44t-146.5 33.5t-152.5 21.5t-153.5 8q-77 0 -138 -15t-103 -45t-65 -74t-23 -104q0 -48 11.5 -86t33 -69.5t54 -57.5t74.5 -49t93.5 -44.5t111.5 -43.5q96 -35 194 -72.5t187.5 -85.5t167 -110.5t135 -147t90.5 -195.5t33 -255zM1124 3019l-678 343l143 312
l537 -209l537 209l136 -308z" />
    <glyph glyph-name="scaron" unicode="&#x161;" horiz-adv-x="1827" 
d="M1715 678q0 -164 -61.5 -300.5t-175.5 -235t-284 -153.5t-387 -55q-81 0 -165 5t-169 15t-170.5 24.5t-169.5 33.5l93 529q64 -21 130 -37.5t132.5 -29t132.5 -21.5t129 -9t110 10.5t78.5 31t47.5 51t16 69.5q0 38 -15.5 68.5t-50 57t-90.5 50.5t-137 49
q-140 45 -247 97.5t-180 127.5t-110.5 178.5t-37.5 247.5q0 107 26 201t77 173t126.5 141t173.5 105.5t218.5 66t261.5 22.5q78 0 155 -5.5t151.5 -15t145 -22t133.5 -26.5l-76 -508q-53 16 -111.5 30t-118 24t-117 16t-109.5 6q-68 0 -113 -13.5t-71.5 -35.5t-37 -50
t-10.5 -57q0 -35 15 -62t49.5 -50t91 -45t139.5 -48q110 -33 193 -69.5t148 -80.5t111 -95.5t75 -113.5t42 -134t13 -158zM907 2350l-694 583l229 295l468 -332l470 332l216 -292z" />
    <glyph glyph-name="uni0162" unicode="&#x162;" horiz-adv-x="2265" 
d="M1494 2282v-2282h-724v2282h-731v577h2186v-577h-731zM366 -543q103 0 173.5 11.5t118 30.5t77 44t50.5 52t38.5 53.5t42.5 49.5q51 54 115 83t143 29q65 0 117 -21.5t88.5 -59.5t56 -91.5t19.5 -117.5q0 -79 -42.5 -151.5t-131.5 -126.5t-224.5 -86t-320.5 -32
q-93 0 -176.5 6.5t-140.5 14.5z" />
    <glyph glyph-name="uni0163" unicode="&#x163;" horiz-adv-x="1581" 
d="M1444 1q-40 -14 -97 -25t-123 -19.5t-136.5 -12.5t-139.5 -4q-90 0 -170.5 14t-148 45t-121.5 80t-91.5 119.5t-57.5 163t-20 211.5v1035h-280v517h278l162 611h526v-611h419v-517h-419v-780q0 -68 5 -119.5t16 -90t30 -64.5t47.5 -42t68 -23t91.5 -7h161v-481v0z
M174 -543q103 0 173.5 11.5t118 30.5t77 44t50.5 52t38.5 53.5t42.5 49.5q51 54 115 83t143 29q65 0 117 -21.5t88.5 -59.5t56 -91.5t19.5 -117.5q0 -79 -42.5 -151.5t-131.5 -126.5t-224.5 -86t-320.5 -32q-93 0 -176.5 6.5t-140.5 14.5z" />
    <glyph glyph-name="Tcaron" unicode="&#x164;" horiz-adv-x="2265" 
d="M1494 2282v-2282h-724v2282h-731v577h2186v-577h-731zM1133 3019l-678 343l143 312l537 -209l537 209l136 -308z" />
    <glyph glyph-name="tcaron" unicode="&#x165;" horiz-adv-x="1794" 
d="M1444 1q-40 -14 -97 -25t-123 -19.5t-136.5 -12.5t-139.5 -4q-90 0 -170.5 14t-148 45t-121.5 80t-91.5 119.5t-57.5 163t-20 211.5v1035h-280v517h278l162 611h526v-611h419v-517h-419v-780q0 -68 5 -119.5t16 -90t30 -64.5t47.5 -42t68 -23t91.5 -7h161v-481v0z
M1588 2277l-395 54l217 882l508 -81z" />
    <glyph glyph-name="Umacron" unicode="&#x16a;" horiz-adv-x="2986" 
d="M2723 1075q0 -265 -78.5 -476t-233.5 -358t-387 -226t-539 -79q-295 0 -523 68.5t-383.5 207t-235.5 347.5t-80 490v1810h720v-1760q0 -99 17.5 -180.5t50 -145.5t79 -112.5t104.5 -80t126.5 -47t145.5 -15.5q118 0 212.5 38t160 109t101 172t35.5 226v1796h708v-1784v0z
M885 3138v438h1217v-438h-1217z" />
    <glyph glyph-name="umacron" unicode="&#x16b;" horiz-adv-x="2507" 
d="M1746 0l-50 228q-79 -76 -156 -131.5t-159.5 -91.5t-175.5 -53.5t-205 -17.5q-132 0 -241.5 25t-195.5 73.5t-149.5 120t-105.5 165t-62.5 207.5t-20.5 248v1352h686v-1206q0 -69 6.5 -128t19.5 -106.5t34 -83.5t50 -60t68.5 -36.5t89.5 -12.5q63 0 114 15t97 44t92 71.5
t98 97.5v1405h684v-2125h-518zM672 2534v441h1217v-441h-1217z" />
    <glyph glyph-name="Uring" unicode="&#x16e;" horiz-adv-x="2986" 
d="M2723 1075q0 -265 -78.5 -476t-233.5 -358t-387 -226t-539 -79q-295 0 -523 68.5t-383.5 207t-235.5 347.5t-80 490v1810h720v-1760q0 -99 17.5 -180.5t50 -145.5t79 -112.5t104.5 -80t126.5 -47t145.5 -15.5q118 0 212.5 38t160 109t101 172t35.5 226v1796h708v-1784v0z
M2042 3502q0 -111 -35.5 -199t-106.5 -149t-175.5 -94t-241.5 -33q-138 0 -239 31t-167.5 88.5t-98.5 141.5t-32 188q0 117 36 206.5t106 151.5t174 94.5t240 32.5t237.5 -30.5t169 -89t100.5 -143.5t33 -196zM1665 3486q0 56 -11 97.5t-33 67t-55.5 37.5t-77.5 12
t-75.5 -15t-51 -41t-28.5 -63.5t-9 -81.5q0 -58 10.5 -98t32 -65t54 -36t77.5 -11t76.5 14.5t52 40t29.5 62t9 80.5z" />
    <glyph glyph-name="uring" unicode="&#x16f;" horiz-adv-x="2507" 
d="M1746 0l-50 228q-79 -76 -156 -131.5t-159.5 -91.5t-175.5 -53.5t-205 -17.5q-132 0 -241.5 25t-195.5 73.5t-149.5 120t-105.5 165t-62.5 207.5t-20.5 248v1352h686v-1206q0 -69 6.5 -128t19.5 -106.5t34 -83.5t50 -60t68.5 -36.5t89.5 -12.5q63 0 114 15t97 44t92 71.5
t98 97.5v1405h684v-2125h-518zM1825 2857q0 -109 -35.5 -197t-106.5 -149.5t-175.5 -94.5t-241.5 -33q-138 0 -239 30.5t-167.5 88.5t-98.5 141.5t-32 188.5q0 114 36 203.5t106 152t174 95t240 32.5t237.5 -31t169 -89.5t100.5 -143.5t33 -194zM1448 2841q0 57 -11 97.5
t-33 66t-55.5 37t-77.5 11.5t-75.5 -14.5t-51 -41t-28.5 -63t-9 -79.5q0 -58 10.5 -98t32 -65t54 -36.5t77.5 -11.5t76.5 15t52 40.5t29.5 62t9 79.5z" />
    <glyph glyph-name="Uhungarumlaut" unicode="&#x170;" horiz-adv-x="2986" 
d="M2723 1075q0 -265 -78.5 -476t-233.5 -358t-387 -226t-539 -79q-295 0 -523 68.5t-383.5 207t-235.5 347.5t-80 490v1810h720v-1760q0 -99 17.5 -180.5t50 -145.5t79 -112.5t104.5 -80t126.5 -47t145.5 -15.5q118 0 212.5 38t160 109t101 172t35.5 226v1796h708v-1784v0z
M1969 3023l-327 157l530 685l450 -256zM1121 3023l-317 157l485 707l441 -254z" />
    <glyph glyph-name="uhungarumlaut" unicode="&#x171;" horiz-adv-x="2507" 
d="M1746 0l-50 228q-79 -76 -156 -131.5t-159.5 -91.5t-175.5 -53.5t-205 -17.5q-132 0 -241.5 25t-195.5 73.5t-149.5 120t-105.5 165t-62.5 207.5t-20.5 248v1352h686v-1206q0 -69 6.5 -128t19.5 -106.5t34 -83.5t50 -60t68.5 -36.5t89.5 -12.5q63 0 114 15t97 44t92 71.5
t98 97.5v1405h684v-2125h-518zM1778 2379l-327 157l516 680l454 -251zM928 2379l-318 157l478 705l450 -250z" />
    <glyph glyph-name="Uogonek" unicode="&#x172;" horiz-adv-x="2988" 
d="M2723 1075q0 -127 -18 -242.5t-54.5 -218.5t-92 -192.5t-130.5 -164.5q-30 -29 -58.5 -54.5t-56.5 -48.5t-55.5 -44.5t-53.5 -42.5t-50.5 -43t-47.5 -44q-57 -57 -95.5 -103.5t-61.5 -86.5t-33 -74t-10 -66q0 -31 8.5 -55t25.5 -40t42 -23.5t59 -7.5q23 0 48.5 3t52 8
t53.5 12.5t53 17.5l75 -350q-47 -18 -102.5 -33.5t-114.5 -26.5t-121 -17t-122 -6q-150 0 -260 23.5t-182 71t-107 119t-35 167.5q0 58 16.5 115t48.5 112t78.5 105.5t106.5 95.5q-5 -1 -10.5 -2t-11.5 -1.5l-12 -1t-10 -0.5q-295 0 -523 68.5t-383.5 207t-235.5 347.5
t-80 490v1810h720v-1760q0 -99 17.5 -180.5t50 -145.5t79 -112.5t104.5 -80t126.5 -47t145.5 -15.5q118 0 212.5 38t160 109t101 172t35.5 226v1796h708v-1784z" />
    <glyph glyph-name="uogonek" unicode="&#x173;" horiz-adv-x="2508" 
d="M2264 0q-56 -45 -99.5 -90.5t-74.5 -90.5t-47 -87.5t-16 -81.5q0 -31 8.5 -55t25 -40t41 -23.5t55.5 -7.5q23 0 44.5 2.5t43.5 7t44.5 12l49.5 16.5l75 -349q-48 -19 -99 -34t-106 -25.5t-112 -16t-117 -5.5q-148 0 -253.5 26t-173.5 75.5t-99.5 120.5t-31.5 162
q0 61 22 126t63 128t100.5 121.5t133.5 108.5l-45 228q-79 -76 -156 -131.5t-159.5 -91.5t-175.5 -53.5t-205 -17.5q-132 0 -241.5 25t-195.5 73.5t-149.5 120t-105.5 165t-62.5 207.5t-20.5 248v1352h686v-1206q0 -69 6.5 -128t19.5 -106.5t34 -83.5t50 -60t68.5 -36.5
t89.5 -12.5q63 0 114 15t97 44t92 71.5t98 97.5v1405h684v-2125z" />
    <glyph glyph-name="Ydieresis" unicode="&#x178;" horiz-adv-x="2507" 
d="M2494 2859q-57 -159 -119 -314t-129.5 -306t-140 -298.5t-150 -290.5t-161 -281.5t-172.5 -273.5v-1095h-724v1095q-132 207 -252.5 421.5t-231 435t-210.5 447.5t-191 460h819q32 -101 65 -197.5t67.5 -189t71.5 -182.5t77.5 -180t84.5 -181t94 -185q46 86 89 173.5
t82 177.5t76 182.5t70 187.5t63.5 193.5t58.5 200.5h763v0zM2034 3324q0 -68 -22 -123.5t-62 -96t-96.5 -62t-125.5 -21.5q-68 0 -124 21.5t-95.5 62t-61.5 96t-22 123.5t22 124.5t61.5 96t95.5 61.5t124 22q69 0 125.5 -22t96.5 -61.5t62 -96t22 -124.5zM1129 3324
q0 -68 -21.5 -123.5t-62 -96t-96.5 -62t-126 -21.5q-69 0 -125 21.5t-95.5 62t-61 96t-21.5 123.5t21.5 124.5t61 96t95.5 61.5t125 22q70 0 126 -22t96.5 -61.5t62 -96t21.5 -124.5z" />
    <glyph glyph-name="Zacute" unicode="&#x179;" horiz-adv-x="2191" 
d="M101 0v542l1111 1758h-1055v559h1879v-540l-1093 -1762h1124v-557h-1966zM1023 3015l-159 315l835 349l211 -431z" />
    <glyph glyph-name="zacute" unicode="&#x17a;" horiz-adv-x="1954" 
d="M141 0v506l809 1076h-758v543h1586v-513l-800 -1068h853v-544h-1690zM1008 2346l-332 203l526 670l482 -281z" />
    <glyph glyph-name="Zdotaccent" unicode="&#x17b;" horiz-adv-x="2191" 
d="M101 0v542l1111 1758h-1055v559h1879v-540l-1093 -1762h1124v-557h-1966zM1468 3392q0 -78 -27 -141t-75.5 -111t-116 -72t-153.5 -24q-82 0 -149.5 24t-119 72t-79.5 111t-28 141t28 140.5t79.5 111t119 73t149.5 24.5q86 0 153.5 -24.5t116 -73t75.5 -111t27 -140.5z
" />
    <glyph glyph-name="zdotaccent" unicode="&#x17c;" horiz-adv-x="1954" 
d="M141 0v506l809 1076h-758v543h1586v-513l-800 -1068h853v-544h-1690zM1381 2721q0 -87 -29 -158t-81 -121t-125 -77.5t-161 -27.5t-161.5 27.5t-125.5 77.5t-80.5 121t-28.5 158q0 88 28.5 158.5t80.5 121t125.5 78t161.5 27.5t161 -27.5t125 -78t81 -121t29 -158.5z" />
    <glyph glyph-name="Zcaron" unicode="&#x17d;" horiz-adv-x="2191" 
d="M101 0v542l1111 1758h-1055v559h1879v-540l-1093 -1762h1124v-557h-1966zM1100 3019l-678 343l143 312l537 -209l537 209l136 -308z" />
    <glyph glyph-name="zcaron" unicode="&#x17e;" horiz-adv-x="1954" 
d="M141 0v506l809 1076h-758v543h1586v-513l-800 -1068h853v-544h-1690zM989 2350l-694 583l229 295l468 -332l470 332l216 -292z" />
    <glyph glyph-name="florin" unicode="&#x192;" 
d="M2020 2391h-198q-67 0 -118.5 -11t-88.5 -33.5t-62.5 -55.5t-42 -78.5t-26.5 -102t-16 -124.5l-30 -313h499v-517h-546l-66 -707q-11 -130 -34.5 -251t-65 -227t-104.5 -193t-154.5 -149t-216 -96.5t-286.5 -34.5q-51 0 -98 3t-95 8.5t-98 13.5t-107 18l46 477h181
q67 0 118.5 10.5t89 33t63 55.5t42 77.5t26.5 101t15 125.5l69 735h-414v517h461l28 290q12 130 36 251t65 226t103.5 191.5t151.5 148t209.5 96t279.5 34.5q52 0 102 -3t102 -8.5t107.5 -13.5t119.5 -18z" />
    <glyph glyph-name="Scommaaccent" unicode="&#x218;" horiz-adv-x="2232" 
d="M2108 916q0 -170 -41.5 -309.5t-118 -248t-183 -188.5t-237.5 -132t-282.5 -77.5t-316.5 -25.5q-76 0 -143.5 3t-129.5 9t-121 15t-119 21.5t-123 28t-134 35.5l73 576q75 -26 154.5 -46.5t161 -35.5t166 -22.5t167.5 -7.5q130 0 219.5 20t144.5 57.5t79.5 93t24.5 126.5
q0 48 -11.5 86.5t-36 70.5t-63 60t-91.5 54t-122.5 53t-155.5 57q-109 39 -204 84t-173.5 100t-140 121.5t-104 148.5t-64 180.5t-21.5 218.5q0 147 38 270t108 220.5t167.5 171t216 122.5t254 73.5t282.5 24.5q99 0 193 -7.5t182.5 -21.5t172.5 -35.5t163 -50.5l-97 -546
q-66 24 -137.5 44t-146.5 33.5t-152.5 21.5t-153.5 8q-77 0 -138 -15t-103 -45t-65 -74t-23 -104q0 -48 11.5 -86t33 -69.5t54 -57.5t74.5 -49t93.5 -44.5t111.5 -43.5q96 -35 194 -72.5t187.5 -85.5t167 -110.5t135 -147t90.5 -195.5t33 -255zM345 -543q103 0 173.5 11.5
t118 30.5t77 44t50.5 52t38.5 53.5t42.5 49.5q51 54 115 83t143 29q65 0 117 -21.5t88.5 -59.5t56 -91.5t19.5 -117.5q0 -79 -42.5 -151.5t-131.5 -126.5t-224.5 -86t-320.5 -32q-93 0 -176.5 6.5t-140.5 14.5z" />
    <glyph glyph-name="scommaaccent" unicode="&#x219;" horiz-adv-x="1827" 
d="M1715 678q0 -164 -61.5 -300.5t-175.5 -235t-284 -153.5t-387 -55q-81 0 -165 5t-169 15t-170.5 24.5t-169.5 33.5l93 529q64 -21 130 -37.5t132.5 -29t132.5 -21.5t129 -9t110 10.5t78.5 31t47.5 51t16 69.5q0 38 -15.5 68.5t-50 57t-90.5 50.5t-137 49
q-140 45 -247 97.5t-180 127.5t-110.5 178.5t-37.5 247.5q0 107 26 201t77 173t126.5 141t173.5 105.5t218.5 66t261.5 22.5q78 0 155 -5.5t151.5 -15t145 -22t133.5 -26.5l-76 -508q-53 16 -111.5 30t-118 24t-117 16t-109.5 6q-68 0 -113 -13.5t-71.5 -35.5t-37 -50
t-10.5 -57q0 -35 15 -62t49.5 -50t91 -45t139.5 -48q110 -33 193 -69.5t148 -80.5t111 -95.5t75 -113.5t42 -134t13 -158zM195 -543q103 0 173.5 11.5t118 30.5t77 44t50.5 52t38.5 53.5t42.5 49.5q51 54 115 83t143 29q65 0 117 -21.5t88.5 -59.5t56 -91.5t19.5 -117.5
q0 -79 -42.5 -151.5t-131.5 -126.5t-224.5 -86t-320.5 -32q-93 0 -176.5 6.5t-140.5 14.5z" />
    <glyph glyph-name="Tcommaaccent" unicode="&#x21a;" horiz-adv-x="2265" 
d="M1494 2282v-2282h-724v2282h-731v577h2186v-577h-731zM366 -543q103 0 173.5 11.5t118 30.5t77 44t50.5 52t38.5 53.5t42.5 49.5q51 54 115 83t143 29q65 0 117 -21.5t88.5 -59.5t56 -91.5t19.5 -117.5q0 -79 -42.5 -151.5t-131.5 -126.5t-224.5 -86t-320.5 -32
q-93 0 -176.5 6.5t-140.5 14.5z" />
    <glyph glyph-name="tcommaaccent" unicode="&#x21b;" horiz-adv-x="1581" 
d="M1444 1q-40 -14 -97 -25t-123 -19.5t-136.5 -12.5t-139.5 -4q-90 0 -170.5 14t-148 45t-121.5 80t-91.5 119.5t-57.5 163t-20 211.5v1035h-280v517h278l162 611h526v-611h419v-517h-419v-780q0 -68 5 -119.5t16 -90t30 -64.5t47.5 -42t68 -23t91.5 -7h161v-481v0z
M174 -543q103 0 173.5 11.5t118 30.5t77 44t50.5 52t38.5 53.5t42.5 49.5q51 54 115 83t143 29q65 0 117 -21.5t88.5 -59.5t56 -91.5t19.5 -117.5q0 -79 -42.5 -151.5t-131.5 -126.5t-224.5 -86t-320.5 -32q-93 0 -176.5 6.5t-140.5 14.5z" />
    <glyph glyph-name="apostrophe" unicode="&#x2bc;" horiz-adv-x="295" 
d="M0 2314q64 63 107 112t68 88t35.5 69t10.5 55q0 23 -8.5 43.5t-21.5 41t-27.5 43t-27.5 51.5t-21.5 66.5t-8.5 86.5q0 64 22 118.5t61 93.5t93 61t119 22q69 0 126.5 -27t99 -76t64 -117t22.5 -149t-27.5 -175.5t-88 -195t-156.5 -204t-232 -203.5z" />
    <glyph glyph-name="circumflex" unicode="&#x2c6;" horiz-adv-x="1554" 
d="M1154 2349l-466 331l-471 -331l-217 293l690 582l693 -581z" />
    <glyph glyph-name="caron" unicode="&#x2c7;" horiz-adv-x="1554" 
d="M694 2350l-694 583l229 295l468 -332l470 332l216 -292z" />
    <glyph glyph-name="breve" unicode="&#x2d8;" horiz-adv-x="1434" 
d="M1397 3072q0 -127 -22 -230t-65 -184.5t-104.5 -141.5t-139.5 -99.5t-170.5 -58.5t-197.5 -19t-198 19t-170.5 59t-139 100.5t-103.5 142t-64.5 184t-22.5 228.5h419q0 -71 17.5 -125.5t52.5 -92t87.5 -57.5t123.5 -20q68 0 120.5 18t87.5 54.5t53.5 92t18.5 130.5h417v0
z" />
    <glyph glyph-name="dotaccent" unicode="&#x2d9;" horiz-adv-x="1265" 
d="M1029 2721q0 -87 -29 -158t-81 -121t-125 -77.5t-161 -27.5t-161.5 27.5t-125.5 77.5t-80.5 121t-28.5 158q0 88 28.5 158.5t80.5 121t125.5 78t161.5 27.5t161 -27.5t125 -78t81 -121t29 -158.5z" />
    <glyph glyph-name="ring" unicode="&#x2da;" horiz-adv-x="1319" 
d="M1096 2857q0 -109 -35.5 -197t-106.5 -149.5t-175.5 -94.5t-241.5 -33q-138 0 -239 30.5t-167.5 88.5t-98.5 141.5t-32 188.5q0 114 36 203.5t106 152t174 95t240 32.5t237.5 -31t169 -89.5t100.5 -143.5t33 -194zM719 2841q0 57 -11 97.5t-33 66t-55.5 37t-77.5 11.5
t-75.5 -14.5t-51 -41t-28.5 -63t-9 -79.5q0 -58 10.5 -98t32 -65t54 -36.5t77.5 -11.5t76.5 15t52 40.5t29.5 62t9 79.5z" />
    <glyph glyph-name="ogonek" unicode="&#x2db;" horiz-adv-x="1352" 
d="M1135 -786q-96 -38 -205 -60t-230 -22q-147 0 -252.5 26t-173 75.5t-99.5 121t-32 162.5q0 61 21.5 126t63 128t101 121.5t134.5 107.5h524q-57 -45 -101.5 -90.5t-76 -90t-48 -87t-16.5 -80.5q0 -65 35 -96t97 -31q46 0 88 9t92 28z" />
    <glyph glyph-name="tilde" unicode="&#x2dc;" horiz-adv-x="1785" 
d="M1594 2911q-28 -112 -75 -198t-112 -145t-146 -89.5t-178 -30.5q-77 0 -136 13t-106.5 33t-87.5 42.5t-80 42.5t-82 33t-93 13q-32 0 -60.5 -10.5t-54.5 -33.5t-50 -60.5t-47 -89.5l-286 187q29 111 76 197.5t111.5 145t146 89t178.5 30.5q76 0 134 -13t106 -32.5
t88 -42.5t80 -42.5t82 -32.5t93 -13q32 0 60.5 11t55 34t50.5 59.5t47 89.5l286 -187v0z" />
    <glyph glyph-name="hungarumlaut" unicode="&#x2dd;" horiz-adv-x="1887" 
d="M1168 2379l-327 157l516 680l454 -251zM318 2379l-318 157l478 705l450 -250z" />
    <glyph glyph-name="uni0312" unicode="&#x312;" horiz-adv-x="2016" 
d="M1656 2707q-77 0 -136 -6.5t-102.5 -18t-75 -27.5t-54.5 -34t-39.5 -38.5t-31 -40.5t-28.5 -39.5t-32 -35.5q-51 -54 -114.5 -83.5t-143.5 -29.5q-65 0 -117.5 21.5t-88.5 60t-55.5 91.5t-19.5 117q0 79 42.5 151.5t131 126.5t224.5 86t321 32q46 0 91 -1.5t85.5 -4.5
t76.5 -7t63 -8z" />
    <glyph glyph-name="uni0315" unicode="&#x315;" horiz-adv-x="1434" 
d="M957 2277l-395 54l217 882l508 -81z" />
    <glyph glyph-name="uni0326" unicode="&#x326;" horiz-adv-x="2046" 
d="M296 -543q103 0 173.5 11.5t118 30.5t77 44t50.5 52t38.5 53.5t42.5 49.5q51 54 115 83t143 29q65 0 117 -21.5t88.5 -59.5t56 -91.5t19.5 -117.5q0 -79 -42.5 -151.5t-131.5 -126.5t-224.5 -86t-320.5 -32q-93 0 -176.5 6.5t-140.5 14.5z" />
    <glyph glyph-name="Delta" unicode="&#x394;" horiz-adv-x="2777" 
d="M143 0v557q69 219 131 411.5t122 372t120.5 354t126.5 357t139.5 381t159.5 426.5h885q88 -235 164 -437.5t143.5 -387.5t129.5 -359.5t122.5 -352t121 -365.5t126.5 -400v-557h-2491zM1847 557q-32 122 -69 256t-77.5 274.5t-84 284.5t-88 284.5t-89 274.5t-87.5 256
q-45 -122 -92 -256t-93.5 -274.5t-92.5 -284.5t-89 -284.5t-83 -274.5t-75 -256h1020z" />
    <glyph glyph-name="Delta" unicode="&#x2206;" horiz-adv-x="2777" 
d="M143 0v557q69 219 131 411.5t122 372t120.5 354t126.5 357t139.5 381t159.5 426.5h885q88 -235 164 -437.5t143.5 -387.5t129.5 -359.5t122.5 -352t121 -365.5t126.5 -400v-557h-2491zM1847 557q-32 122 -69 256t-77.5 274.5t-84 284.5t-88 284.5t-89 274.5t-87.5 256
q-45 -122 -92 -256t-93.5 -274.5t-92.5 -284.5t-89 -284.5t-83 -274.5t-75 -256h1020z" />
    <glyph glyph-name="Omega" unicode="&#x3a9;" horiz-adv-x="3235" 
d="M1804 0v510q108 79 192.5 175.5t142 218.5t87 271.5t29.5 332.5q0 119 -12 227.5t-41.5 201.5t-78 168t-121.5 128t-172 82t-229 29q-117 0 -208.5 -31t-161 -87t-118 -132.5t-79 -167.5t-44.5 -193.5t-14 -209.5q0 -124 10.5 -230.5t33 -199t58 -172t86 -150.5
t117 -135.5t151.5 -125.5v-510h-1271v510h525q-73 59 -134 131t-110 154t-85.5 171.5t-61.5 186t-37 198t-12 206.5q0 203 40.5 383t120 332t197 272.5t271.5 204.5t343 129t413 45q212 0 396 -35t334.5 -107.5t267.5 -181.5t197 -258.5t121.5 -338.5t41.5 -419
q0 -114 -14 -221.5t-41 -206t-66 -188.5t-89 -171t-110.5 -153t-130.5 -133h536v-510h-1270z" />
    <glyph glyph-name="Omega" unicode="&#x2126;" horiz-adv-x="3235" 
d="M1804 0v510q108 79 192.5 175.5t142 218.5t87 271.5t29.5 332.5q0 119 -12 227.5t-41.5 201.5t-78 168t-121.5 128t-172 82t-229 29q-117 0 -208.5 -31t-161 -87t-118 -132.5t-79 -167.5t-44.5 -193.5t-14 -209.5q0 -124 10.5 -230.5t33 -199t58 -172t86 -150.5
t117 -135.5t151.5 -125.5v-510h-1271v510h525q-73 59 -134 131t-110 154t-85.5 171.5t-61.5 186t-37 198t-12 206.5q0 203 40.5 383t120 332t197 272.5t271.5 204.5t343 129t413 45q212 0 396 -35t334.5 -107.5t267.5 -181.5t197 -258.5t121.5 -338.5t41.5 -419
q0 -114 -14 -221.5t-41 -206t-66 -188.5t-89 -171t-110.5 -153t-130.5 -133h536v-510h-1270z" />
    <glyph glyph-name="pi" unicode="&#x3c0;" horiz-adv-x="2675" 
d="M2560 0q-99 -31 -198 -46t-208 -15q-126 0 -224.5 34t-170.5 109t-116.5 194t-61.5 289q-14 132 -23 261t-14 258t-8 260t-4 266h-479q-3 -201 -12 -405.5t-28 -407.5t-49.5 -403.5t-78.5 -393.5h-684q48 193 82 393.5t56 403.5t33 407.5t13 405.5h-299v516h2462v-516
h-340q3 -214 12 -430.5t37 -429.5q11 -80 27 -131.5t41.5 -81.5t61.5 -42t87 -12h86v-483z" />
    <glyph glyph-name="endash" unicode="&#x2013;" 
d="M0 987v544h2253v-544h-2253z" />
    <glyph glyph-name="emdash" unicode="&#x2014;" horiz-adv-x="4096" 
d="M280 987v547h3537v-547h-3537z" />
    <glyph glyph-name="quoteleft" unicode="&#x2018;" horiz-adv-x="1141" 
d="M1062 3015q-80 -78 -132.5 -137t-84.5 -106t-45 -82.5t-13 -65.5t10.5 -54t27 -49.5t35 -53t35 -63.5t27 -81t10.5 -105q0 -79 -27 -145t-75 -114t-114 -74.5t-144 -26.5q-87 0 -159 35t-122.5 96t-77 147t-24 187.5t38.5 216.5t110 235.5t189 243.5t276 241l259 -245v0z
" />
    <glyph glyph-name="quoteright" unicode="&#x2019;" horiz-adv-x="1141" 
d="M569 3140q87 0 158.5 -34.5t122 -96t77 -147t24 -187t-38.5 -216.5t-110 -235.5t-189 -243.5t-276 -241l-259 244q80 78 132.5 138t84.5 106.5t45 82t13 65.5q0 29 -10.5 53.5t-27 50t-35 53.5t-35 63t-27 80.5t-10.5 105.5q0 79 27 145t75 113.5t114 74t145 26.5z" />
    <glyph glyph-name="quotesinglbase" unicode="&#x201a;" horiz-adv-x="1141" 
d="M569 708q87 0 158.5 -34.5t122 -96t77 -147t24 -187t-38.5 -216.5t-110 -236t-189 -244t-276 -241l-259 245q80 78 132.5 138t84.5 106.5t45 82.5t13 65t-10.5 53.5t-27 49.5t-35 53.5t-35 64t-27 80.5t-10.5 106q0 79 27 144.5t75 113t114 74t145 26.5z" />
    <glyph glyph-name="quotedblleft" unicode="&#x201c;" horiz-adv-x="2016" 
d="M1918 2980q-76 -61 -124.5 -108.5t-76 -93t-37.5 -76.5t-10 -59q0 -27 10.5 -51.5t26 -51t33 -57t33 -66t26 -79t10.5 -96.5q0 -68 -27.5 -128.5t-73.5 -105t-106 -71t-127 -26.5q-80 0 -148.5 31.5t-117.5 87.5t-76.5 134t-27.5 171q0 94 31 201.5t100.5 228t180 234.5
t271.5 223l230 -242v0zM1018 2997q-76 -63 -125.5 -113.5t-78.5 -99t-40.5 -81.5t-11.5 -60q0 -26 10 -50.5t25.5 -51.5t33.5 -57t33.5 -66t25.5 -79.5t10 -96.5q0 -68 -27.5 -128.5t-73 -105t-106 -71t-125.5 -26.5q-81 0 -149 31t-118 87.5t-77.5 135.5t-27.5 176
q0 92 31 199.5t101 229.5t182 239.5t273 229.5l235 -242v0z" />
    <glyph glyph-name="quotedblright" unicode="&#x201d;" horiz-adv-x="2016" 
d="M1819 2663q0 -92 -31 -200t-100.5 -234.5t-181.5 -244t-274 -229.5l-235 243q76 62 126 112.5t78.5 101t40 86t11.5 63.5q0 26 -10 50.5t-25.5 51.5t-33.5 57t-33.5 66t-26 79t-10.5 96q0 69 27.5 129.5t73.5 105t106 71t127 26.5q81 0 149 -31t117 -88t77 -136t28 -175z
M911 2668q0 -93 -31.5 -200.5t-100.5 -233t-180 -240t-272 -223.5l-230 243q76 61 124.5 108t75.5 95.5t37.5 79t10.5 64.5q0 26 -10.5 51t-25.5 51.5t-33.5 57t-33.5 66t-25 78.5t-10 96q0 69 27 129.5t72.5 105t106 71t126.5 26.5q81 0 149 -31.5t117.5 -88t77.5 -134
t28 -171.5z" />
    <glyph glyph-name="quotedblbase" unicode="&#x201e;" horiz-adv-x="2046" 
d="M1845 254q0 -95 -31.5 -204.5t-102 -234t-184.5 -243t-278 -231.5l-237 245q77 64 128 115t80.5 100.5t41.5 83t12 61.5q0 26 -10.5 50.5t-26 52t-34 58t-34 67t-26.5 80.5t-11 98q0 69 27.5 130.5t73.5 107.5t107 73t129 27q81 0 150.5 -32t119.5 -89t78 -137.5
t28 -177.5zM922 259q0 -96 -31 -205.5t-101 -232t-183.5 -238.5t-276.5 -226l-233 245q77 62 126.5 109.5t77.5 94t39 78.5t11 62q0 26 -10.5 51t-26 52t-34 57.5t-34 67.5t-26.5 80.5t-11 97.5q0 69 27.5 130.5t73.5 107.5t107 73t128 27q84 0 153 -32t119 -89t77.5 -136
t27.5 -174z" />
    <glyph glyph-name="dagger" unicode="&#x2020;" 
d="M1390 1938l128 -414q0 -128 -12 -256.5t-33 -262.5t-49.5 -275t-60.5 -292h-474q-32 153 -60 294t-49 274.5t-33 261.5t-12 256l131 414h-664v489h664q-44 164 -76.5 324t-54.5 321h783q-21 -163 -53 -322.5t-75 -322.5h661v-489h-661z" />
    <glyph glyph-name="daggerdbl" unicode="&#x2021;" 
d="M1389 645q43 -163 75 -322.5t53 -322.5h-784q23 161 55 321t76 324h-662v489h657q-27 37 -48.5 82t-36 96.5t-23 108.5t-8.5 117q0 120 31 222t84 178h-656v489h662q-44 164 -76 324t-55 321h784q-21 -163 -53 -322.5t-75 -322.5h662v-489h-656q53 -74 84 -177t31 -223
q0 -60 -8.5 -116.5t-23 -108t-36 -97t-48.5 -82.5h657v-489h-662z" />
    <glyph glyph-name="bullet" unicode="&#x2022;" 
d="M1989 1421q0 -120 -31 -231t-87.5 -207.5t-135.5 -175.5t-175.5 -135.5t-208 -87.5t-231.5 -31t-230.5 30.5t-206 86.5t-174 134.5t-134.5 174t-86.5 206t-30.5 230.5t31 231t87.5 207.5t135.5 175.5t175.5 135.5t207.5 87.5t231 31t230.5 -30.5t206.5 -86.5
t174.5 -134.5t134.5 -174t86.5 -206t30.5 -230.5z" />
    <glyph glyph-name="ellipsis" unicode="&#x2026;" horiz-adv-x="3290" 
d="M3080 349q0 -85 -30.5 -157.5t-83.5 -126t-125.5 -83.5t-156.5 -30t-156.5 30t-125.5 83.5t-83 126t-30 157.5q0 84 30 156t83 125.5t125.5 83.5t156.5 30t156.5 -30t125.5 -83.5t83.5 -125.5t30.5 -156zM2039 349q0 -85 -30 -157.5t-83 -126t-125.5 -83.5t-157.5 -30
q-84 0 -156 30t-125 83.5t-83 126t-30 157.5q0 84 30 156t83 125.5t125 83.5t156 30q85 0 157.5 -30t125.5 -83.5t83 -125.5t30 -156zM998 349q0 -85 -30 -157.5t-83 -126t-125.5 -83.5t-157.5 -30q-84 0 -156 30t-125.5 83.5t-83 126t-29.5 157.5q0 84 29.5 156t83 125.5
t125.5 83.5t156 30q85 0 157.5 -30t125.5 -83.5t83 -125.5t30 -156z" />
    <glyph glyph-name="perthousand" unicode="&#x2030;" horiz-adv-x="4845" 
d="M4708 678q0 -137 -25 -245.5t-71 -191t-110.5 -140.5t-143.5 -95t-171 -54t-192 -17q-170 0 -297 46t-211.5 138t-126.5 231.5t-42 327.5q0 185 49 324.5t141 232.5t224 140t295 47q174 0 302 -44.5t212 -136.5t125.5 -232t41.5 -331zM3164 678q0 -137 -24.5 -245.5
t-70.5 -191t-111 -140.5t-144.5 -95t-171 -54t-191.5 -17q-169 0 -296 46t-211.5 138t-127 231.5t-42.5 327.5q0 185 49.5 324.5t141.5 232.5t223.5 140t294.5 47q174 0 302 -44.5t212.5 -136.5t125.5 -232t41 -331zM4217 678q0 113 -13 185t-37.5 113t-61 56.5t-84.5 15.5
q-57 0 -97 -19.5t-65 -63.5t-37 -115t-12 -172q0 -108 12.5 -179t37 -113.5t61 -60t85.5 -17.5q37 0 68 9.5t54 29t40 49.5t27.5 71t16 93.5t5.5 117.5zM2672 678q0 113 -12.5 185t-37.5 113t-61 56.5t-84 15.5q-57 0 -97 -19.5t-65.5 -63.5t-37 -115t-11.5 -172
q0 -108 12 -179t37 -113.5t61.5 -60t84.5 -17.5q39 0 69 9.5t53.5 29t40 49.5t28 71t16 93.5t4.5 117.5zM1512 2181q0 -136 -24.5 -244.5t-70.5 -191t-110.5 -141t-144 -95.5t-171.5 -54t-192 -17q-169 0 -296 46t-211.5 138t-127 232t-42.5 327q0 186 49.5 325.5t141.5 232
t223 139.5t295 47q173 0 301 -44.5t213 -136t126 -232t41 -331.5zM1020 2181q0 113 -12.5 185t-37 113.5t-61 57t-84.5 15.5q-57 0 -96.5 -20t-65 -64t-37.5 -114.5t-12 -172.5q0 -107 12.5 -178.5t37.5 -113.5t61 -59.5t85 -17.5q38 0 68.5 9.5t53.5 29t40 49t28 70.5
t15.5 93.5t4.5 117.5zM760 -109l-365 256l2136 2831l365 -258z" />
    <glyph glyph-name="guilsinglleft" unicode="&#x2039;" horiz-adv-x="1578" 
d="M732 139l-607 1008l607 1007l483 -168l-408 -839l408 -839z" />
    <glyph glyph-name="guilsinglright" unicode="&#x203a;" horiz-adv-x="1578" 
d="M844 139l-483 169l408 839l-408 839l483 168l607 -1007z" />
    <glyph glyph-name="fraction" unicode="&#x2044;" horiz-adv-x="1668" 
d="M-48 -109l-365 256l2136 2831l365 -258z" />
    <glyph glyph-name="fraction" unicode="&#x2215;" horiz-adv-x="1668" 
d="M-48 -109l-365 256l2136 2831l365 -258z" />
    <glyph glyph-name="zero.inferior" unicode="&#x2080;" horiz-adv-x="1626" 
d="M1538 717q0 -198 -54.5 -343.5t-152 -240.5t-233.5 -141.5t-298 -46.5q-176 0 -309.5 46t-222.5 141t-134 239.5t-45 341.5t54 342.5t152 241t233.5 142t299.5 46.5q176 0 309 -46t222 -141t134 -239.5t45 -341.5zM1017 717q0 110 -12.5 183.5t-38 116.5t-63.5 60.5
t-88 17.5q-54 0 -92.5 -20.5t-64 -66t-37 -118t-11.5 -177.5q0 -111 13 -184t38 -116.5t63 -60.5t88 -17q53 0 92 20.5t64 66t37 118t12 177.5z" />
    <glyph glyph-name="one.inferior" unicode="&#x2081;" horiz-adv-x="1158" 
d="M361 0v883l-247 -120l-78 418l490 265h428v-1446h-593z" />
    <glyph glyph-name="two.inferior" unicode="&#x2082;" horiz-adv-x="1371" 
d="M88 0v381l245 230q64 62 107 109.5t68.5 87t35.5 75t10 73.5q0 29 -8 51.5t-26 39t-45 25t-65 8.5q-56 0 -114 -17t-106 -43l-104 358q61 26 124.5 46.5t131.5 34.5t142.5 21.5t155.5 7.5q161 0 274 -32t184 -89t103 -136.5t32 -175.5q0 -47 -7.5 -91.5t-23 -87.5
t-41.5 -85t-61.5 -85t-83 -86.5t-107.5 -89.5l-115 -90h464v-440h-1170z" />
    <glyph glyph-name="three.inferior" unicode="&#x2083;" horiz-adv-x="1433" 
d="M1338 432q0 -83 -21.5 -151.5t-63 -123t-101.5 -94.5t-136.5 -66t-167.5 -39t-196 -13q-67 0 -136.5 2.5t-139.5 8t-140.5 14.5t-140.5 20v318q29 -3 69.5 -6t86.5 -4.5t93 -2.5t88 -1q55 0 97.5 10t71.5 28.5t44.5 44.5t15.5 57q0 41 -17 69.5t-48.5 45.5t-75.5 24.5
t-99 7.5h-175v317h182q54 0 95.5 9t70 27.5t43.5 45t15 60.5q0 54 -41 82.5t-121 28.5q-73 0 -150 -15.5t-144 -45.5l-109 306q65 21 138 38.5t149 29.5t152.5 18t150.5 6q159 0 272.5 -26t186.5 -75.5t107.5 -123t34.5 -168.5q0 -59 -14.5 -111.5t-43 -95t-70 -74.5
t-97.5 -50q69 -13 122 -42.5t89 -73t55 -98t19 -118.5z" />
    <glyph glyph-name="four.inferior" unicode="&#x2084;" horiz-adv-x="1545" 
d="M1320 216v-216h-531v216h-745v380l504 834h772v-827h177v-387h-177zM789 1117h-4l-314 -514h318v514z" />
    <glyph glyph-name="Euro" unicode="&#x20ac;" 
d="M2106 80q-145 -66 -307 -105t-340 -39q-265 0 -462 57t-336 169.5t-224 278.5t-126 384h-249v397h221q-2 44 -3 87t-1 88q0 47 1 93.5t3 92.5h-221v396h264q32 141 81 265.5t119.5 229.5t161.5 188.5t205.5 141t253 88.5t303.5 31q95 0 184.5 -12.5t170 -33t152.5 -49
t133 -61.5l-172 -478q-45 21 -95 38t-103.5 29.5t-109.5 19.5t-112 7q-92 0 -170 -20.5t-139.5 -68t-106 -126.5t-68.5 -189h624v-396h-675q-2 -37 -2.5 -77t-0.5 -81q0 -54 1 -104t3 -99h674v-397h-617q15 -93 58 -159t106.5 -108t145.5 -61.5t176 -24.5q61 0 119.5 7.5
t114 21t106 33.5t94.5 44l165 -498v0z" />
    <glyph glyph-name="trademark" unicode="&#x2122;" horiz-adv-x="2896" 
d="M2337 1663q-2 76 -4 142t-3.5 126.5t-3.5 117.5t-4 115t-4 117.5t-4 126.5l-238 -745h-345l-242 746q0 -101 -0.5 -189.5t-1 -175.5t-0.5 -179.5v-201.5h-338q0 149 4 300.5t10.5 303t15.5 300.5t19 292h522l201 -650l205 650h510q28 -295 45 -596.5t24 -599.5h-368z
M804 2522v-859h-428v859h-261v337h948v-337h-259z" />
    <glyph glyph-name="partialdiff" unicode="&#x2202;" horiz-adv-x="2534" 
d="M2356 1325q0 -237 -38 -432t-109 -349.5t-172.5 -268.5t-228 -190t-276.5 -113t-317 -37q-175 0 -320.5 35t-262.5 101t-205 161.5t-146.5 217.5t-88 267.5t-29.5 312.5q0 180 33 334.5t97 281t156.5 224t213 164t266.5 101t316 34.5q30 0 62 -3.5t65 -9.5t66 -14.5
t65 -19.5q-29 89 -73 161.5t-104 128.5t-134.5 96t-164.5 65t-195 35.5t-225 6.5l24 510q308 12 555 -37t439 -153t330 -260.5t227 -360t131.5 -452.5t42.5 -537zM1644 1241q0 35 -2 75t-6.5 80.5t-10 80t-11.5 74.5q-82 33 -154.5 48t-146.5 15q-78 0 -141.5 -20
t-113 -57.5t-85.5 -91t-59.5 -120t-35 -144t-11.5 -164.5q0 -79 10 -150.5t30 -133t49.5 -111t69.5 -84.5t90.5 -53.5t111.5 -18.5q115 0 194 43t128.5 137t71.5 240.5t22 354.5z" />
    <glyph glyph-name="product" unicode="&#x220f;" horiz-adv-x="3488" 
d="M2901 2401v-3220h-723v3220h-901v-3220h-723v3220h-382v611h3109v-611h-380z" />
    <glyph glyph-name="summation" unicode="&#x2211;" horiz-adv-x="2519" 
d="M195 -819v592l1061 1374l-1033 1279v586h2032v-582h-1177l1000 -1263l-1040 -1372h1279v-614h-2122z" />
    <glyph glyph-name="minus" unicode="&#x2212;" 
d="M114 1015v509h2025v-509h-2025z" />
    <glyph glyph-name="radical" unicode="&#x221a;" 
d="M1525 0h-783l-459 1605h-230v520h731l226 -830q18 -74 36.5 -150t36.5 -157t35.5 -167.5t33.5 -180.5l4 -2q17 89 33.5 171.5t32.5 159t32.5 149t33.5 141.5l396 1600h595z" />
    <glyph glyph-name="infinity" unicode="&#x221e;" horiz-adv-x="3743" 
d="M3572 1452q0 -102 -23.5 -197.5t-70.5 -180t-117 -154.5t-162.5 -120t-208 -77.5t-251.5 -27.5q-119 0 -234 31t-226 84.5t-218 124t-208 148.5q-104 -76 -213 -146.5t-221.5 -124t-229 -85.5t-236.5 -32q-181 0 -325.5 53.5t-245.5 149t-155 227.5t-54 289
q0 101 23.5 196.5t70 179.5t116 154t162.5 120t207.5 77.5t252.5 27.5q115 0 229 -31t224.5 -84t217.5 -122.5t210 -147.5q104 77 213 146.5t222.5 122.5t231.5 84.5t241 31.5q180 0 323.5 -53t244.5 -148.5t155.5 -227t54.5 -288.5zM3018 1436q0 53 -16.5 95.5t-48 72
t-77 45.5t-104.5 16q-52 0 -108.5 -17.5t-115.5 -48t-122 -72t-129 -90.5q66 -49 127.5 -92t120 -74.5t113 -50t105.5 -18.5q63 0 110.5 17t79.5 48t48.5 74t16.5 95zM1442 1431q-64 49 -124 91.5t-118 74t-112.5 50t-106.5 18.5q-62 0 -110 -17t-80 -48t-49 -74t-17 -94
q0 -52 16 -94.5t46.5 -73t76.5 -46.5t107 -16q51 0 106 17.5t114.5 48t122 72.5t128.5 91z" />
    <glyph glyph-name="integral" unicode="&#x222b;" horiz-adv-x="1728" 
d="M1418 2550q-47 0 -82.5 -10t-62 -28.5t-44.5 -44t-28.5 -58t-15.5 -70t-5 -78.5v-2309q0 -128 -15.5 -239.5t-51.5 -204.5t-93 -166.5t-139.5 -123.5t-192.5 -76.5t-250 -26.5q-54 0 -103.5 3t-96 8t-89.5 12.5t-81 15.5v478h188q47 0 82.5 9.5t62.5 27.5t44.5 44
t28.5 58t15.5 69t4.5 79v2309q0 128 16 239.5t51.5 204.5t93 166t140 123t192 77t249.5 27q54 0 104 -3t96.5 -7.5t89 -12t81.5 -14.5v-478h-189z" />
    <glyph glyph-name="approxequal" unicode="&#x2248;" 
d="M2095 1673q-66 -66 -139 -122t-151 -97t-161 -64t-170 -23q-78 0 -142 16t-121 40t-109.5 52t-106 52t-111.5 40t-125 16q-53 0 -106 -14.5t-102 -37.5t-93 -51.5t-79 -58.5l-221 370q68 67 142 122t152.5 94t161.5 61t170 22q77 0 141 -15.5t119.5 -39t106 -50.5
t103.5 -50.5t111 -39t128 -15.5q59 0 117 16.5t107.5 41.5t90 54t68.5 53l219 -372v0zM2096 765q-67 -67 -139.5 -124t-151 -97.5t-162 -64t-171.5 -23.5q-77 0 -141.5 16t-121.5 40.5t-110 52t-106 51.5t-110 40t-122 16q-54 0 -107.5 -15t-102.5 -39t-92.5 -54.5
t-77.5 -61.5l-218 375q70 70 144 126.5t152 95.5t160 60t167 21q77 0 141 -15.5t119.5 -39t107 -51t104 -51t109.5 -39t123 -15.5q60 0 117.5 18t108 43.5t91 54t67.5 50.5l222 -370v0z" />
    <glyph glyph-name="notequal" unicode="&#x2260;" 
d="M988 564l-303 -529l-400 199l191 330h-280v503h560l229 414h-789v503h1080l290 529l397 -200l-183 -329h277v-503h-556l-233 -414h789v-503h-1069z" />
    <glyph glyph-name="lessequal" unicode="&#x2264;" 
d="M205 1463v533l1843 837v-604l-1186 -495l1186 -494v-614zM205 0v509h1843v-509h-1843z" />
    <glyph glyph-name="greaterequal" unicode="&#x2265;" 
d="M205 626v602l1186 494l-1186 495v616l1843 -837v-533zM205 0v509h1843v-509h-1843z" />
    <glyph glyph-name="lozenge" unicode="&#x25ca;" horiz-adv-x="2491" 
d="M1592 0h-695l-817 1518l805 1494h695l816 -1518zM1226 2420l-470 -894l495 -933l470 893z" />
    <glyph glyph-name="f_b" unicode="&#xe080;" horiz-adv-x="3998" 
d="M1725 2592q-99 9 -182.5 13t-161.5 4q-70 0 -122.5 -10.5t-91 -31t-63.5 -50.5t-39.5 -69.5t-20 -87.5t-5.5 -105v-130h345v-517h-345v-1608h-686v1608h-291v517h291v109q0 147 19 270.5t64.5 222.5t121 173.5t189.5 124.5t269.5 75.5t359.5 25.5q127 0 252.5 -4.5
t252.5 -13.5t258.5 -22t272.5 -31v-1077q55 48 117.5 87.5t132.5 67.5t149.5 43t168.5 15q151 0 274.5 -36t222 -102.5t171.5 -160.5t121 -208.5t71.5 -247.5t23.5 -277q0 -184 -31.5 -345t-96 -295.5t-163.5 -240t-233 -178.5t-304 -111t-378 -38q-118 0 -237.5 12
t-237.5 33t-233 50t-225 62v2484v0zM3145 1067q0 92 -7 169.5t-23 140.5t-40.5 111.5t-59.5 81t-81 49.5t-104 17q-56 0 -109.5 -15t-105 -45t-102 -74t-101.5 -102v-830q26 -15 58.5 -28.5t69.5 -24.5t78 -17.5t85 -6.5q107 0 189.5 36.5t138.5 108.5t85 179.5t29 249.5z
" />
    <glyph glyph-name="f_h" unicode="&#xe081;" horiz-adv-x="3992" 
d="M1725 2592q-99 9 -182.5 13t-161.5 4q-70 0 -122.5 -10.5t-91 -31t-63.5 -50.5t-39.5 -69.5t-20 -87.5t-5.5 -105v-130h345v-517h-345v-1608h-686v1608h-291v517h291v109q0 147 19 270.5t64.5 222.5t121 173.5t189.5 124.5t269.5 75.5t359.5 25.5q127 0 252.5 -4.5
t252.5 -13.5t258.5 -22t272.5 -31v-1101q58 52 120.5 95.5t135.5 75t159 49t191 17.5q123 0 226.5 -24.5t187 -73t146 -120.5t104.5 -165t63.5 -207.5t21.5 -248.5v-1352h-686v1206q0 105 -14 185t-45 134t-83 81t-127 27q-62 0 -113 -15t-97 -43.5t-92 -71t-98 -98.5v-1405
h-687v2592v0z" />
    <glyph glyph-name="f_j" unicode="&#xe082;" horiz-adv-x="2651" 
d="M2468 2720q0 -87 -29 -158t-81.5 -121t-125 -77.5t-161.5 -27.5q-88 0 -161 27.5t-125 77.5t-81 121t-29 158q0 88 29 158.5t81 120.5t125 77.5t161 27.5q89 0 161.5 -27.5t125 -77.5t81.5 -120.5t29 -158.5zM2415 0q0 -145 -20.5 -267t-61.5 -220t-102.5 -173t-144 -125
t-186 -75t-227.5 -25q-38 0 -81 2.5t-87 6.5t-85.5 10t-78.5 14l20 535h130q56 0 100.5 14t75 46.5t46 87.5t15.5 136v1641h-689v-1608h-686v1608h-291v517h291v164q0 128 16 239.5t51 204.5t91.5 166t138 123t189 76.5t244.5 26.5q56 0 108.5 -3t100 -8t91 -12.5
t82.5 -15.5v-477h-188q-47 0 -82.5 -9.5t-62.5 -27.5t-44.5 -43.5t-28.5 -58t-15.5 -69.5t-4.5 -79v-197h1376v-2125z" />
    <glyph glyph-name="f_k" unicode="&#xe083;" horiz-adv-x="3829" 
d="M1725 2592q-99 9 -182.5 13t-161.5 4q-70 0 -122.5 -10.5t-91 -31t-63.5 -50.5t-39.5 -69.5t-20 -87.5t-5.5 -105v-130h345v-517h-345v-1608h-686v1608h-291v517h291v109q0 147 19 270.5t64.5 222.5t121 173.5t189.5 124.5t269.5 75.5t359.5 25.5q127 0 252.5 -4.5
t252.5 -13.5t258.5 -22t272.5 -31v-1587l517 657h822l-666 -713l722 -1412h-802l-426 944l-167 -179v-765h-687v2592v0z" />
    <glyph glyph-name="f_f" unicode="&#xe084;" horiz-adv-x="2843" 
d="M1039 1608v-1608h-686v1608h-291v517h291v164q0 128 16 239.5t51 204.5t91.5 166t138 123t189 76.5t244.5 26.5q56 0 108.5 -3t100 -8t91 -12.5t82.5 -15.5v-477h-188q-47 0 -82.5 -9.5t-62.5 -27.5t-44.5 -43.5t-28.5 -58t-15.5 -69.5t-4.5 -79v-197h686v164
q0 128 16.5 239.5t51.5 204.5t91.5 166t138 123t189 76.5t244.5 26.5q56 0 108 -3t99.5 -8t91.5 -12.5t83 -15.5v-477h-189q-47 0 -82.5 -9.5t-62 -27.5t-44.5 -43.5t-28.5 -58t-15 -69.5t-4.5 -79v-197h374v-517h-374v-1608h-687v1608h-686z" />
    <glyph glyph-name="f_i" unicode="&#xe085;" horiz-adv-x="2657" 
d="M2473 2720q0 -87 -28.5 -158t-80.5 -121t-125.5 -77.5t-161.5 -27.5t-161 27.5t-125 77.5t-81 121t-29 158q0 88 29 158.5t81 120.5t125 77.5t161 27.5t161.5 -27.5t125.5 -77.5t80.5 -120.5t28.5 -158.5zM1728 0v1608h-689v-1608h-686v1608h-291v517h291v164
q0 128 16 239.5t51 204.5t91.5 166t138 123t189 76.5t244.5 26.5q56 0 104.5 -3t92.5 -8t84 -12.5t79 -15.5v-477h-166q-47 0 -82.5 -9.5t-62.5 -27.5t-44.5 -43.5t-28.5 -58t-15.5 -69.5t-4.5 -79v-197h1376v-2125h-687z" />
    <glyph glyph-name="f_l" unicode="&#xe086;" horiz-adv-x="2710" 
d="M2658 0q-34 -10 -77 -20.5t-94 -19t-110.5 -14t-126.5 -5.5q-120 0 -221 26t-174.5 89.5t-114.5 170.5t-41 269v2096q-44 4 -86 7.5t-83.5 5.5t-81.5 3t-79 1q-70 0 -121.5 -10.5t-88.5 -31t-60.5 -50.5t-36.5 -69.5t-18 -87.5t-5 -105v-130h345v-517h-345v-1608h-686
v1608h-291v517h291v109q0 147 18 270.5t62 222.5t118.5 173.5t186.5 124.5t267 75.5t360 25.5q127 0 251.5 -4.5t250.5 -13.5t255 -22t263 -31v-2380q0 -50 8 -86t26 -59.5t47 -34t72 -10.5h120v-485v0z" />
    <glyph glyph-name="f_f_i" unicode="&#xe087;" horiz-adv-x="4032" 
d="M3837 2720q0 -87 -29 -158t-81 -121t-125 -77.5t-161 -27.5q-89 0 -162 27.5t-125 77.5t-81 121t-29 158q0 88 29 158.5t81 120.5t125 77.5t162 27.5q88 0 161 -27.5t125 -77.5t81 -120.5t29 -158.5zM2412 0h-687v1608h-686v-1608h-686v1608h-291v517h291v164
q0 128 16 239.5t51 204.5t91.5 166t138 123t189 76.5t244.5 26.5q56 0 108.5 -3t100 -8t91 -12.5t82.5 -15.5v-477h-188q-47 0 -82.5 -9.5t-62.5 -27.5t-44.5 -43.5t-28.5 -58t-15.5 -69.5t-4.5 -79v-197h686v164q0 128 16.5 239.5t51.5 204.5t91.5 166t138 123t189 76.5
t244.5 26.5q56 0 108 -3t99.5 -8t91.5 -12.5t83 -15.5v-477h-189q-47 0 -82.5 -9.5t-62 -27.5t-44.5 -43.5t-28.5 -58t-15 -69.5t-4.5 -79v-197h1372v-2125h-686v1608h-686v-1608z" />
    <glyph glyph-name="f_f_l" unicode="&#xe088;" horiz-adv-x="4109" 
d="M1725 2125v109q0 147 19.5 270.5t64.5 222.5t121 173.5t189.5 124.5t269 75.5t360.5 25.5q126 0 251.5 -4.5t252.5 -13.5t259 -22t272 -31v-2380q0 -50 7.5 -86t26 -59.5t47.5 -34t72 -10.5h121v-485q-35 -10 -78 -20.5t-94 -19t-110 -14t-127 -5.5q-120 0 -221.5 26
t-174.5 89.5t-114 170.5t-41 269v2096q-99 9 -182.5 13t-161.5 4q-70 0 -123 -10.5t-91 -31t-63 -50.5t-39.5 -69.5t-20 -87.5t-5.5 -105v-130h344v-517h-344v-1608h-687v1608h-686v-1608h-686v1608h-291v517h291v164q0 128 16 239.5t51 204.5t91.5 166t138 123t189 76.5
t244.5 26.5q56 0 108.5 -3t100 -8t91 -12.5t82.5 -15.5v-477h-188q-47 0 -82.5 -9.5t-62.5 -27.5t-44.5 -43.5t-28.5 -58t-15.5 -69.5t-4.5 -79v-197h686z" />
    <glyph glyph-name="circumflex.cap" unicode="&#xe0a0;" horiz-adv-x="1843" 
d="M1212 3019l-538 210l-536 -210l-138 310l675 345l678 -341z" />
    <glyph glyph-name="ring.cap" unicode="&#xe0a1;" horiz-adv-x="1319" 
d="M1096 3502q0 -111 -35.5 -199t-106.5 -149t-175.5 -94t-241.5 -33q-138 0 -239 31t-167.5 88.5t-98.5 141.5t-32 188q0 117 36 206.5t106 151.5t174 94.5t240 32.5t237.5 -30.5t169 -89t100.5 -143.5t33 -196zM719 3486q0 56 -11 97.5t-33 67t-55.5 37.5t-77.5 12
t-75.5 -15t-51 -41t-28.5 -63.5t-9 -81.5q0 -58 10.5 -98t32 -65t54 -36t77.5 -11t76.5 14.5t52 40t29.5 62t9 80.5z" />
    <glyph glyph-name="tilde.cap" unicode="&#xe0a2;" horiz-adv-x="2048" 
d="M1641 3474q-29 -102 -78 -180.5t-116 -131.5t-151.5 -81t-183.5 -28q-78 0 -138 12t-109 30.5t-90 40t-81.5 39.5t-83 30t-94.5 12q-33 0 -62.5 -10t-55.5 -31.5t-51 -55.5t-50 -82l-297 170q29 101 78 179.5t116 132t151.5 81.5t183.5 28q77 0 137 -12.5t109 -30.5
t90 -39.5t81.5 -39.5t83 -30.5t94.5 -12.5q34 0 63 10t55.5 31.5t51.5 55t50 81.5l297 -168v0z" />
    <glyph glyph-name="breve.cap" unicode="&#xe0a3;" horiz-adv-x="1434" 
d="M1399 3805q0 -126 -23 -229.5t-66 -185t-104.5 -141.5t-139.5 -99.5t-170.5 -58.5t-197.5 -19t-198 19.5t-170.5 59t-139 100t-103.5 142t-64.5 184t-22.5 228.5h419q0 -70 17.5 -125t52.5 -92.5t87.5 -57.5t123.5 -20q137 0 208.5 72.5t71.5 222.5h419v0z" />
    <glyph glyph-name="dotaccent.cap" unicode="&#xe0a4;" horiz-adv-x="1265" 
d="M1005 3392q0 -78 -27 -141t-75.5 -111t-116 -72t-153.5 -24q-82 0 -149.5 24t-119 72t-79.5 111t-28 141t28 140.5t79.5 111t119 73t149.5 24.5q86 0 153.5 -24.5t116 -73t75.5 -111t27 -140.5z" />
    <glyph glyph-name="dieresis.narrow" unicode="&#xe0a5;" horiz-adv-x="1846" 
d="M1528 2760q0 -75 -23 -135.5t-66 -103.5t-104 -66t-136 -23t-136.5 23t-104.5 66t-66.5 103.5t-23.5 135.5q0 74 23.5 134.5t66.5 103.5t104.5 66.5t136.5 23.5t136 -23.5t104 -66.5t66 -103.5t23 -134.5zM661 2760q0 -75 -23.5 -135.5t-66.5 -103.5t-103.5 -66
t-136.5 -23q-75 0 -136.5 23t-104.5 66t-66.5 103.5t-23.5 135.5q0 74 23.5 134.5t66.5 103.5t104.5 66.5t136.5 23.5q76 0 136.5 -23.5t103.5 -66.5t66.5 -103.5t23.5 -134.5z" />
    <glyph glyph-name="dieresis.cap.narrow" unicode="&#xe0ac;" horiz-adv-x="1843" 
d="M1436 3324q0 -68 -22 -123.5t-62.5 -95.5t-96.5 -61.5t-125 -21.5q-68 0 -124 21.5t-95.5 61.5t-61.5 95.5t-22 123.5t22 124.5t61.5 96t95.5 61.5t124 22q69 0 125 -22t96.5 -61.5t62.5 -96t22 -124.5zM609 3324q0 -68 -21.5 -123.5t-62 -95.5t-96.5 -61.5t-126 -21.5
q-69 0 -125 21.5t-95.5 61.5t-61 95.5t-21.5 123.5t21.5 124.5t61 96t95.5 61.5t125 22q70 0 126 -22t96.5 -61.5t62 -96t21.5 -124.5z" />
    <glyph glyph-name="designer" unicode="&#xea43;" horiz-adv-x="4096" 
d="M2335 221q7 9 9.5 22.5t3.5 28t1.5 29.5t5.5 27q14 58 40.5 112t63 97t82 70t97.5 32q52 6 105.5 2t103.5 -35q1 -21 11.5 -32.5t23.5 -20.5t24 -20.5t14 -32.5q15 -29 19.5 -64.5t3 -72t-7.5 -73.5t-10 -69q74 0 146 17t140 32q-15 -24 -37 -33t-45.5 -12.5t-46 -8
t-39.5 -19.5q-27 -3 -54 -8.5t-50.5 -17.5t-42 -33t-29.5 -56q-12 -42 -31 -81t-35.5 -79.5t-26 -83.5t-1.5 -92q4 -18 14.5 -25.5t23.5 -8.5t26 2.5t22 6.5q6 0 11 6t10 12.5t10.5 9.5t13.5 -3t7.5 -12t-4.5 -13t-10 -14t-9 -14q-28 -22 -60 -30.5t-63 9.5q-25 31 -40 67.5
t-5 80.5q3 15 10 38.5t20 59.5t33.5 86t50.5 119q-24 15 -49.5 12.5t-51 -9.5t-51.5 -11t-52 8q15 25 40 36.5t50 20.5q20 6 43.5 6t46 3t42.5 13t32 36q10 21 13 44t2.5 46.5t-1.5 48t2 49.5q-9 3 -13 9.5t-4.5 13.5t0.5 14t1 12q-19 46 -48.5 70t-64 34.5t-71 11.5
t-70.5 3q-37 -3 -72.5 -22t-66 -48t-54 -66t-37.5 -77q-21 -65 -17 -131.5t25 -134.5q-4 -33 2.5 -63.5t17.5 -60t23 -59t20 -60.5t8 -64t-13 -70q-19 -19 -42 -16.5t-44 12.5q-22 14 -33 38t-17 52.5t-10 58.5t-10 56q12 12 16 30t5.5 38t4 40t11.5 35q3 11 4 25.5
t-0.5 28.5t-7.5 26t-16 18q-29 -5 -61.5 -5t-64 -3.5t-60.5 -14t-52 -34.5q3 -43 8 -90t3 -92t-15 -85t-45 -69q-19 -6 -39 -1t-39 17q-17 19 -23.5 41.5t-8 47t0.5 50t2 50.5q12 31 24 64.5t26.5 64.5t34 55.5t46.5 36.5q12 -9 26.5 -11.5t29 -0.5t29 6.5t26.5 9.5z
M1880 188q-14 -12 -27.5 -6t-27 15t-27.5 14.5t-29 -6.5q-21 -18 -30 -43t-14.5 -52t-11.5 -53.5t-21 -48.5q-3 -56 -14 -108t-11 -105l-21 -14t-24 -2q-11 15 -12.5 34.5t1 39t5.5 39t2 34.5q12 18 14.5 41t2.5 47.5t1.5 48t10.5 43.5q-5 11 -7 25t-3 28t-1.5 27.5
t-1.5 22.5q-8 3 -13.5 -1t-10.5 -7.5t-11 -4t-14 8.5q3 25 15 41.5t30 32.5q14 0 23.5 -7t16.5 -17.5t12 -24t10 -25.5q12 6 23.5 23.5t24.5 32t27 18.5t31 -17zM803 -856q-13 9 -27 24t-14 33q3 20 7.5 41.5t12.5 41t21 34.5t33 23q-13 -35 -24 -66.5t-17 -69.5
q41 -34 95 -46t110 -6.5t110.5 25t97.5 48.5q46 20 73 57t44 82t29.5 93t29.5 91q9 72 14 151.5t7 158.5t1.5 153t-1.5 135q6 22 5 47.5t-3.5 51.5t-4.5 51.5t3 46.5q-3 11 -8.5 13.5t-12 1t-12 -5.5t-8.5 -5q-12 -15 -20 -33.5t-15 -37t-15 -35.5t-20 -29q3 -31 -8 -48.5
t-25.5 -32.5t-27 -31t-12.5 -44q-69 -93 -125.5 -189.5t-112.5 -195.5q-6 -12 -11 -25t-11.5 -23t-14.5 -16.5t-20 -4.5q-15 27 -17.5 57.5t0.5 62.5t6 65t-2 65q8 34 15 70t16 73t22 73t33 70q15 49 36 99t47.5 96t59 86.5t70.5 71.5q23 7 43.5 3t39 -14.5t35.5 -25.5
t34 -29q15 22 25 48t16 50q37 -18 37 -82q-8 -9 -8 -17t3 -16t5.5 -17t-0.5 -19q-1 -103 3.5 -207t7 -206.5t-1.5 -202t-22 -193.5t-54 -180t-97 -162q-52 -40 -111 -64.5t-120.5 -34.5t-123.5 -4.5t-120 25.5zM1778 1810q21 -8 24 -20.5t-1.5 -28.5t-11 -33t-3.5 -32
q-13 -115 -30 -227t-23 -224q-2 -31 -6 -60t-7.5 -58.5t-3.5 -58.5t8 -60q26 43 49.5 91.5t48.5 98t54 97.5t66 89q18 35 45 67t61 56q12 -12 24.5 -27.5l25 -31t24.5 -30.5t24 -25q0 -19 -1.5 -40t-3 -42.5t-1 -42.5t5.5 -39q43 12 84.5 22l83 20t82 21.5t82.5 26.5
q12 -9 20 -20.5t5 -32.5q-59 -11 -114.5 -32.5t-111.5 -42t-112.5 -33.5t-116.5 -7q-7 -8 -12 -26.5t-6.5 -41t1 -45t10 -39t20 -23t32.5 2.5q4 7 7 20t6.5 26t9 24t14.5 16q15 -37 4.5 -72t-29.5 -63q-9 -8 -32.5 -9.5t-47 17t-38 63.5t-5.5 129q-9 13 -17 26t1 32
q18 17 26.5 38.5t12 46.5t4.5 51t6 52q-6 3 -8 8.5t-8 8.5q-28 -23 -47.5 -54t-36.5 -65t-33.5 -68t-38.5 -63q0 -29 -13.5 -52t-28.5 -45.5t-26 -47t-6 -56.5q-9 -12 -9.5 -32t-2 -39t-8.5 -34t-29 -18q-31 9 -41.5 30.5t-11 48.5t3 56t0.5 54q-6 38 -3.5 73t6.5 69t7 67.5
t-2 68.5q-15 -11 -24 -26.5t-15.5 -32.5t-13 -35t-16.5 -33q-15 -24 -29.5 -57t-32 -60.5t-41 -43.5t-57.5 -7q-18 34 -20 71.5t6.5 76t24 76t30.5 71.5q15 20 31 46.5t34.5 47.5t40.5 31t50 -2q16 -11 32 0q31 87 45.5 181.5t20.5 187.5zM3396 2122q26 32 52 67.5t47.5 76
t37.5 86t22 97.5q20 40 29.5 82t12 85t0.5 86.5t-5 86.5q-5 58 -17.5 120t-36 118t-58.5 102t-84 74q13 23 27 29t27.5 0t26.5 -20.5t25 -32.5t22.5 -36t18.5 -30q52 -78 75.5 -171t24.5 -191t-16.5 -196.5t-46.5 -187.5q-23 -69 -57 -135t-77.5 -124t-95.5 -105t-110 -78
q43 40 84 87.5t72 109.5zM3162 2400q8 -3 10 -12t3.5 -19t5 -20t14.5 -14q9 -3 17.5 1.5t15 12t12 16.5t8.5 15q13 93 2 184.5t-51 171.5l-21 -12q-18 -23 -36.5 -43.5t-35 -41.5t-32 -45t-27.5 -54l-24 -17q-21 -28 -40 -58.5t-37 -61t-36.5 -58.5t-38.5 -51
q-20 -3 -28.5 7.5t-12 27t-5 35t-7.5 32.5q3 16 0 36.5t-12 33.5q-9 1 -14 -4t-7.5 -12t-5 -14.5t-6.5 -10.5q-25 -31 -46.5 -47t-55.5 -19q-25 8 -36.5 22t-15 32t-0.5 39.5t7.5 44.5t8.5 46t3 46q6 31 17 57.5t25.5 51t32 48t35.5 47.5q15 5 33.5 13.5t37.5 12t36 -2.5
t29 -31l16 -24q-11 -34 -17 -70.5t-9.5 -74t-5.5 -75.5t-5 -75q3 -13 7.5 -27t17.5 -14q18 0 28 10.5t17 26t14 32.5t19 29q71 78 133 158.5t120 161.5q22 -9 29 -31t9 -47.5t3.5 -51t12.5 -42.5q9 -7 10 -15.5t-2 -17.5q25 -62 25.5 -128t-9.5 -134q-9 -31 -28 -62t-50 -41
q-24 10 -37 27.5t-28 42.5zM2687 2015q-25 -12 -52 -14t-53 5t-51 22t-45 36q-34 41 -57.5 87t-32.5 102q-15 7 -15.5 18.5t2.5 24.5t4 25.5t-11 21.5q6 14 3 28t-6.5 29t-4.5 31.5t8 34.5q0 123 31 228t83 196.5t119 170.5t139 150q12 1 29.5 6.5t33 6t27 -8.5t13.5 -37
q-5 -11 -13 -21.5t-18.5 -19t-22.5 -13.5t-24 -3q-2 6 -5 14.5t-7.5 13.5t-10.5 5.5t-14 -8.5q-48 -46 -95 -95t-88 -103t-73.5 -115t-50.5 -130q-11 -83 -16.5 -172.5t4 -174.5t38 -161t85.5 -131q15 -15 33 -20.5t37 -5.5t39 1.5t38 0.5q22 15 36.5 34.5t33.5 34.5
q3 -18 -3.5 -30.5t-17.5 -22.5t-24.5 -19.5t-24.5 -21.5zM2253 2449q-11 -34 -29.5 -65t-43.5 -55t-54.5 -38t-61.5 -14q-62 0 -118 31.5t-91 99.5q-21 47 -21.5 98.5t5.5 106.5q3 18 10.5 33t15 28.5t13.5 28.5t6 33q47 47 100.5 60.5t112.5 -11.5q6 -6 12.5 -10t11.5 -8.5
t7.5 -11.5t1.5 -19q-5 -8 -10 -6t-11.5 7t-13.5 10.5t-14 5.5q-47 15 -88.5 -4t-75.5 -62q-12 -25 -23 -52t-17 -56t-5 -58.5t12 -58.5q34 -59 77.5 -94.5t98.5 -45.5q14 8 30 10.5t32.5 6.5t32.5 12.5t28 28.5q11 7 18 22.5t14 29t15.5 20t22.5 -2.5zM1606 2179
q-25 71 -33.5 150.5t0.5 156.5q-3 3 -3 18t2 36t3.5 46.5t2.5 49.5t-1 44t-8 32q-15 -41 -19.5 -83.5t-6 -86t-1.5 -86t-5.5 -83.5t-18.5 -79.5t-39 -73.5q-5 -6 -22.5 -12.5t-39.5 4.5t-42.5 47.5t-31.5 116.5q13 77 16.5 148.5t12.5 146.5q1 13 -2.5 28t-6.5 30t-1 29.5
t14 26.5q13 6 24.5 1t20.5 -17q1 -63 -5 -130t-10 -130.5t-1.5 -119t20.5 -95.5q16 -13 26.5 -11.5t16.5 12t9 27.5t5.5 34t5 31.5t7.5 20.5q6 42 7 85.5t2.5 87t5 87t14.5 85.5q7 12 13.5 30.5t14.5 33t19.5 19.5t30.5 -10q21 -80 22.5 -157t-1 -154t-2 -154t20.5 -157
q4 -13 16 -16.5t21 12.5q1 1 3.5 11.5t7 25.5t10.5 32t13.5 32t16.5 24.5t19 9.5q-9 -25 -16 -50t-15 -50t-18 -49.5t-25 -47.5q-21 -12 -39 2t-30 39zM1237 2212q-4 -4 -7.5 -9t-12.5 -11t-25 -12t-45 -12.5t-74 -13t-110 -12.5q-112 -12 -212.5 -35.5t-205.5 -66.5
q-8 -22 -19.5 -28t-24.5 -4t-25 10l-21 14q-3 18 3.5 30t16.5 22t20 20.5t13 25.5q18 49 33.5 98t27.5 99q-3 12 -0.5 25.5t7.5 27t11 27.5t11 26q35 103 69.5 207.5t66 211t59 214.5t47.5 219q-3 25 -1.5 48t13.5 38q9 4 15 1.5t10.5 -9t7.5 -15t8 -14.5
q-21 -158 -64.5 -306.5t-93 -294.5t-98 -293t-80.5 -302l8 -8q61 12 120.5 26.5t118.5 27.5t119.5 21.5t125.5 10.5q40 -9 90 -7.5t90 19.5zM2421 -221q9 26 9.5 55t-4.5 58.5t-15.5 57t-22.5 50.5q-16 -25 -21 -54t-8 -57q3 -17 6.5 -35t10.5 -34t17.5 -27t27.5 -14z
M1982 33q-9 -47 -12.5 -96t8.5 -93q9 -12 26 -11t31 14t21 36.5t-4 55.5q4 18 8.5 45.5t4 54t-8.5 47t-28 25.5zM1327 385q-6 23 -20 36t-31.5 17.5t-35.5 2t-32 -10.5q-34 -37 -68.5 -77t-62.5 -87q-17 -63 -40 -123.5t-42.5 -122t-31 -125.5t-5.5 -133q10 -3 12.5 4
t8.5 13q45 73 95.5 143.5t98.5 143.5t89 151.5t65 167.5zM2048 1241q15 3 16 8.5t4 12.5q5 10 9.5 25.5t5.5 30.5t-3 27t-16 15zM1618 1352q-11 3 -22 -1t-21.5 -12.5t-19.5 -20.5t-15 -24q-17 -27 -34 -58.5t-28 -64.5t-13 -67t10 -68q7 -5 12.5 -3t9.5 7t6 12t4 13
q37 46 65 94.5t50 110.5zM2802 2712q9 0 12.5 6.5t4.5 15.5t0 17.5t-1 13.5q-6 7 -11 5t-9 -7t-8.5 -9t-8.5 -1q-37 -23 -61.5 -60t-38.5 -81t-19.5 -92.5t-3.5 -94.5q11 -3 20.5 3t18.5 13.5t18.5 13.5t20.5 3q9 27 28.5 57.5t35 62.5t19.5 66t-17 68z" />
    <glyph glyph-name="ringacute" unicode="&#xebeb;" horiz-adv-x="1106" 
 />
    <glyph glyph-name="ringacute.cap" unicode="&#xebec;" horiz-adv-x="1106" 
 />
    <glyph glyph-name="one.dnom" unicode="&#xed0e;" horiz-adv-x="1159" 
d="M360 0v885l-245 -123l-78 418l487 266h430v-1446h-594z" />
    <glyph glyph-name="two.dnom" unicode="&#xed0f;" horiz-adv-x="1401" 
d="M90 0v381l242 229q64 61 111.5 110t78 90t45.5 77t15 71q0 59 -35.5 91t-116.5 32q-71 0 -131.5 -16.5t-110.5 -44.5l-102 360q61 25 125 44.5t134 33.5t147.5 21.5t166.5 7.5q168 0 283 -31.5t186 -88.5t102.5 -136t31.5 -174q0 -71 -19.5 -135t-62 -127t-109.5 -128
t-162 -139l-114 -86h491v-442h-1196z" />
    <glyph glyph-name="three.dnom" unicode="&#xed10;" horiz-adv-x="1438" 
d="M94 307q29 -3 70.5 -5.5t87.5 -4t93.5 -2t88.5 -0.5q112 0 173 38.5t61 100.5q0 42 -17 70t-49 45.5t-77.5 25t-102.5 7.5h-176v315h184q112 0 170.5 37.5t58.5 105.5q0 53 -42 82t-125 29q-75 0 -152.5 -15.5t-142.5 -45.5l-111 307q66 21 139.5 38t150 28.5t155 17.5
t153.5 6q158 0 271.5 -25.5t186 -75.5t106.5 -123.5t34 -168.5q0 -59 -14 -111t-42 -95t-70 -75.5t-99 -50.5q69 -12 122.5 -41.5t89.5 -72t55 -97t19 -117.5q0 -126 -48.5 -218.5t-138 -153t-216 -90t-281.5 -29.5q-139 0 -280.5 12t-284.5 37v315z" />
    <glyph glyph-name="four.dnom" unicode="&#xed11;" horiz-adv-x="1462" 
d="M754 0v217h-713v381l487 832h725v-828h164v-385h-164v-217h-499zM754 1118h-4l-308 -516h312v516z" />
    <glyph glyph-name="LuFo" unicode="&#xeeef;" horiz-adv-x="737" 
d="M737 -905h-737v737h737v-737zM82 -250v-573h573v573h-573zM164 -332h82v-327h164v-82h-246v409zM573 -332v-409h-81v163h-164v82h164v82h-164v82h245zM737 3273h-737v737h737v-737zM82 3928v-573h573v573h-573zM164 3846h82v-328h164v-81h-246v409zM573 3846v-409h-81
v163h-164v82h164v82h-164v82h245z" />
    <glyph glyph-name="acute.cap" unicode="&#xf6c9;" horiz-adv-x="1434" 
d="M159 3015l-159 315l835 349l211 -431z" />
    <glyph glyph-name="caron.cap" unicode="&#xf6ca;" horiz-adv-x="1843" 
d="M678 3019l-678 343l143 312l537 -209l537 209l136 -308z" />
    <glyph glyph-name="dieresis.cap" unicode="&#xf6cb;" horiz-adv-x="1843" 
d="M1514 3324q0 -68 -22 -123.5t-62 -96t-96.5 -62t-125.5 -21.5q-68 0 -124 21.5t-95.5 62t-61.5 96t-22 123.5t22 124.5t61.5 96t95.5 61.5t124 22q69 0 125.5 -22t96.5 -61.5t62 -96t22 -124.5zM609 3324q0 -68 -21.5 -123.5t-62 -96t-96.5 -62t-126 -21.5
q-69 0 -125 21.5t-95.5 62t-61 96t-21.5 123.5t21.5 124.5t61 96t95.5 61.5t125 22q70 0 126 -22t96.5 -61.5t62 -96t21.5 -124.5z" />
    <glyph glyph-name="grave.cap" unicode="&#xf6ce;" horiz-adv-x="1434" 
d="M887 3015l-887 233l211 431l835 -349z" />
    <glyph glyph-name="hungarumlaut.cap" unicode="&#xf6cf;" horiz-adv-x="1887" 
d="M1166 3023l-327 157l530 685l450 -256zM318 3023l-317 157l485 707l441 -254z" />
    <glyph glyph-name="macron.cap" unicode="&#xf6d0;" horiz-adv-x="1341" 
d="M0 3138v438h1217v-438h-1217z" />
    <glyph glyph-name="apple" unicode="&#xf8ff;" horiz-adv-x="3932" 
d="M3604 2339q0 -6 -2.5 -11.5t-5.5 -5.5q-43 7 -85.5 1t-86.5 -9q-69 -3 -122 -5.5t-96 -5.5t-79 -7t-71 -10q-15 -14 -20.5 -30.5t-7.5 -34.5l-4 -36t-9 -35q0 -18 6.5 -32t9.5 -29q9 -12 25.5 -19t31.5 -10q28 3 55 16t40 38q0 15 -8.5 27t-20.5 22q-9 7 -20.5 8.5
t-22.5 2.5t-21.5 3.5t-17.5 13.5q6 11 16 14.5t22.5 3t26 -2.5t25.5 -2q22 -7 37 -24t25 -42q-4 -34 -23.5 -61.5t-50.5 -48.5q-22 -7 -43.5 -11t-42.5 -10q-25 6 -51 13.5t-51 18.5t-46.5 27t-36.5 39q-8 25 -7 47.5t4.5 44.5t8.5 44t7 45q-5 9 -11.5 12t-15 3.5
t-17.5 -0.5t-18 1l-135 -4q0 6 -4 8t-4 8q12 10 28.5 9.5t28.5 3.5q37 -7 78 -3.5t78 3.5q15 12 17.5 31.5t2.5 37.5q6 14 9 31t5.5 33.5t7 32t15.5 26.5q11 6 19 4t14.5 -7.5t12.5 -13t12 -12.5q10 -15 12 -33t1 -37.5t-1 -39t8 -37.5q8 -12 19 -15t23.5 -2.5t24.5 2.5
t23 -1q48 3 96.5 3.5t104 2t120 5.5t142.5 13q6 -3 9.5 -4.5t6.5 -7.5zM2654 2056q-49 0 -104 -2.5t-105 -17.5q-15 6 -29.5 10t-23.5 22q9 56 14.5 115t-10.5 115q-5 6 -12 5.5t-15 -4.5t-16 -9.5t-14 -8.5q-28 -17 -56.5 -37t-52.5 -44t-40 -52.5t-19 -62.5
q-16 -16 -37.5 -23t-40.5 2q-11 14 -12.5 29.5t0 32t3 33.5t-2.5 32l-4 127q-6 6 -14.5 7t-18 0.5t-20 -1t-21.5 2.5q-5 3 -12.5 3t-14.5 0.5t-12.5 4t-5.5 12.5q26 -2 52.5 0.5t52.5 4.5t53 2.5t55 -3.5q12 -11 12.5 -27t0 -32.5t3 -30.5t21.5 -20q27 12 53.5 27.5t52.5 31
t52.5 30t54.5 25.5q12 -8 27.5 -7t29.5 1t25 -5.5t16 -25.5q9 -43 7 -86t1 -90q3 -6 3.5 -12.5t1.5 -13.5t3.5 -13t8.5 -10q15 -3 27.5 -4.5t25.5 4.5q15 0 31.5 -4t37.5 -4q4 -3 5.5 -8.5t-5.5 -12.5zM1831 2290q6 -37 -0.5 -70t-28.5 -57q-21 -14 -41 -31.5t-40 -33
t-42.5 -27.5t-48.5 -15q-12 4 -18 -1.5t-10 -12t-9 -10.5t-16 4q-11 7 -23.5 8t-26 -0.5t-27 -3.5t-25.5 0q-25 0 -45 1.5t-41 10.5q-15 14 -32 29.5t-29.5 33.5t-17 39t4.5 46q12 37 35 69t63 53q21 11 43.5 23t46.5 21t49.5 12.5t53.5 -2.5q32 -2 65.5 -5t64 -12
t55.5 -25.5t40 -43.5zM1851 2720q-21 -25 -54 -33.5t-64 0.5q-19 25 -37 47.5t-21 50.5q-26 42 -63 65.5t-79.5 37.5t-88 23.5t-88.5 21.5l-127 8q-5 -5 -11.5 -5.5t-13.5 0t-14.5 0.5t-13.5 -3q-71 -22 -124 -42t-102 -44q-12 -15 -29.5 -28t-34.5 -26.5t-30 -29.5t-16 -39
q-12 -31 -20 -66.5t-13 -72.5t-8 -75t-4 -73q9 -8 20 -9.5t23 -0.5l24 2t23 0q86 9 172.5 8.5t179.5 -0.5q6 -3 6.5 -12.5t-2.5 -16.5q-17 -12 -32.5 -10t-31 8.5t-31 11.5t-32.5 -1q-40 3 -84 -2.5t-84 -1.5q-18 -3 -37.5 -5l-39 -4t-37.5 -6.5t-33 -13.5l-13 -17
q-3 -38 -4 -68t0 -59t3.5 -60t5.5 -71q3 -14 2 -28t-1.5 -28.5t2 -29t13.5 -28.5q35 -2 59.5 -2t44.5 1t37 2.5t37 3.5t45 4t60 3q12 9 26 4t27 -8q3 -3 2 -8t2 -8l-17 -9q-47 9 -84.5 7.5t-75.5 -6.5t-82.5 -9.5t-105.5 0.5q-43 -3 -92.5 -7t-95.5 -1q-65 -3 -134 -3
t-128 15l-8 13q6 6 16.5 11.5t19.5 8.5q31 -15 74 -18.5t86 -10.5q14 1 28.5 1t28 1t26.5 4t24 11q-2 52 3.5 97.5t13 90t15.5 91t13 102.5q-3 6 -6 9.5t-7 6.5q-30 1 -59.5 0t-58 -0.5t-56 5t-55.5 16.5q-3 9 1.5 14.5t10.5 5.5q56 -15 115 -15t115 3l8 12q4 34 10 70
t13 71.5t16.5 68.5t21.5 60v13q93 108 214.5 173t273.5 81q74 9 148 -8.5t139 -45.5q18 -6 40.5 -6.5t40.5 -9.5q36 -8 71.5 -19.5t68.5 -29t62 -40.5t52 -54q7 -7 5 -17.5t-5 -19.5zM3142 -254q-45 3 -96.5 -1.5t-104 -10t-103.5 -8t-94 3.5q-114 4 -225 -2.5t-221 -13.5
t-220.5 -10t-222.5 9q-51 -8 -100 -8.5t-98 2.5t-97.5 8.5t-97.5 10.5q-120 9 -244 6.5t-251 -2.5q-43 0 -96.5 -1t-108.5 -4.5t-108.5 -10t-96.5 -17.5q-15 -3 -33.5 -2.5t-27.5 18.5q0 32 -2 66t-2.5 67.5t2.5 67.5t14 66q3 40 3 81v82.5t1.5 82.5t7.5 81q-8 46 -6.5 91.5
t4.5 91t4.5 91t-6.5 91.5q0 133 11.5 265t17.5 271q4 74 4.5 147t-1 146t-2 146t2.5 147q7 17 19.5 21.5t27 4.5t30 -1t29.5 4q17 -9 36.5 -10.5t39.5 0.5t39.5 4.5t36.5 1.5q6 6 14.5 12.5t16.5 9.5t14 -0.5t8 -17.5q3 -5 2.5 -11.5t-1 -13.5t1 -13.5t9.5 -10.5
q-5 -39 -5.5 -96.5t1.5 -127t6.5 -147t9.5 -156t9.5 -154.5t7.5 -143q64 20 123 50.5t116 63t115 63.5t121 53q22 9 40 24.5t46 24.5q3 1 7 5t9 7t11 3.5t14 -3.5q11 -5 14.5 -12.5t3 -17.5t-2.5 -20.5t-2 -19.5q-19 -55 -24.5 -121t3.5 -128q4 -9 11.5 -11t15.5 -0.5
t16 4.5t14 3q34 27 70 46t70 44q40 24 82 47t86 39q49 34 96.5 67t99.5 51l82 66q3 9 9 15.5t16 13.5q12 0 22 -8t23 -17q0 -29 3.5 -58.5t8 -58.5t8.5 -58t4 -58q1 -6 5 -8t7.5 -2.5t7 -1.5t5.5 -5q7 -11 8 -21.5t-1.5 -21t-7 -20.5t-7.5 -19l8 -8q46 10 88 30.5t81.5 46
t78 53t78.5 53.5t82 47t88 32q9 9 20 14.5t23 10.5t24 11t23 17q20 3 37.5 18.5t35.5 28.5t38 17t44 -14q6 0 16 -3.5t13 -13.5q-3 -15 3.5 -26t12.5 -23q-5 -15 -3.5 -30t3 -28.5t1 -27t-8.5 -25.5q1 -26 0 -52t-0.5 -50.5t5 -48.5t16.5 -45q-3 -14 1 -26.5t8.5 -24
t6 -22.5t-7.5 -21q1 -15 0.5 -30t0 -28.5t3.5 -27t12 -25.5q3 -18 5.5 -38t-9.5 -36q4 -23 6.5 -46.5t4.5 -47.5t6 -47.5t12 -46.5q-10 -16 -5 -33t5 -33q0 -77 7 -151t16 -148t16.5 -149.5t9.5 -153.5q0 -6 5 -16.5t-1 -20.5zM1741 2208q-5 21 -12 44t-19.5 42.5t-31 33.5
t-44.5 19q-3 -11 -10 -13.5t-15.5 -2t-17 2.5t-14.5 1q-28 12 -58 4.5t-49 -29.5q-21 -31 -22.5 -61t9 -58.5t28.5 -56t35 -53.5q3 -8 8 -10.5t11.5 -2.5t14 1t15.5 -1q14 -5 27 -2.5t25.5 8t25 12t24.5 11.5q12 12 27.5 23t27.5 23t17 27.5t-2 37.5zM3027 -41
q-16 34 -32.5 68.5t-41.5 62.5q-12 21 -26.5 41.5t-27.5 42t-23 44t-13 48.5q-5 9 -10.5 18t-9.5 17t-5.5 17t1.5 18q13 17 31 30t36.5 24.5t36 24t31.5 27.5l-37 70q-37 -3 -66.5 -17.5t-60.5 -23.5q-8 -5 -17 -12.5t-19 -13t-20.5 -5.5t-21.5 11q3 80 5 161t-1 158l-8 12
q-31 0 -57 10t-54 19q-6 -46 -12 -96.5t0 -100.5q-6 -17 -5 -37.5t2.5 -42t1.5 -42t-7 -37.5q3 -63 0.5 -114t-5.5 -99t-4 -98t5 -111l-4 -29h98q6 1 12.5 -1t13.5 -3.5t12.5 -1.5t10.5 6q0 28 -0.5 56t-3.5 59q1 15 -3.5 32.5t-6.5 33.5t3.5 29t27.5 19q10 -5 15 -12
t7.5 -15t5 -17t8.5 -17q-2 -14 3.5 -25.5t12.5 -23t14.5 -22.5t10.5 -23q20 -12 34.5 -29.5t27 -36.5t26 -37t31.5 -32q6 1 12 -1t12 -5t13 -4.5t16 1.5q10 0 17.5 8t7.5 17zM2490 733q-6 19 -16.5 35.5t-32.5 26.5q-9 9 -22 10.5t-19 -10.5q-9 -12 -16 -28.5t-10 -33
t-1 -33t11 -28.5q3 -11 11.5 -16.5t19.5 -7t23.5 0t23.5 6.5q18 13 24.5 35t3.5 43zM2499 61q0 81 -4.5 159t-4.5 153q0 28 3.5 54.5t-3.5 51.5q-14 11 -27.5 11.5t-27.5 -2.5t-29 -7t-30 -2q-14 -23 -18 -48t-3.5 -51t2 -53t-1.5 -53q-9 -21 -9 -49.5t-3 -56.5
q4 -20 3.5 -43t-0.5 -47t3.5 -47t17.5 -43q31 0 63.5 5.5t59.5 14.5q7 13 8 27t1 26zM2294 504q-15 -2 -32.5 -3.5t-34 -6.5t-31 -15t-25.5 -28q-8 -8 -11.5 -21.5t-8.5 -26t-14 -20t-28 -2.5q-9 31 -8.5 58t0.5 61q-8 4 -15.5 3t-15 -3.5t-15.5 -3.5t-15 4q-19 -10 -29 -24
t-16 -30q0 -119 2 -228.5t14 -225.5l12 -17q11 -8 23.5 -7.5t25.5 3t25 4t21 -3.5q-6 23 -5.5 44.5t2.5 41.5t2 40.5t-8 41.5q10 47 22.5 93.5t43.5 86.5q12 9 26 14.5t27.5 11t27 11.5t25.5 17q2 17 6 33t7 32.5t3.5 32.5t-3.5 33zM1876 123q18 35 23.5 71t2.5 73.5t-11 76
t-15 78.5q3 12 -10.5 23.5t-31.5 21.5t-36 18.5t-24 14.5q-7 6 -18.5 7t-14.5 -11q-25 3 -42 -0.5t-36 -16.5q-11 -6 -18.5 -14.5t-13.5 -17.5t-12 -17t-13 -12q-10 -6 -20.5 -1.5t-16.5 13.5q15 74 7.5 150t-20.5 153l-8 29h-32q-19 -6 -25.5 -18.5t-7.5 -27t-0.5 -30
t-3.5 -27.5q-6 -34 -7.5 -69t-1.5 -70t-1 -70t-7 -69q3 -34 2 -67.5t-2.5 -66.5t-2 -65t2.5 -63q0 -37 -5.5 -72t-2.5 -76q14 -8 30.5 -8t33 4.5t33 11.5t30.5 13q20 9 33 4t23.5 -16t20 -24.5t21.5 -21.5q16 0 27 0.5t27 4.5q21 12 47 33t47.5 46.5t35.5 52.5t13 52z
M1364 139q-14 45 -13.5 90.5t2 90t-2.5 87t-27 80.5q-25 16 -49 28t-45 22l-33 20q-17 -3 -34.5 -2t-34.5 1t-34 -3.5t-32 -15.5q-14 -8 -20.5 -20t-8.5 -26t-2.5 -30t-1.5 -31q21 -9 47 -6t51 5t48 -4t38 -32q-2 -8 1 -13.5t6 -10.5t3.5 -11t-5.5 -14q-4 -6 -5 -16.5
t9 -16.5q6 -9 3 -21t-16 -16q-28 -9 -55.5 -7.5t-58.5 -4.5q-23 -9 -40.5 -25.5t-29.5 -37.5t-20 -44t-13 -44q-6 -11 -5 -22.5t3 -22.5t2 -21.5t-8 -19.5q0 -28 20 -44.5t41 -25.5q7 6 15.5 11.5t17.5 -3.5q17 -5 32 1.5t29 17.5t28.5 24.5t29.5 22.5q21 4 25.5 -4.5
t3.5 -23t-2 -30t10 -24.5q9 -5 17 -4.5t15.5 3.5t15.5 6t17 3q16 6 32.5 9t29.5 16l4 159v0zM1016 741q-50 10 -105.5 6.5t-107.5 -6.5q-31 -3 -60 -10t-51 -22q-3 -65 -12.5 -133.5t-15.5 -133.5q4 -54 5 -110t0.5 -113.5t-0.5 -114.5t3 -112q15 0 30 5t27 -1q12 3 24 1
t23.5 -4t23 -2.5t23.5 5.5q3 65 4 129t4 129q10 22 28.5 31t37.5 18q8 4 16 3.5t16 -2t15.5 0t13.5 10.5l-4 115q-8 9 -17.5 13t-20.5 4.5t-23.5 -0.5t-24.5 -1q-6 -6 -12.5 -11t-15.5 -5q-15 3 -21 13.5t-8 24t-3 27.5t-5 25q-6 13 0.5 22.5t15.5 18.5q40 13 80 20t80 13
l25 16q-3 18 -1.5 34.5t4.5 32.5t6 31.5t3 32.5zM1761 315q14 -29 17.5 -59.5t-2 -60.5t-19 -57t-33.5 -48q-9 -15 -22.5 -18.5t-26.5 -10.5q-26 3 -39 18t-19 35t-8.5 42t-6.5 41q4 15 6.5 32.5t5 34.5t7 33.5t13.5 30.5q14 7 23 19.5t17 24.5t18.5 20.5t27.5 8.5l13 -12
q-5 -14 -1.5 -23t9.5 -17t12 -15.5t8 -18.5zM1208 172q0 -31 -17.5 -53.5t-39.5 -40.5q-8 -2 -16 -7t-16 -9t-17.5 -5.5t-20.5 4.5q-14 3 -17.5 12t-2 19.5t5.5 22t6 20.5q0 13 11 24t26 17q12 0 22 3.5t19 13.5q6 -2 14 -2t16 -1t15 -5t12 -13z" />
    <glyph glyph-name="ff" unicode="&#xfb00;" horiz-adv-x="2843" 
d="M1039 1608v-1608h-686v1608h-291v517h291v164q0 128 16 239.5t51 204.5t91.5 166t138 123t189 76.5t244.5 26.5q56 0 108.5 -3t100 -8t91 -12.5t82.5 -15.5v-477h-188q-47 0 -82.5 -9.5t-62.5 -27.5t-44.5 -43.5t-28.5 -58t-15.5 -69.5t-4.5 -79v-197h686v164
q0 128 16.5 239.5t51.5 204.5t91.5 166t138 123t189 76.5t244.5 26.5q56 0 108 -3t99.5 -8t91.5 -12.5t83 -15.5v-477h-189q-47 0 -82.5 -9.5t-62 -27.5t-44.5 -43.5t-28.5 -58t-15 -69.5t-4.5 -79v-197h374v-517h-374v-1608h-687v1608h-686z" />
    <glyph glyph-name="fi" unicode="&#xfb01;" horiz-adv-x="2657" 
d="M2473 2720q0 -87 -28.5 -158t-80.5 -121t-125.5 -77.5t-161.5 -27.5t-161 27.5t-125 77.5t-81 121t-29 158q0 88 29 158.5t81 120.5t125 77.5t161 27.5t161.5 -27.5t125.5 -77.5t80.5 -120.5t28.5 -158.5zM1728 0v1608h-689v-1608h-686v1608h-291v517h291v164
q0 128 16 239.5t51 204.5t91.5 166t138 123t189 76.5t244.5 26.5q56 0 104.5 -3t92.5 -8t84 -12.5t79 -15.5v-477h-166q-47 0 -82.5 -9.5t-62.5 -27.5t-44.5 -43.5t-28.5 -58t-15.5 -69.5t-4.5 -79v-197h1376v-2125h-687z" />
    <glyph glyph-name="fl" unicode="&#xfb02;" horiz-adv-x="2710" 
d="M2658 0q-34 -10 -77 -20.5t-94 -19t-110.5 -14t-126.5 -5.5q-120 0 -221 26t-174.5 89.5t-114.5 170.5t-41 269v2096q-44 4 -86 7.5t-83.5 5.5t-81.5 3t-79 1q-70 0 -121.5 -10.5t-88.5 -31t-60.5 -50.5t-36.5 -69.5t-18 -87.5t-5 -105v-130h345v-517h-345v-1608h-686
v1608h-291v517h291v109q0 147 18 270.5t62 222.5t118.5 173.5t186.5 124.5t267 75.5t360 25.5q127 0 251.5 -4.5t250.5 -13.5t255 -22t263 -31v-2380q0 -50 8 -86t26 -59.5t47 -34t72 -10.5h120v-485v0z" />
    <glyph glyph-name="ffi" unicode="&#xfb03;" horiz-adv-x="4032" 
d="M3837 2720q0 -87 -29 -158t-81 -121t-125 -77.5t-161 -27.5q-89 0 -162 27.5t-125 77.5t-81 121t-29 158q0 88 29 158.5t81 120.5t125 77.5t162 27.5q88 0 161 -27.5t125 -77.5t81 -120.5t29 -158.5zM2412 0h-687v1608h-686v-1608h-686v1608h-291v517h291v164
q0 128 16 239.5t51 204.5t91.5 166t138 123t189 76.5t244.5 26.5q56 0 108.5 -3t100 -8t91 -12.5t82.5 -15.5v-477h-188q-47 0 -82.5 -9.5t-62.5 -27.5t-44.5 -43.5t-28.5 -58t-15.5 -69.5t-4.5 -79v-197h686v164q0 128 16.5 239.5t51.5 204.5t91.5 166t138 123t189 76.5
t244.5 26.5q56 0 108 -3t99.5 -8t91.5 -12.5t83 -15.5v-477h-189q-47 0 -82.5 -9.5t-62 -27.5t-44.5 -43.5t-28.5 -58t-15 -69.5t-4.5 -79v-197h1372v-2125h-686v1608h-686v-1608z" />
    <glyph glyph-name="ffl" unicode="&#xfb04;" horiz-adv-x="4109" 
d="M1725 2125v109q0 147 19.5 270.5t64.5 222.5t121 173.5t189.5 124.5t269 75.5t360.5 25.5q126 0 251.5 -4.5t252.5 -13.5t259 -22t272 -31v-2380q0 -50 7.5 -86t26 -59.5t47.5 -34t72 -10.5h121v-485q-35 -10 -78 -20.5t-94 -19t-110 -14t-127 -5.5q-120 0 -221.5 26
t-174.5 89.5t-114 170.5t-41 269v2096q-99 9 -182.5 13t-161.5 4q-70 0 -123 -10.5t-91 -31t-63 -50.5t-39.5 -69.5t-20 -87.5t-5.5 -105v-130h344v-517h-344v-1608h-687v1608h-686v-1608h-686v1608h-291v517h291v164q0 128 16 239.5t51 204.5t91.5 166t138 123t189 76.5
t244.5 26.5q56 0 108.5 -3t100 -8t91 -12.5t82.5 -15.5v-477h-188q-47 0 -82.5 -9.5t-62.5 -27.5t-44.5 -43.5t-28.5 -58t-15.5 -69.5t-4.5 -79v-197h686z" />
    </font>
</defs>
</svg>
